<ttFont>
    <TTGlyph name="A" xMin="-4" yMin="0" xMax="1551" yMax="1573">
      <contour>
        <pt x="9" y="109" on="1"/>
        <pt x="85" y="109" on="0"/>
        <pt x="111" y="129" on="1"/>
        <pt x="151" y="160" on="0"/>
        <pt x="181" y="232" on="1"/>
        <pt x="180" y="232" on="1"/>
        <pt x="680" y="1530" on="1"/>
        <pt x="736" y="1530" on="0"/>
        <pt x="840" y="1564" on="0"/>
        <pt x="853" y="1573" on="1"/>
        <pt x="1315" y="335" on="1"/>
        <pt x="1369" y="178" on="0"/>
        <pt x="1434" y="126" on="1"/>
        <pt x="1454" y="110" on="0"/>
        <pt x="1471" y="110" on="1"/>
        <pt x="1521" y="110" on="0"/>
        <pt x="1551" y="129" on="1"/>
        <pt x="1529" y="0" on="1"/>
        <pt x="934" y="0" on="1"/>
        <pt x="949" y="110" on="1"/>
        <pt x="1118" y="107" on="0"/>
        <pt x="1132" y="174" on="1"/>
        <pt x="1137" y="194" on="0"/>
        <pt x="1132" y="218" on="1"/>
        <pt x="1004" y="557" on="1"/>
        <pt x="470" y="557" on="1"/>
        <pt x="342" y="191" on="1"/>
        <pt x="323" y="145" on="0"/>
        <pt x="364" y="118" on="1"/>
        <pt x="375" y="110" on="0"/>
        <pt x="436" y="110" on="0"/>
        <pt x="458" y="112" on="1"/>
        <pt x="512" y="115" on="0"/>
        <pt x="538" y="125" on="1"/>
        <pt x="522" y="0" on="1"/>
        <pt x="-4" y="0" on="1"/>
      </contour>
      <contour>
        <pt x="958" y="680" on="1"/>
        <pt x="728" y="1291" on="1"/>
        <pt x="513" y="680" on="1"/>
      </contour>
    </TTGlyph>
    <TTGlyph name="AE" xMin="-39" yMin="0" xMax="2004" yMax="1546">
      <contour>
        <pt x="333" y="161" on="1"/>
        <pt x="333" y="116" on="0"/>
        <pt x="390" y="110" on="1"/>
        <pt x="494" y="110" on="0"/>
        <pt x="545" y="127" on="1"/>
        <pt x="529" y="0" on="1"/>
        <pt x="-39" y="0" on="1"/>
        <pt x="-19" y="109" on="1"/>
        <pt x="42" y="109" on="0"/>
        <pt x="89" y="153" on="0"/>
        <pt x="103" y="176" on="1"/>
        <pt x="824" y="1413" on="1"/>
        <pt x="684" y="1413" on="1"/>
        <pt x="539" y="1413" on="0"/>
        <pt x="409" y="1375" on="1"/>
        <pt x="418" y="1530" on="1"/>
        <pt x="1600" y="1530" on="1"/>
        <pt x="1842" y="1530" on="0"/>
        <pt x="1958" y="1546" on="1"/>
        <pt x="1958" y="1321" on="0"/>
        <pt x="1912" y="1168" on="1"/>
        <pt x="1815" y="1168" on="1"/>
        <pt x="1805" y="1330" on="0"/>
        <pt x="1753" y="1375" on="1"/>
        <pt x="1724" y="1400" on="0"/>
        <pt x="1630" y="1413" on="0"/>
        <pt x="1560" y="1413" on="1"/>
        <pt x="1184" y="1413" on="1"/>
        <pt x="1184" y="801" on="1"/>
        <pt x="1374" y="801" on="1"/>
        <pt x="1521" y="801" on="0"/>
        <pt x="1548" y="896" on="1"/>
        <pt x="1557" y="928" on="0"/>
        <pt x="1561" y="970" on="1"/>
        <pt x="1678" y="971" on="1"/>
        <pt x="1678" y="922" on="1"/>
        <pt x="1678" y="774" on="0"/>
        <pt x="1670" y="650" on="1"/>
        <pt x="1659" y="481" on="1"/>
        <pt x="1542" y="481" on="1"/>
        <pt x="1536" y="587" on="0"/>
        <pt x="1480" y="655" on="0"/>
        <pt x="1416" y="678" on="0"/>
        <pt x="1368" y="678" on="1"/>
        <pt x="1184" y="678" on="1"/>
        <pt x="1184" y="279" on="1"/>
        <pt x="1184" y="181" on="0"/>
        <pt x="1260" y="119" on="0"/>
        <pt x="1379" y="115" on="1"/>
        <pt x="1575" y="115" on="1"/>
        <pt x="1775" y="115" on="0"/>
        <pt x="1851" y="288" on="1"/>
        <pt x="1875" y="342" on="0"/>
        <pt x="1883" y="410" on="1"/>
        <pt x="2004" y="410" on="1"/>
        <pt x="2004" y="296" on="0"/>
        <pt x="1982" y="170" on="1"/>
        <pt x="1951" y="0" on="1"/>
        <pt x="806" y="0" on="1"/>
        <pt x="799" y="2" on="1"/>
        <pt x="808" y="79" on="0"/>
        <pt x="816" y="110" on="1"/>
        <pt x="901" y="110" on="0"/>
        <pt x="928" y="134" on="1"/>
        <pt x="975" y="174" on="0"/>
        <pt x="975" y="269" on="1"/>
        <pt x="975" y="678" on="1"/>
        <pt x="598" y="678" on="1"/>
        <pt x="357" y="223" on="1"/>
        <pt x="333" y="178" on="0"/>
      </contour>
      <contour>
        <pt x="975" y="801" on="1"/>
        <pt x="976" y="1388" on="1"/>
        <pt x="664" y="801" on="1"/>
      </contour>
    </TTGlyph>
    <TTGlyph name="AEacute" xMin="-39" yMin="0" xMax="2004" yMax="2041">
      <contour>
        <pt x="333" y="161" on="1"/>
        <pt x="333" y="116" on="0"/>
        <pt x="390" y="110" on="1"/>
        <pt x="494" y="110" on="0"/>
        <pt x="545" y="127" on="1"/>
        <pt x="529" y="0" on="1"/>
        <pt x="-39" y="0" on="1"/>
        <pt x="-19" y="109" on="1"/>
        <pt x="42" y="109" on="0"/>
        <pt x="89" y="153" on="0"/>
        <pt x="103" y="176" on="1"/>
        <pt x="824" y="1413" on="1"/>
        <pt x="684" y="1413" on="1"/>
        <pt x="539" y="1413" on="0"/>
        <pt x="409" y="1375" on="1"/>
        <pt x="418" y="1530" on="1"/>
        <pt x="1600" y="1530" on="1"/>
        <pt x="1842" y="1530" on="0"/>
        <pt x="1958" y="1546" on="1"/>
        <pt x="1958" y="1321" on="0"/>
        <pt x="1912" y="1168" on="1"/>
        <pt x="1815" y="1168" on="1"/>
        <pt x="1805" y="1330" on="0"/>
        <pt x="1753" y="1375" on="1"/>
        <pt x="1724" y="1400" on="0"/>
        <pt x="1630" y="1413" on="0"/>
        <pt x="1560" y="1413" on="1"/>
        <pt x="1184" y="1413" on="1"/>
        <pt x="1184" y="801" on="1"/>
        <pt x="1374" y="801" on="1"/>
        <pt x="1521" y="801" on="0"/>
        <pt x="1548" y="896" on="1"/>
        <pt x="1557" y="928" on="0"/>
        <pt x="1561" y="970" on="1"/>
        <pt x="1678" y="971" on="1"/>
        <pt x="1678" y="922" on="1"/>
        <pt x="1678" y="774" on="0"/>
        <pt x="1670" y="650" on="1"/>
        <pt x="1659" y="481" on="1"/>
        <pt x="1542" y="481" on="1"/>
        <pt x="1536" y="587" on="0"/>
        <pt x="1480" y="655" on="0"/>
        <pt x="1416" y="678" on="0"/>
        <pt x="1368" y="678" on="1"/>
        <pt x="1184" y="678" on="1"/>
        <pt x="1184" y="279" on="1"/>
        <pt x="1184" y="181" on="0"/>
        <pt x="1260" y="119" on="0"/>
        <pt x="1379" y="115" on="1"/>
        <pt x="1575" y="115" on="1"/>
        <pt x="1775" y="115" on="0"/>
        <pt x="1851" y="288" on="1"/>
        <pt x="1875" y="342" on="0"/>
        <pt x="1883" y="410" on="1"/>
        <pt x="2004" y="410" on="1"/>
        <pt x="2004" y="296" on="0"/>
        <pt x="1982" y="170" on="1"/>
        <pt x="1951" y="0" on="1"/>
        <pt x="806" y="0" on="1"/>
        <pt x="799" y="2" on="1"/>
        <pt x="808" y="79" on="0"/>
        <pt x="816" y="110" on="1"/>
        <pt x="901" y="110" on="0"/>
        <pt x="928" y="134" on="1"/>
        <pt x="975" y="174" on="0"/>
        <pt x="975" y="269" on="1"/>
        <pt x="975" y="678" on="1"/>
        <pt x="598" y="678" on="1"/>
        <pt x="357" y="223" on="1"/>
        <pt x="333" y="178" on="0"/>
      </contour>
      <contour>
        <pt x="975" y="801" on="1"/>
        <pt x="976" y="1388" on="1"/>
        <pt x="664" y="801" on="1"/>
      </contour>
      <contour>
        <pt x="953" y="1781" on="1"/>
        <pt x="1516" y="2041" on="1"/>
        <pt x="1588" y="1848" on="1"/>
        <pt x="992" y="1663" on="1"/>
      </contour>
    </TTGlyph>
    <TTGlyph name="Aacute" xMin="-4" yMin="0" xMax="1551" yMax="2041">
      <contour>
        <pt x="9" y="109" on="1"/>
        <pt x="85" y="109" on="0"/>
        <pt x="111" y="129" on="1"/>
        <pt x="151" y="160" on="0"/>
        <pt x="181" y="232" on="1"/>
        <pt x="180" y="232" on="1"/>
        <pt x="680" y="1530" on="1"/>
        <pt x="736" y="1530" on="0"/>
        <pt x="840" y="1564" on="0"/>
        <pt x="853" y="1573" on="1"/>
        <pt x="1315" y="335" on="1"/>
        <pt x="1369" y="178" on="0"/>
        <pt x="1434" y="126" on="1"/>
        <pt x="1454" y="110" on="0"/>
        <pt x="1471" y="110" on="1"/>
        <pt x="1521" y="110" on="0"/>
        <pt x="1551" y="129" on="1"/>
        <pt x="1529" y="0" on="1"/>
        <pt x="934" y="0" on="1"/>
        <pt x="949" y="110" on="1"/>
        <pt x="1118" y="107" on="0"/>
        <pt x="1132" y="174" on="1"/>
        <pt x="1137" y="194" on="0"/>
        <pt x="1132" y="218" on="1"/>
        <pt x="1004" y="557" on="1"/>
        <pt x="470" y="557" on="1"/>
        <pt x="342" y="191" on="1"/>
        <pt x="323" y="145" on="0"/>
        <pt x="364" y="118" on="1"/>
        <pt x="375" y="110" on="0"/>
        <pt x="436" y="110" on="0"/>
        <pt x="458" y="112" on="1"/>
        <pt x="512" y="115" on="0"/>
        <pt x="538" y="125" on="1"/>
        <pt x="522" y="0" on="1"/>
        <pt x="-4" y="0" on="1"/>
      </contour>
      <contour>
        <pt x="958" y="680" on="1"/>
        <pt x="728" y="1291" on="1"/>
        <pt x="513" y="680" on="1"/>
      </contour>
      <contour>
        <pt x="535" y="1781" on="1"/>
        <pt x="1098" y="2041" on="1"/>
        <pt x="1170" y="1848" on="1"/>
        <pt x="574" y="1663" on="1"/>
      </contour>
    </TTGlyph>
    <TTGlyph name="Abreve" xMin="-4" yMin="0" xMax="1551" yMax="2038">
      <contour>
        <pt x="9" y="109" on="1"/>
        <pt x="85" y="109" on="0"/>
        <pt x="111" y="129" on="1"/>
        <pt x="151" y="160" on="0"/>
        <pt x="181" y="232" on="1"/>
        <pt x="180" y="232" on="1"/>
        <pt x="680" y="1530" on="1"/>
        <pt x="736" y="1530" on="0"/>
        <pt x="840" y="1564" on="0"/>
        <pt x="853" y="1573" on="1"/>
        <pt x="1315" y="335" on="1"/>
        <pt x="1369" y="178" on="0"/>
        <pt x="1434" y="126" on="1"/>
        <pt x="1454" y="110" on="0"/>
        <pt x="1471" y="110" on="1"/>
        <pt x="1521" y="110" on="0"/>
        <pt x="1551" y="129" on="1"/>
        <pt x="1529" y="0" on="1"/>
        <pt x="934" y="0" on="1"/>
        <pt x="949" y="110" on="1"/>
        <pt x="1118" y="107" on="0"/>
        <pt x="1132" y="174" on="1"/>
        <pt x="1137" y="194" on="0"/>
        <pt x="1132" y="218" on="1"/>
        <pt x="1004" y="557" on="1"/>
        <pt x="470" y="557" on="1"/>
        <pt x="342" y="191" on="1"/>
        <pt x="323" y="145" on="0"/>
        <pt x="364" y="118" on="1"/>
        <pt x="375" y="110" on="0"/>
        <pt x="436" y="110" on="0"/>
        <pt x="458" y="112" on="1"/>
        <pt x="512" y="115" on="0"/>
        <pt x="538" y="125" on="1"/>
        <pt x="522" y="0" on="1"/>
        <pt x="-4" y="0" on="1"/>
      </contour>
      <contour>
        <pt x="958" y="680" on="1"/>
        <pt x="728" y="1291" on="1"/>
        <pt x="513" y="680" on="1"/>
      </contour>
      <contour>
        <pt x="758" y="1704" on="1"/>
        <pt x="510" y="1704" on="0"/>
        <pt x="429" y="1893" on="1"/>
        <pt x="403" y="1954" on="0"/>
        <pt x="403" y="2020" on="1"/>
        <pt x="523" y="2038" on="1"/>
        <pt x="524" y="2036" on="0"/>
        <pt x="535" y="2009" on="0"/>
        <pt x="558" y="1972" on="0"/>
        <pt x="594" y="1930" on="0"/>
        <pt x="620" y="1912" on="1"/>
        <pt x="679" y="1871" on="0"/>
        <pt x="752" y="1871" on="1"/>
        <pt x="869" y="1871" on="0"/>
        <pt x="942" y="1954" on="1"/>
        <pt x="975" y="1991" on="0"/>
        <pt x="994" y="2038" on="1"/>
        <pt x="1124" y="2020" on="1"/>
        <pt x="1124" y="1925" on="0"/>
        <pt x="1052" y="1830" on="1"/>
        <pt x="956" y="1704" on="0"/>
      </contour>
    </TTGlyph>
    <TTGlyph name="Acircumflex" xMin="-4" yMin="0" xMax="1551" yMax="2040">
      <contour>
        <pt x="9" y="109" on="1"/>
        <pt x="85" y="109" on="0"/>
        <pt x="111" y="129" on="1"/>
        <pt x="151" y="160" on="0"/>
        <pt x="181" y="232" on="1"/>
        <pt x="180" y="232" on="1"/>
        <pt x="680" y="1530" on="1"/>
        <pt x="736" y="1530" on="0"/>
        <pt x="840" y="1564" on="0"/>
        <pt x="853" y="1573" on="1"/>
        <pt x="1315" y="335" on="1"/>
        <pt x="1369" y="178" on="0"/>
        <pt x="1434" y="126" on="1"/>
        <pt x="1454" y="110" on="0"/>
        <pt x="1471" y="110" on="1"/>
        <pt x="1521" y="110" on="0"/>
        <pt x="1551" y="129" on="1"/>
        <pt x="1529" y="0" on="1"/>
        <pt x="934" y="0" on="1"/>
        <pt x="949" y="110" on="1"/>
        <pt x="1118" y="107" on="0"/>
        <pt x="1132" y="174" on="1"/>
        <pt x="1137" y="194" on="0"/>
        <pt x="1132" y="218" on="1"/>
        <pt x="1004" y="557" on="1"/>
        <pt x="470" y="557" on="1"/>
        <pt x="342" y="191" on="1"/>
        <pt x="323" y="145" on="0"/>
        <pt x="364" y="118" on="1"/>
        <pt x="375" y="110" on="0"/>
        <pt x="436" y="110" on="0"/>
        <pt x="458" y="112" on="1"/>
        <pt x="512" y="115" on="0"/>
        <pt x="538" y="125" on="1"/>
        <pt x="522" y="0" on="1"/>
        <pt x="-4" y="0" on="1"/>
      </contour>
      <contour>
        <pt x="958" y="680" on="1"/>
        <pt x="728" y="1291" on="1"/>
        <pt x="513" y="680" on="1"/>
      </contour>
      <contour>
        <pt x="375" y="1767" on="1"/>
        <pt x="771" y="2040" on="1"/>
        <pt x="1162" y="1775" on="1"/>
        <pt x="1098" y="1664" on="1"/>
        <pt x="771" y="1821" on="1"/>
        <pt x="771" y="1821" on="0"/>
        <pt x="432" y="1664" on="1"/>
      </contour>
    </TTGlyph>
    <TTGlyph name="Adieresis" xMin="-4" yMin="0" xMax="1551" yMax="2029">
      <contour>
        <pt x="9" y="109" on="1"/>
        <pt x="85" y="109" on="0"/>
        <pt x="111" y="129" on="1"/>
        <pt x="151" y="160" on="0"/>
        <pt x="181" y="232" on="1"/>
        <pt x="180" y="232" on="1"/>
        <pt x="680" y="1530" on="1"/>
        <pt x="736" y="1530" on="0"/>
        <pt x="840" y="1564" on="0"/>
        <pt x="853" y="1573" on="1"/>
        <pt x="1315" y="335" on="1"/>
        <pt x="1369" y="178" on="0"/>
        <pt x="1434" y="126" on="1"/>
        <pt x="1454" y="110" on="0"/>
        <pt x="1471" y="110" on="1"/>
        <pt x="1521" y="110" on="0"/>
        <pt x="1551" y="129" on="1"/>
        <pt x="1529" y="0" on="1"/>
        <pt x="934" y="0" on="1"/>
        <pt x="949" y="110" on="1"/>
        <pt x="1118" y="107" on="0"/>
        <pt x="1132" y="174" on="1"/>
        <pt x="1137" y="194" on="0"/>
        <pt x="1132" y="218" on="1"/>
        <pt x="1004" y="557" on="1"/>
        <pt x="470" y="557" on="1"/>
        <pt x="342" y="191" on="1"/>
        <pt x="323" y="145" on="0"/>
        <pt x="364" y="118" on="1"/>
        <pt x="375" y="110" on="0"/>
        <pt x="436" y="110" on="0"/>
        <pt x="458" y="112" on="1"/>
        <pt x="512" y="115" on="0"/>
        <pt x="538" y="125" on="1"/>
        <pt x="522" y="0" on="1"/>
        <pt x="-4" y="0" on="1"/>
      </contour>
      <contour>
        <pt x="958" y="680" on="1"/>
        <pt x="728" y="1291" on="1"/>
        <pt x="513" y="680" on="1"/>
      </contour>
      <contour>
        <pt x="1092" y="1758" on="0"/>
        <pt x="1039" y="1736" on="0"/>
        <pt x="976" y="1736" on="0"/>
        <pt x="920" y="1758" on="0"/>
        <pt x="900" y="1778" on="1"/>
        <pt x="856" y="1819" on="0"/>
        <pt x="856" y="1910" on="0"/>
        <pt x="879" y="1965" on="0"/>
        <pt x="900" y="1986" on="1"/>
        <pt x="943" y="2029" on="0"/>
        <pt x="1008" y="2029" on="1"/>
        <pt x="1104" y="2029" on="0"/>
        <pt x="1142" y="1938" on="1"/>
        <pt x="1154" y="1910" on="0"/>
        <pt x="1154" y="1849" on="0"/>
        <pt x="1131" y="1797" on="0"/>
      </contour>
      <contour>
        <pt x="635" y="1758" on="0"/>
        <pt x="582" y="1736" on="0"/>
        <pt x="519" y="1736" on="0"/>
        <pt x="462" y="1758" on="0"/>
        <pt x="442" y="1778" on="1"/>
        <pt x="397" y="1820" on="0"/>
        <pt x="397" y="1910" on="0"/>
        <pt x="421" y="1965" on="0"/>
        <pt x="442" y="1986" on="1"/>
        <pt x="485" y="2029" on="0"/>
        <pt x="552" y="2029" on="1"/>
        <pt x="647" y="2029" on="0"/>
        <pt x="684" y="1938" on="1"/>
        <pt x="695" y="1910" on="0"/>
        <pt x="695" y="1849" on="0"/>
        <pt x="673" y="1797" on="0"/>
      </contour>
    </TTGlyph>
    <TTGlyph name="Agrave" xMin="-4" yMin="0" xMax="1551" yMax="2041">
      <contour>
        <pt x="9" y="109" on="1"/>
        <pt x="85" y="109" on="0"/>
        <pt x="111" y="129" on="1"/>
        <pt x="151" y="160" on="0"/>
        <pt x="181" y="232" on="1"/>
        <pt x="180" y="232" on="1"/>
        <pt x="680" y="1530" on="1"/>
        <pt x="736" y="1530" on="0"/>
        <pt x="840" y="1564" on="0"/>
        <pt x="853" y="1573" on="1"/>
        <pt x="1315" y="335" on="1"/>
        <pt x="1369" y="178" on="0"/>
        <pt x="1434" y="126" on="1"/>
        <pt x="1454" y="110" on="0"/>
        <pt x="1471" y="110" on="1"/>
        <pt x="1521" y="110" on="0"/>
        <pt x="1551" y="129" on="1"/>
        <pt x="1529" y="0" on="1"/>
        <pt x="934" y="0" on="1"/>
        <pt x="949" y="110" on="1"/>
        <pt x="1118" y="107" on="0"/>
        <pt x="1132" y="174" on="1"/>
        <pt x="1137" y="194" on="0"/>
        <pt x="1132" y="218" on="1"/>
        <pt x="1004" y="557" on="1"/>
        <pt x="470" y="557" on="1"/>
        <pt x="342" y="191" on="1"/>
        <pt x="323" y="145" on="0"/>
        <pt x="364" y="118" on="1"/>
        <pt x="375" y="110" on="0"/>
        <pt x="436" y="110" on="0"/>
        <pt x="458" y="112" on="1"/>
        <pt x="512" y="115" on="0"/>
        <pt x="538" y="125" on="1"/>
        <pt x="522" y="0" on="1"/>
        <pt x="-4" y="0" on="1"/>
      </contour>
      <contour>
        <pt x="958" y="680" on="1"/>
        <pt x="728" y="1291" on="1"/>
        <pt x="513" y="680" on="1"/>
      </contour>
      <contour>
        <pt x="402" y="2041" on="1"/>
        <pt x="965" y="1781" on="1"/>
        <pt x="926" y="1663" on="1"/>
        <pt x="330" y="1848" on="1"/>
      </contour>
    </TTGlyph>
    <TTGlyph name="Amacron" xMin="-4" yMin="0" xMax="1551" yMax="1970">
      <contour>
        <pt x="9" y="109" on="1"/>
        <pt x="85" y="109" on="0"/>
        <pt x="111" y="129" on="1"/>
        <pt x="151" y="160" on="0"/>
        <pt x="181" y="232" on="1"/>
        <pt x="180" y="232" on="1"/>
        <pt x="680" y="1530" on="1"/>
        <pt x="736" y="1530" on="0"/>
        <pt x="840" y="1564" on="0"/>
        <pt x="853" y="1573" on="1"/>
        <pt x="1315" y="335" on="1"/>
        <pt x="1369" y="178" on="0"/>
        <pt x="1434" y="126" on="1"/>
        <pt x="1454" y="110" on="0"/>
        <pt x="1471" y="110" on="1"/>
        <pt x="1521" y="110" on="0"/>
        <pt x="1551" y="129" on="1"/>
        <pt x="1529" y="0" on="1"/>
        <pt x="934" y="0" on="1"/>
        <pt x="949" y="110" on="1"/>
        <pt x="1118" y="107" on="0"/>
        <pt x="1132" y="174" on="1"/>
        <pt x="1137" y="194" on="0"/>
        <pt x="1132" y="218" on="1"/>
        <pt x="1004" y="557" on="1"/>
        <pt x="470" y="557" on="1"/>
        <pt x="342" y="191" on="1"/>
        <pt x="323" y="145" on="0"/>
        <pt x="364" y="118" on="1"/>
        <pt x="375" y="110" on="0"/>
        <pt x="436" y="110" on="0"/>
        <pt x="458" y="112" on="1"/>
        <pt x="512" y="115" on="0"/>
        <pt x="538" y="125" on="1"/>
        <pt x="522" y="0" on="1"/>
        <pt x="-4" y="0" on="1"/>
      </contour>
      <contour>
        <pt x="958" y="680" on="1"/>
        <pt x="728" y="1291" on="1"/>
        <pt x="513" y="680" on="1"/>
      </contour>
      <contour>
        <pt x="396" y="1970" on="1"/>
        <pt x="1146" y="1970" on="1"/>
        <pt x="1127" y="1814" on="1"/>
        <pt x="377" y="1814" on="1"/>
      </contour>
    </TTGlyph>
    <TTGlyph name="Aogonek" xMin="0" yMin="-509" xMax="1534" yMax="1571">
      <contour>
        <pt x="1112" y="-366" on="1"/>
        <pt x="1139" y="-374" on="0"/>
        <pt x="1213" y="-374" on="0"/>
        <pt x="1317" y="-348" on="1"/>
        <pt x="1317" y="-441" on="1"/>
        <pt x="1259" y="-486" on="0"/>
        <pt x="1157" y="-504" on="1"/>
        <pt x="1125" y="-509" on="0"/>
        <pt x="1046" y="-509" on="0"/>
        <pt x="948" y="-479" on="0"/>
        <pt x="908" y="-450" on="1"/>
        <pt x="820" y="-387" on="0"/>
        <pt x="820" y="-286" on="1"/>
        <pt x="820" y="-152" on="0"/>
        <pt x="956" y="-51" on="1"/>
        <pt x="1027" y="-1" on="1"/>
        <pt x="1129" y="58" on="0"/>
        <pt x="1129" y="174" on="1"/>
        <pt x="1129" y="196" on="0"/>
        <pt x="1125" y="218" on="1"/>
        <pt x="1024" y="492" on="1"/>
        <pt x="430" y="492" on="1"/>
        <pt x="320" y="183" on="1"/>
        <pt x="302" y="136" on="0"/>
        <pt x="356" y="116" on="1"/>
        <pt x="370" y="110" on="0"/>
        <pt x="398" y="110" on="0"/>
        <pt x="435" y="112" on="0"/>
        <pt x="454" y="114" on="1"/>
        <pt x="500" y="119" on="0"/>
        <pt x="526" y="128" on="1"/>
        <pt x="510" y="0" on="1"/>
        <pt x="0" y="0" on="1"/>
        <pt x="13" y="109" on="1"/>
        <pt x="88" y="109" on="0"/>
        <pt x="113" y="129" on="1"/>
        <pt x="150" y="158" on="0"/>
        <pt x="181" y="232" on="1"/>
        <pt x="676" y="1539" on="1"/>
        <pt x="743" y="1539" on="0"/>
        <pt x="845" y="1571" on="1"/>
        <pt x="1304" y="335" on="1"/>
        <pt x="1363" y="178" on="0"/>
        <pt x="1420" y="127" on="1"/>
        <pt x="1439" y="110" on="0"/>
        <pt x="1454" y="110" on="1"/>
        <pt x="1498" y="110" on="0"/>
        <pt x="1534" y="133" on="1"/>
        <pt x="1513" y="0" on="1"/>
        <pt x="1328" y="0" on="1"/>
        <pt x="1230" y="0" on="0"/>
        <pt x="1130" y="-66" on="1"/>
        <pt x="1014" y="-141" on="0"/>
        <pt x="1014" y="-244" on="1"/>
        <pt x="1014" y="-338" on="0"/>
      </contour>
      <contour>
        <pt x="981" y="607" on="1"/>
        <pt x="723" y="1307" on="1"/>
        <pt x="472" y="607" on="1"/>
      </contour>
    </TTGlyph>
    <TTGlyph name="Aring" xMin="-4" yMin="0" xMax="1551" yMax="2037">
      <contour>
        <pt x="9" y="109" on="1"/>
        <pt x="85" y="109" on="0"/>
        <pt x="111" y="129" on="1"/>
        <pt x="151" y="160" on="0"/>
        <pt x="181" y="232" on="1"/>
        <pt x="180" y="232" on="1"/>
        <pt x="680" y="1530" on="1"/>
        <pt x="736" y="1530" on="0"/>
        <pt x="840" y="1564" on="0"/>
        <pt x="853" y="1573" on="1"/>
        <pt x="1315" y="335" on="1"/>
        <pt x="1369" y="178" on="0"/>
        <pt x="1434" y="126" on="1"/>
        <pt x="1454" y="110" on="0"/>
        <pt x="1471" y="110" on="1"/>
        <pt x="1521" y="110" on="0"/>
        <pt x="1551" y="129" on="1"/>
        <pt x="1529" y="0" on="1"/>
        <pt x="934" y="0" on="1"/>
        <pt x="949" y="110" on="1"/>
        <pt x="1118" y="107" on="0"/>
        <pt x="1132" y="174" on="1"/>
        <pt x="1137" y="194" on="0"/>
        <pt x="1132" y="218" on="1"/>
        <pt x="1004" y="557" on="1"/>
        <pt x="470" y="557" on="1"/>
        <pt x="342" y="191" on="1"/>
        <pt x="323" y="145" on="0"/>
        <pt x="364" y="118" on="1"/>
        <pt x="375" y="110" on="0"/>
        <pt x="436" y="110" on="0"/>
        <pt x="458" y="112" on="1"/>
        <pt x="512" y="115" on="0"/>
        <pt x="538" y="125" on="1"/>
        <pt x="522" y="0" on="1"/>
        <pt x="-4" y="0" on="1"/>
      </contour>
      <contour>
        <pt x="958" y="680" on="1"/>
        <pt x="728" y="1291" on="1"/>
        <pt x="513" y="680" on="1"/>
      </contour>
      <contour>
        <pt x="766" y="1502" on="1"/>
        <pt x="705" y="1502" on="0"/>
        <pt x="595" y="1540" on="0"/>
        <pt x="554" y="1576" on="1"/>
        <pt x="469" y="1650" on="0"/>
        <pt x="469" y="1776" on="1"/>
        <pt x="469" y="1896" on="0"/>
        <pt x="566" y="1970" on="1"/>
        <pt x="653" y="2037" on="0"/>
        <pt x="771" y="2037" on="1"/>
        <pt x="905" y="2037" on="0"/>
        <pt x="988" y="1964" on="1"/>
        <pt x="1073" y="1890" on="0"/>
        <pt x="1073" y="1764" on="1"/>
        <pt x="1073" y="1644" on="0"/>
        <pt x="977" y="1570" on="1"/>
        <pt x="890" y="1502" on="0"/>
      </contour>
      <contour>
        <pt x="835" y="1624" on="0"/>
        <pt x="912" y="1702" on="0"/>
        <pt x="912" y="1795" on="0"/>
        <pt x="889" y="1851" on="0"/>
        <pt x="870" y="1872" on="1"/>
        <pt x="829" y="1917" on="0"/>
        <pt x="739" y="1917" on="0"/>
        <pt x="688" y="1896" on="0"/>
        <pt x="670" y="1877" on="1"/>
        <pt x="631" y="1837" on="0"/>
        <pt x="631" y="1744" on="0"/>
        <pt x="654" y="1689" on="0"/>
        <pt x="673" y="1668" on="1"/>
        <pt x="714" y="1624" on="0"/>
      </contour>
    </TTGlyph>
    <TTGlyph name="Atilde" xMin="-4" yMin="0" xMax="1551" yMax="1970">
      <contour>
        <pt x="9" y="109" on="1"/>
        <pt x="85" y="109" on="0"/>
        <pt x="111" y="129" on="1"/>
        <pt x="151" y="160" on="0"/>
        <pt x="181" y="232" on="1"/>
        <pt x="180" y="232" on="1"/>
        <pt x="680" y="1530" on="1"/>
        <pt x="736" y="1530" on="0"/>
        <pt x="840" y="1564" on="0"/>
        <pt x="853" y="1573" on="1"/>
        <pt x="1315" y="335" on="1"/>
        <pt x="1369" y="178" on="0"/>
        <pt x="1434" y="126" on="1"/>
        <pt x="1454" y="110" on="0"/>
        <pt x="1471" y="110" on="1"/>
        <pt x="1521" y="110" on="0"/>
        <pt x="1551" y="129" on="1"/>
        <pt x="1529" y="0" on="1"/>
        <pt x="934" y="0" on="1"/>
        <pt x="949" y="110" on="1"/>
        <pt x="1118" y="107" on="0"/>
        <pt x="1132" y="174" on="1"/>
        <pt x="1137" y="194" on="0"/>
        <pt x="1132" y="218" on="1"/>
        <pt x="1004" y="557" on="1"/>
        <pt x="470" y="557" on="1"/>
        <pt x="342" y="191" on="1"/>
        <pt x="323" y="145" on="0"/>
        <pt x="364" y="118" on="1"/>
        <pt x="375" y="110" on="0"/>
        <pt x="436" y="110" on="0"/>
        <pt x="458" y="112" on="1"/>
        <pt x="512" y="115" on="0"/>
        <pt x="538" y="125" on="1"/>
        <pt x="522" y="0" on="1"/>
        <pt x="-4" y="0" on="1"/>
      </contour>
      <contour>
        <pt x="958" y="680" on="1"/>
        <pt x="728" y="1291" on="1"/>
        <pt x="513" y="680" on="1"/>
      </contour>
      <contour>
        <pt x="359" y="1782" on="1"/>
        <pt x="362" y="1795" on="0"/>
        <pt x="403" y="1857" on="0"/>
        <pt x="440" y="1889" on="1"/>
        <pt x="532" y="1970" on="0"/>
        <pt x="639" y="1970" on="1"/>
        <pt x="693" y="1970" on="0"/>
        <pt x="780" y="1926" on="0"/>
        <pt x="814" y="1904" on="1"/>
        <pt x="899" y="1847" on="0"/>
        <pt x="957" y="1847" on="0"/>
        <pt x="995" y="1859" on="0"/>
        <pt x="1012" y="1872" on="1"/>
        <pt x="1043" y="1895" on="0"/>
        <pt x="1087" y="1949" on="1"/>
        <pt x="1176" y="1852" on="1"/>
        <pt x="1165" y="1805" on="0"/>
        <pt x="1119" y="1759" on="1"/>
        <pt x="1023" y="1663" on="0"/>
        <pt x="915" y="1663" on="1"/>
        <pt x="870" y="1663" on="0"/>
        <pt x="780" y="1707" on="0"/>
        <pt x="742" y="1730" on="1"/>
        <pt x="643" y="1787" on="0"/>
        <pt x="587" y="1787" on="0"/>
        <pt x="550" y="1775" on="0"/>
        <pt x="532" y="1762" on="1"/>
        <pt x="504" y="1742" on="0"/>
        <pt x="458" y="1685" on="1"/>
      </contour>
    </TTGlyph>
    <TTGlyph name="B" xMin="103" yMin="-16" xMax="1440" yMax="1545">
      <contour>
        <pt x="785" y="-16" on="1"/>
        <pt x="409" y="-1" on="1"/>
        <pt x="103" y="-1" on="1"/>
        <pt x="111" y="110" on="1"/>
        <pt x="202" y="110" on="0"/>
        <pt x="235" y="134" on="1"/>
        <pt x="294" y="179" on="0"/>
        <pt x="294" y="282" on="1"/>
        <pt x="294" y="1222" on="1"/>
        <pt x="294" y="1381" on="0"/>
        <pt x="232" y="1406" on="1"/>
        <pt x="214" y="1414" on="0"/>
        <pt x="132" y="1414" on="0"/>
        <pt x="105" y="1403" on="1"/>
        <pt x="114" y="1530" on="1"/>
        <pt x="409" y="1530" on="1"/>
        <pt x="477" y="1532" on="0"/>
        <pt x="541" y="1535" on="1"/>
        <pt x="713" y="1545" on="0"/>
        <pt x="926" y="1545" on="0"/>
        <pt x="1121" y="1494" on="0"/>
        <pt x="1186" y="1447" on="1"/>
        <pt x="1317" y="1352" on="0"/>
        <pt x="1317" y="1184" on="1"/>
        <pt x="1317" y="1051" on="0"/>
        <pt x="1238" y="952" on="1"/>
        <pt x="1173" y="871" on="0"/>
        <pt x="1063" y="827" on="1"/>
        <pt x="1250" y="810" on="0"/>
        <pt x="1350" y="702" on="1"/>
        <pt x="1440" y="606" on="0"/>
        <pt x="1440" y="463" on="1"/>
        <pt x="1440" y="254" on="0"/>
        <pt x="1272" y="123" on="1"/>
        <pt x="1093" y="-16" on="0"/>
      </contour>
      <contour>
        <pt x="1078" y="1164" on="1"/>
        <pt x="1078" y="1429" on="0"/>
        <pt x="730" y="1429" on="1"/>
        <pt x="615" y="1429" on="0"/>
        <pt x="573" y="1420" on="1"/>
        <pt x="511" y="1408" on="1"/>
        <pt x="511" y="855" on="1"/>
        <pt x="802" y="855" on="1"/>
        <pt x="1018" y="855" on="0"/>
        <pt x="1063" y="1029" on="1"/>
        <pt x="1078" y="1087" on="0"/>
      </contour>
      <contour>
        <pt x="511" y="739" on="1"/>
        <pt x="513" y="236" on="1"/>
        <pt x="513" y="152" on="0"/>
        <pt x="574" y="125" on="1"/>
        <pt x="632" y="100" on="0"/>
        <pt x="928" y="100" on="0"/>
        <pt x="1077" y="151" on="0"/>
        <pt x="1120" y="197" on="1"/>
        <pt x="1197" y="278" on="0"/>
        <pt x="1197" y="614" on="0"/>
        <pt x="1108" y="676" on="1"/>
        <pt x="1016" y="740" on="0"/>
        <pt x="763" y="740" on="1"/>
      </contour>
    </TTGlyph>
    <TTGlyph name="C" xMin="137" yMin="-15" xMax="1542" yMax="1545">
      <contour>
        <pt x="1540" y="409" on="1"/>
        <pt x="1542" y="389" on="0"/>
        <pt x="1542" y="328" on="0"/>
        <pt x="1535" y="249" on="0"/>
        <pt x="1530" y="212" on="1"/>
        <pt x="1517" y="128" on="0"/>
        <pt x="1504" y="92" on="1"/>
        <pt x="1290" y="-15" on="0"/>
        <pt x="948" y="-15" on="1"/>
        <pt x="628" y="-15" on="0"/>
        <pt x="402" y="154" on="1"/>
        <pt x="237" y="277" on="0"/>
        <pt x="171" y="499" on="1"/>
        <pt x="137" y="613" on="0"/>
        <pt x="137" y="940" on="0"/>
        <pt x="263" y="1231" on="0"/>
        <pt x="376" y="1333" on="1"/>
        <pt x="611" y="1545" on="0"/>
        <pt x="986" y="1545" on="1"/>
        <pt x="1056" y="1545" on="0"/>
        <pt x="1282" y="1519" on="0"/>
        <pt x="1317" y="1516" on="1"/>
        <pt x="1385" y="1509" on="1"/>
        <pt x="1462" y="1502" on="0"/>
        <pt x="1486" y="1502" on="1"/>
        <pt x="1518" y="1502" on="1"/>
        <pt x="1525" y="1502" on="0"/>
        <pt x="1540" y="1504" on="1"/>
        <pt x="1542" y="1480" on="0"/>
        <pt x="1542" y="1302" on="0"/>
        <pt x="1510" y="1092" on="1"/>
        <pt x="1382" y="1092" on="1"/>
        <pt x="1363" y="1243" on="0"/>
        <pt x="1334" y="1301" on="1"/>
        <pt x="1251" y="1434" on="0"/>
        <pt x="971" y="1434" on="1"/>
        <pt x="691" y="1434" on="0"/>
        <pt x="534" y="1250" on="1"/>
        <pt x="384" y="1075" on="0"/>
        <pt x="384" y="787" on="1"/>
        <pt x="384" y="454" on="0"/>
        <pt x="572" y="266" on="1"/>
        <pt x="744" y="94" on="0"/>
        <pt x="992" y="94" on="1"/>
        <pt x="1171" y="94" on="0"/>
        <pt x="1264" y="162" on="1"/>
        <pt x="1358" y="231" on="0"/>
        <pt x="1415" y="409" on="1"/>
      </contour>
    </TTGlyph>
    <TTGlyph name="Cacute" xMin="137" yMin="-15" xMax="1542" yMax="2041">
      <contour>
        <pt x="1540" y="409" on="1"/>
        <pt x="1542" y="389" on="0"/>
        <pt x="1542" y="328" on="0"/>
        <pt x="1535" y="249" on="0"/>
        <pt x="1530" y="212" on="1"/>
        <pt x="1517" y="128" on="0"/>
        <pt x="1504" y="92" on="1"/>
        <pt x="1290" y="-15" on="0"/>
        <pt x="948" y="-15" on="1"/>
        <pt x="628" y="-15" on="0"/>
        <pt x="402" y="154" on="1"/>
        <pt x="237" y="277" on="0"/>
        <pt x="171" y="499" on="1"/>
        <pt x="137" y="613" on="0"/>
        <pt x="137" y="940" on="0"/>
        <pt x="263" y="1231" on="0"/>
        <pt x="376" y="1333" on="1"/>
        <pt x="611" y="1545" on="0"/>
        <pt x="986" y="1545" on="1"/>
        <pt x="1056" y="1545" on="0"/>
        <pt x="1282" y="1519" on="0"/>
        <pt x="1317" y="1516" on="1"/>
        <pt x="1385" y="1509" on="1"/>
        <pt x="1462" y="1502" on="0"/>
        <pt x="1486" y="1502" on="1"/>
        <pt x="1518" y="1502" on="1"/>
        <pt x="1525" y="1502" on="0"/>
        <pt x="1540" y="1504" on="1"/>
        <pt x="1542" y="1480" on="0"/>
        <pt x="1542" y="1302" on="0"/>
        <pt x="1510" y="1092" on="1"/>
        <pt x="1382" y="1092" on="1"/>
        <pt x="1363" y="1243" on="0"/>
        <pt x="1334" y="1301" on="1"/>
        <pt x="1251" y="1434" on="0"/>
        <pt x="971" y="1434" on="1"/>
        <pt x="691" y="1434" on="0"/>
        <pt x="534" y="1250" on="1"/>
        <pt x="384" y="1075" on="0"/>
        <pt x="384" y="787" on="1"/>
        <pt x="384" y="454" on="0"/>
        <pt x="572" y="266" on="1"/>
        <pt x="744" y="94" on="0"/>
        <pt x="992" y="94" on="1"/>
        <pt x="1171" y="94" on="0"/>
        <pt x="1264" y="162" on="1"/>
        <pt x="1358" y="231" on="0"/>
        <pt x="1415" y="409" on="1"/>
      </contour>
      <contour>
        <pt x="726" y="1781" on="1"/>
        <pt x="1289" y="2041" on="1"/>
        <pt x="1361" y="1848" on="1"/>
        <pt x="765" y="1663" on="1"/>
      </contour>
    </TTGlyph>
    <TTGlyph name="Ccaron" xMin="137" yMin="-15" xMax="1542" yMax="2040">
      <contour>
        <pt x="1540" y="409" on="1"/>
        <pt x="1542" y="389" on="0"/>
        <pt x="1542" y="328" on="0"/>
        <pt x="1535" y="249" on="0"/>
        <pt x="1530" y="212" on="1"/>
        <pt x="1517" y="128" on="0"/>
        <pt x="1504" y="92" on="1"/>
        <pt x="1290" y="-15" on="0"/>
        <pt x="948" y="-15" on="1"/>
        <pt x="628" y="-15" on="0"/>
        <pt x="402" y="154" on="1"/>
        <pt x="237" y="277" on="0"/>
        <pt x="171" y="499" on="1"/>
        <pt x="137" y="613" on="0"/>
        <pt x="137" y="940" on="0"/>
        <pt x="263" y="1231" on="0"/>
        <pt x="376" y="1333" on="1"/>
        <pt x="611" y="1545" on="0"/>
        <pt x="986" y="1545" on="1"/>
        <pt x="1056" y="1545" on="0"/>
        <pt x="1282" y="1519" on="0"/>
        <pt x="1317" y="1516" on="1"/>
        <pt x="1385" y="1509" on="1"/>
        <pt x="1462" y="1502" on="0"/>
        <pt x="1486" y="1502" on="1"/>
        <pt x="1518" y="1502" on="1"/>
        <pt x="1525" y="1502" on="0"/>
        <pt x="1540" y="1504" on="1"/>
        <pt x="1542" y="1480" on="0"/>
        <pt x="1542" y="1302" on="0"/>
        <pt x="1510" y="1092" on="1"/>
        <pt x="1382" y="1092" on="1"/>
        <pt x="1363" y="1243" on="0"/>
        <pt x="1334" y="1301" on="1"/>
        <pt x="1251" y="1434" on="0"/>
        <pt x="971" y="1434" on="1"/>
        <pt x="691" y="1434" on="0"/>
        <pt x="534" y="1250" on="1"/>
        <pt x="384" y="1075" on="0"/>
        <pt x="384" y="787" on="1"/>
        <pt x="384" y="454" on="0"/>
        <pt x="572" y="266" on="1"/>
        <pt x="744" y="94" on="0"/>
        <pt x="992" y="94" on="1"/>
        <pt x="1171" y="94" on="0"/>
        <pt x="1264" y="162" on="1"/>
        <pt x="1358" y="231" on="0"/>
        <pt x="1415" y="409" on="1"/>
      </contour>
      <contour>
        <pt x="566" y="1930" on="1"/>
        <pt x="623" y="2040" on="1"/>
        <pt x="963" y="1883" on="1"/>
        <pt x="1290" y="2040" on="1"/>
        <pt x="1354" y="1930" on="1"/>
        <pt x="963" y="1664" on="1"/>
      </contour>
    </TTGlyph>
    <TTGlyph name="Ccedilla" xMin="137" yMin="-515" xMax="1542" yMax="1545">
      <contour>
        <pt x="766" y="-326" on="1"/>
        <pt x="836" y="-354" on="0"/>
        <pt x="955" y="-354" on="0"/>
        <pt x="993" y="-341" on="0"/>
        <pt x="1006" y="-330" on="1"/>
        <pt x="1028" y="-312" on="0"/>
        <pt x="1030" y="-285" on="1"/>
        <pt x="1033" y="-245" on="0"/>
        <pt x="982" y="-202" on="1"/>
        <pt x="942" y="-165" on="0"/>
        <pt x="926" y="-99" on="1"/>
        <pt x="914" y="-50" on="0"/>
        <pt x="937" y="-15" on="1"/>
        <pt x="617" y="-12" on="0"/>
        <pt x="398" y="157" on="1"/>
        <pt x="235" y="282" on="0"/>
        <pt x="170" y="501" on="1"/>
        <pt x="137" y="614" on="0"/>
        <pt x="137" y="940" on="0"/>
        <pt x="263" y="1231" on="0"/>
        <pt x="376" y="1333" on="1"/>
        <pt x="611" y="1545" on="0"/>
        <pt x="986" y="1545" on="1"/>
        <pt x="1056" y="1545" on="0"/>
        <pt x="1282" y="1519" on="0"/>
        <pt x="1317" y="1516" on="1"/>
        <pt x="1385" y="1509" on="1"/>
        <pt x="1462" y="1502" on="0"/>
        <pt x="1486" y="1502" on="1"/>
        <pt x="1518" y="1502" on="1"/>
        <pt x="1525" y="1502" on="0"/>
        <pt x="1540" y="1504" on="1"/>
        <pt x="1542" y="1480" on="0"/>
        <pt x="1542" y="1302" on="0"/>
        <pt x="1510" y="1092" on="1"/>
        <pt x="1382" y="1092" on="1"/>
        <pt x="1363" y="1243" on="0"/>
        <pt x="1334" y="1301" on="1"/>
        <pt x="1251" y="1434" on="0"/>
        <pt x="971" y="1434" on="1"/>
        <pt x="691" y="1434" on="0"/>
        <pt x="534" y="1250" on="1"/>
        <pt x="384" y="1075" on="0"/>
        <pt x="384" y="787" on="1"/>
        <pt x="384" y="454" on="0"/>
        <pt x="572" y="266" on="1"/>
        <pt x="744" y="94" on="0"/>
        <pt x="992" y="94" on="1"/>
        <pt x="1171" y="94" on="0"/>
        <pt x="1264" y="162" on="1"/>
        <pt x="1358" y="231" on="0"/>
        <pt x="1415" y="409" on="1"/>
        <pt x="1540" y="409" on="1"/>
        <pt x="1542" y="389" on="0"/>
        <pt x="1542" y="328" on="0"/>
        <pt x="1535" y="249" on="0"/>
        <pt x="1530" y="212" on="1"/>
        <pt x="1517" y="128" on="0"/>
        <pt x="1504" y="92" on="1"/>
        <pt x="1320" y="0" on="0"/>
        <pt x="1049" y="-12" on="1"/>
        <pt x="1055" y="-57" on="0"/>
        <pt x="1117" y="-112" on="1"/>
        <pt x="1221" y="-199" on="0"/>
        <pt x="1216" y="-284" on="1"/>
        <pt x="1209" y="-393" on="0"/>
        <pt x="1114" y="-460" on="1"/>
        <pt x="1036" y="-515" on="0"/>
        <pt x="808" y="-515" on="0"/>
        <pt x="743" y="-496" on="1"/>
        <pt x="755" y="-328" on="1"/>
      </contour>
    </TTGlyph>
    <TTGlyph name="Ccircumflex" xMin="137" yMin="-15" xMax="1542" yMax="2040">
      <contour>
        <pt x="1540" y="409" on="1"/>
        <pt x="1542" y="389" on="0"/>
        <pt x="1542" y="328" on="0"/>
        <pt x="1535" y="249" on="0"/>
        <pt x="1530" y="212" on="1"/>
        <pt x="1517" y="128" on="0"/>
        <pt x="1504" y="92" on="1"/>
        <pt x="1290" y="-15" on="0"/>
        <pt x="948" y="-15" on="1"/>
        <pt x="628" y="-15" on="0"/>
        <pt x="402" y="154" on="1"/>
        <pt x="237" y="277" on="0"/>
        <pt x="171" y="499" on="1"/>
        <pt x="137" y="613" on="0"/>
        <pt x="137" y="940" on="0"/>
        <pt x="263" y="1231" on="0"/>
        <pt x="376" y="1333" on="1"/>
        <pt x="611" y="1545" on="0"/>
        <pt x="986" y="1545" on="1"/>
        <pt x="1056" y="1545" on="0"/>
        <pt x="1282" y="1519" on="0"/>
        <pt x="1317" y="1516" on="1"/>
        <pt x="1385" y="1509" on="1"/>
        <pt x="1462" y="1502" on="0"/>
        <pt x="1486" y="1502" on="1"/>
        <pt x="1518" y="1502" on="1"/>
        <pt x="1525" y="1502" on="0"/>
        <pt x="1540" y="1504" on="1"/>
        <pt x="1542" y="1480" on="0"/>
        <pt x="1542" y="1302" on="0"/>
        <pt x="1510" y="1092" on="1"/>
        <pt x="1382" y="1092" on="1"/>
        <pt x="1363" y="1243" on="0"/>
        <pt x="1334" y="1301" on="1"/>
        <pt x="1251" y="1434" on="0"/>
        <pt x="971" y="1434" on="1"/>
        <pt x="691" y="1434" on="0"/>
        <pt x="534" y="1250" on="1"/>
        <pt x="384" y="1075" on="0"/>
        <pt x="384" y="787" on="1"/>
        <pt x="384" y="454" on="0"/>
        <pt x="572" y="266" on="1"/>
        <pt x="744" y="94" on="0"/>
        <pt x="992" y="94" on="1"/>
        <pt x="1171" y="94" on="0"/>
        <pt x="1264" y="162" on="1"/>
        <pt x="1358" y="231" on="0"/>
        <pt x="1415" y="409" on="1"/>
      </contour>
      <contour>
        <pt x="566" y="1767" on="1"/>
        <pt x="962" y="2040" on="1"/>
        <pt x="1353" y="1775" on="1"/>
        <pt x="1289" y="1664" on="1"/>
        <pt x="962" y="1821" on="1"/>
        <pt x="962" y="1821" on="0"/>
        <pt x="623" y="1664" on="1"/>
      </contour>
    </TTGlyph>
    <TTGlyph name="Cdotaccent" xMin="137" yMin="-15" xMax="1542" yMax="2037">
      <contour>
        <pt x="1540" y="409" on="1"/>
        <pt x="1542" y="389" on="0"/>
        <pt x="1542" y="328" on="0"/>
        <pt x="1535" y="249" on="0"/>
        <pt x="1530" y="212" on="1"/>
        <pt x="1517" y="128" on="0"/>
        <pt x="1504" y="92" on="1"/>
        <pt x="1290" y="-15" on="0"/>
        <pt x="948" y="-15" on="1"/>
        <pt x="628" y="-15" on="0"/>
        <pt x="402" y="154" on="1"/>
        <pt x="237" y="277" on="0"/>
        <pt x="171" y="499" on="1"/>
        <pt x="137" y="613" on="0"/>
        <pt x="137" y="940" on="0"/>
        <pt x="263" y="1231" on="0"/>
        <pt x="376" y="1333" on="1"/>
        <pt x="611" y="1545" on="0"/>
        <pt x="986" y="1545" on="1"/>
        <pt x="1056" y="1545" on="0"/>
        <pt x="1282" y="1519" on="0"/>
        <pt x="1317" y="1516" on="1"/>
        <pt x="1385" y="1509" on="1"/>
        <pt x="1462" y="1502" on="0"/>
        <pt x="1486" y="1502" on="1"/>
        <pt x="1518" y="1502" on="1"/>
        <pt x="1525" y="1502" on="0"/>
        <pt x="1540" y="1504" on="1"/>
        <pt x="1542" y="1480" on="0"/>
        <pt x="1542" y="1302" on="0"/>
        <pt x="1510" y="1092" on="1"/>
        <pt x="1382" y="1092" on="1"/>
        <pt x="1363" y="1243" on="0"/>
        <pt x="1334" y="1301" on="1"/>
        <pt x="1251" y="1434" on="0"/>
        <pt x="971" y="1434" on="1"/>
        <pt x="691" y="1434" on="0"/>
        <pt x="534" y="1250" on="1"/>
        <pt x="384" y="1075" on="0"/>
        <pt x="384" y="787" on="1"/>
        <pt x="384" y="454" on="0"/>
        <pt x="572" y="266" on="1"/>
        <pt x="744" y="94" on="0"/>
        <pt x="992" y="94" on="1"/>
        <pt x="1171" y="94" on="0"/>
        <pt x="1264" y="162" on="1"/>
        <pt x="1358" y="231" on="0"/>
        <pt x="1415" y="409" on="1"/>
      </contour>
      <contour>
        <pt x="808" y="1815" on="0"/>
        <pt x="808" y="1913" on="0"/>
        <pt x="833" y="1971" on="0"/>
        <pt x="855" y="1992" on="1"/>
        <pt x="902" y="2037" on="0"/>
        <pt x="970" y="2037" on="1"/>
        <pt x="1035" y="2037" on="0"/>
        <pt x="1079" y="1992" on="1"/>
        <pt x="1123" y="1946" on="0"/>
        <pt x="1123" y="1879" on="1"/>
        <pt x="1123" y="1815" on="0"/>
        <pt x="1079" y="1772" on="1"/>
        <pt x="1034" y="1729" on="0"/>
        <pt x="985" y="1729" on="1"/>
        <pt x="902" y="1729" on="0"/>
      </contour>
    </TTGlyph>
    <TTGlyph name="D" xMin="91" yMin="-15" xMax="1494" yMax="1545">
      <contour>
        <pt x="707" y="-15" on="1"/>
        <pt x="373" y="-1" on="1"/>
        <pt x="92" y="0" on="1"/>
        <pt x="99" y="110" on="1"/>
        <pt x="189" y="110" on="0"/>
        <pt x="219" y="136" on="1"/>
        <pt x="272" y="182" on="0"/>
        <pt x="272" y="286" on="1"/>
        <pt x="272" y="1229" on="1"/>
        <pt x="272" y="1334" on="0"/>
        <pt x="230" y="1397" on="0"/>
        <pt x="190" y="1415" on="0"/>
        <pt x="130" y="1415" on="0"/>
        <pt x="91" y="1403" on="1"/>
        <pt x="101" y="1530" on="1"/>
        <pt x="353" y="1530" on="1"/>
        <pt x="718" y="1545" on="1"/>
        <pt x="1494" y="1545" on="0"/>
        <pt x="1494" y="809" on="1"/>
        <pt x="1494" y="436" on="0"/>
        <pt x="1279" y="211" on="1"/>
        <pt x="1063" y="-15" on="0"/>
      </contour>
      <contour>
        <pt x="824" y="1416" on="1"/>
        <pt x="745" y="1429" on="0"/>
        <pt x="578" y="1429" on="0"/>
        <pt x="489" y="1409" on="1"/>
        <pt x="489" y="208" on="1"/>
        <pt x="489" y="158" on="0"/>
        <pt x="504" y="134" on="0"/>
        <pt x="534" y="123" on="0"/>
        <pt x="562" y="120" on="1"/>
        <pt x="610" y="115" on="0"/>
        <pt x="855" y="115" on="0"/>
        <pt x="1043" y="188" on="0"/>
        <pt x="1111" y="266" on="1"/>
        <pt x="1255" y="433" on="0"/>
        <pt x="1255" y="763" on="1"/>
        <pt x="1255" y="1345" on="0"/>
      </contour>
    </TTGlyph>
    <TTGlyph name="Dcaron" xMin="91" yMin="-15" xMax="1494" yMax="2040">
      <contour>
        <pt x="707" y="-15" on="1"/>
        <pt x="373" y="-1" on="1"/>
        <pt x="92" y="0" on="1"/>
        <pt x="99" y="110" on="1"/>
        <pt x="189" y="110" on="0"/>
        <pt x="219" y="136" on="1"/>
        <pt x="272" y="182" on="0"/>
        <pt x="272" y="286" on="1"/>
        <pt x="272" y="1229" on="1"/>
        <pt x="272" y="1334" on="0"/>
        <pt x="230" y="1397" on="0"/>
        <pt x="190" y="1415" on="0"/>
        <pt x="130" y="1415" on="0"/>
        <pt x="91" y="1403" on="1"/>
        <pt x="101" y="1530" on="1"/>
        <pt x="353" y="1530" on="1"/>
        <pt x="718" y="1545" on="1"/>
        <pt x="1494" y="1545" on="0"/>
        <pt x="1494" y="809" on="1"/>
        <pt x="1494" y="436" on="0"/>
        <pt x="1279" y="211" on="1"/>
        <pt x="1063" y="-15" on="0"/>
      </contour>
      <contour>
        <pt x="824" y="1416" on="1"/>
        <pt x="745" y="1429" on="0"/>
        <pt x="578" y="1429" on="0"/>
        <pt x="489" y="1409" on="1"/>
        <pt x="489" y="208" on="1"/>
        <pt x="489" y="158" on="0"/>
        <pt x="504" y="134" on="0"/>
        <pt x="534" y="123" on="0"/>
        <pt x="562" y="120" on="1"/>
        <pt x="610" y="115" on="0"/>
        <pt x="855" y="115" on="0"/>
        <pt x="1043" y="188" on="0"/>
        <pt x="1111" y="266" on="1"/>
        <pt x="1255" y="433" on="0"/>
        <pt x="1255" y="763" on="1"/>
        <pt x="1255" y="1345" on="0"/>
      </contour>
      <contour>
        <pt x="309" y="1930" on="1"/>
        <pt x="366" y="2040" on="1"/>
        <pt x="706" y="1883" on="1"/>
        <pt x="1033" y="2040" on="1"/>
        <pt x="1097" y="1930" on="1"/>
        <pt x="706" y="1664" on="1"/>
      </contour>
    </TTGlyph>
    <TTGlyph name="Dcroat" xMin="92" yMin="-13" xMax="1495" yMax="1547">
      <contour>
        <pt x="708" y="-13" on="1"/>
        <pt x="374" y="1" on="1"/>
        <pt x="93" y="2" on="1"/>
        <pt x="100" y="112" on="1"/>
        <pt x="190" y="112" on="0"/>
        <pt x="220" y="138" on="1"/>
        <pt x="273" y="184" on="0"/>
        <pt x="273" y="288" on="1"/>
        <pt x="273" y="724" on="1"/>
        <pt x="109" y="724" on="1"/>
        <pt x="129" y="851" on="1"/>
        <pt x="273" y="851" on="1"/>
        <pt x="273" y="1231" on="1"/>
        <pt x="273" y="1336" on="0"/>
        <pt x="231" y="1399" on="0"/>
        <pt x="191" y="1417" on="0"/>
        <pt x="131" y="1417" on="0"/>
        <pt x="92" y="1405" on="1"/>
        <pt x="102" y="1532" on="1"/>
        <pt x="354" y="1532" on="1"/>
        <pt x="719" y="1547" on="1"/>
        <pt x="1495" y="1547" on="0"/>
        <pt x="1495" y="811" on="1"/>
        <pt x="1495" y="438" on="0"/>
        <pt x="1280" y="213" on="1"/>
        <pt x="1064" y="-13" on="0"/>
      </contour>
      <contour>
        <pt x="824" y="1418" on="1"/>
        <pt x="746" y="1431" on="0"/>
        <pt x="579" y="1431" on="0"/>
        <pt x="490" y="1411" on="1"/>
        <pt x="490" y="851" on="1"/>
        <pt x="842" y="851" on="1"/>
        <pt x="822" y="724" on="1"/>
        <pt x="490" y="724" on="1"/>
        <pt x="490" y="210" on="1"/>
        <pt x="490" y="160" on="0"/>
        <pt x="505" y="136" on="0"/>
        <pt x="535" y="125" on="0"/>
        <pt x="564" y="122" on="1"/>
        <pt x="611" y="117" on="0"/>
        <pt x="856" y="117" on="0"/>
        <pt x="1044" y="190" on="0"/>
        <pt x="1112" y="268" on="1"/>
        <pt x="1256" y="435" on="0"/>
        <pt x="1256" y="765" on="1"/>
        <pt x="1256" y="1347" on="0"/>
      </contour>
    </TTGlyph>
    <TTGlyph name="Delta" xMin="194" yMin="1" xMax="1677" yMax="1566">
      <contour>
        <pt x="891" y="1566" on="1"/>
        <pt x="935" y="1566" on="1"/>
        <pt x="1677" y="29" on="1"/>
        <pt x="1659" y="1" on="1"/>
        <pt x="210" y="1" on="1"/>
        <pt x="194" y="24" on="1"/>
      </contour>
      <contour>
        <pt x="1388" y="144" on="1"/>
        <pt x="876" y="1248" on="1"/>
        <pt x="386" y="144" on="1"/>
      </contour>
    </TTGlyph>
    <TTGlyph name="E" xMin="87" yMin="0" xMax="1295" yMax="1546">
      <contour>
        <pt x="955" y="600" on="1"/>
        <pt x="953" y="568" on="1"/>
        <pt x="830" y="568" on="1"/>
        <pt x="823" y="681" on="0"/>
        <pt x="804" y="710" on="1"/>
        <pt x="770" y="761" on="0"/>
        <pt x="681" y="761" on="1"/>
        <pt x="480" y="761" on="1"/>
        <pt x="480" y="279" on="1"/>
        <pt x="480" y="182" on="0"/>
        <pt x="517" y="150" on="1"/>
        <pt x="553" y="119" on="0"/>
        <pt x="672" y="115" on="1"/>
        <pt x="863" y="115" on="1"/>
        <pt x="1063" y="115" on="0"/>
        <pt x="1139" y="288" on="1"/>
        <pt x="1163" y="342" on="0"/>
        <pt x="1171" y="410" on="1"/>
        <pt x="1295" y="410" on="1"/>
        <pt x="1295" y="296" on="0"/>
        <pt x="1272" y="170" on="1"/>
        <pt x="1242" y="0" on="1"/>
        <pt x="87" y="0" on="1"/>
        <pt x="104" y="110" on="1"/>
        <pt x="204" y="110" on="0"/>
        <pt x="235" y="154" on="1"/>
        <pt x="263" y="192" on="0"/>
        <pt x="263" y="307" on="1"/>
        <pt x="263" y="1221" on="1"/>
        <pt x="263" y="1414" on="0"/>
        <pt x="176" y="1414" on="1"/>
        <pt x="140" y="1414" on="0"/>
        <pt x="100" y="1405" on="1"/>
        <pt x="112" y="1530" on="1"/>
        <pt x="888" y="1530" on="1"/>
        <pt x="1129" y="1530" on="0"/>
        <pt x="1249" y="1546" on="1"/>
        <pt x="1249" y="1386" on="0"/>
        <pt x="1218" y="1226" on="1"/>
        <pt x="1210" y="1188" on="0"/>
        <pt x="1204" y="1168" on="1"/>
        <pt x="1102" y="1168" on="1"/>
        <pt x="1092" y="1330" on="0"/>
        <pt x="1040" y="1373" on="1"/>
        <pt x="1011" y="1397" on="0"/>
        <pt x="918" y="1409" on="0"/>
        <pt x="848" y="1409" on="1"/>
        <pt x="480" y="1409" on="1"/>
        <pt x="480" y="874" on="1"/>
        <pt x="687" y="874" on="1"/>
        <pt x="787" y="874" on="0"/>
        <pt x="818" y="917" on="1"/>
        <pt x="838" y="944" on="0"/>
        <pt x="850" y="1043" on="1"/>
        <pt x="972" y="1044" on="1"/>
        <pt x="973" y="991" on="1"/>
        <pt x="973" y="864" on="0"/>
      </contour>
    </TTGlyph>
    <TTGlyph name="Eacute" xMin="87" yMin="0" xMax="1295" yMax="2041">
      <contour>
        <pt x="955" y="600" on="1"/>
        <pt x="953" y="568" on="1"/>
        <pt x="830" y="568" on="1"/>
        <pt x="823" y="681" on="0"/>
        <pt x="804" y="710" on="1"/>
        <pt x="770" y="761" on="0"/>
        <pt x="681" y="761" on="1"/>
        <pt x="480" y="761" on="1"/>
        <pt x="480" y="279" on="1"/>
        <pt x="480" y="182" on="0"/>
        <pt x="517" y="150" on="1"/>
        <pt x="553" y="119" on="0"/>
        <pt x="672" y="115" on="1"/>
        <pt x="863" y="115" on="1"/>
        <pt x="1063" y="115" on="0"/>
        <pt x="1139" y="288" on="1"/>
        <pt x="1163" y="342" on="0"/>
        <pt x="1171" y="410" on="1"/>
        <pt x="1295" y="410" on="1"/>
        <pt x="1295" y="296" on="0"/>
        <pt x="1272" y="170" on="1"/>
        <pt x="1242" y="0" on="1"/>
        <pt x="87" y="0" on="1"/>
        <pt x="104" y="110" on="1"/>
        <pt x="204" y="110" on="0"/>
        <pt x="235" y="154" on="1"/>
        <pt x="263" y="192" on="0"/>
        <pt x="263" y="307" on="1"/>
        <pt x="263" y="1221" on="1"/>
        <pt x="263" y="1414" on="0"/>
        <pt x="176" y="1414" on="1"/>
        <pt x="140" y="1414" on="0"/>
        <pt x="100" y="1405" on="1"/>
        <pt x="112" y="1530" on="1"/>
        <pt x="888" y="1530" on="1"/>
        <pt x="1129" y="1530" on="0"/>
        <pt x="1249" y="1546" on="1"/>
        <pt x="1249" y="1386" on="0"/>
        <pt x="1218" y="1226" on="1"/>
        <pt x="1210" y="1188" on="0"/>
        <pt x="1204" y="1168" on="1"/>
        <pt x="1102" y="1168" on="1"/>
        <pt x="1092" y="1330" on="0"/>
        <pt x="1040" y="1373" on="1"/>
        <pt x="1011" y="1397" on="0"/>
        <pt x="918" y="1409" on="0"/>
        <pt x="848" y="1409" on="1"/>
        <pt x="480" y="1409" on="1"/>
        <pt x="480" y="874" on="1"/>
        <pt x="687" y="874" on="1"/>
        <pt x="787" y="874" on="0"/>
        <pt x="818" y="917" on="1"/>
        <pt x="838" y="944" on="0"/>
        <pt x="850" y="1043" on="1"/>
        <pt x="972" y="1044" on="1"/>
        <pt x="973" y="991" on="1"/>
        <pt x="973" y="864" on="0"/>
      </contour>
      <contour>
        <pt x="503" y="1781" on="1"/>
        <pt x="1066" y="2041" on="1"/>
        <pt x="1138" y="1848" on="1"/>
        <pt x="542" y="1663" on="1"/>
      </contour>
    </TTGlyph>
    <TTGlyph name="Ebreve" xMin="87" yMin="0" xMax="1295" yMax="2038">
      <contour>
        <pt x="955" y="600" on="1"/>
        <pt x="953" y="568" on="1"/>
        <pt x="830" y="568" on="1"/>
        <pt x="823" y="681" on="0"/>
        <pt x="804" y="710" on="1"/>
        <pt x="770" y="761" on="0"/>
        <pt x="681" y="761" on="1"/>
        <pt x="480" y="761" on="1"/>
        <pt x="480" y="279" on="1"/>
        <pt x="480" y="182" on="0"/>
        <pt x="517" y="150" on="1"/>
        <pt x="553" y="119" on="0"/>
        <pt x="672" y="115" on="1"/>
        <pt x="863" y="115" on="1"/>
        <pt x="1063" y="115" on="0"/>
        <pt x="1139" y="288" on="1"/>
        <pt x="1163" y="342" on="0"/>
        <pt x="1171" y="410" on="1"/>
        <pt x="1295" y="410" on="1"/>
        <pt x="1295" y="296" on="0"/>
        <pt x="1272" y="170" on="1"/>
        <pt x="1242" y="0" on="1"/>
        <pt x="87" y="0" on="1"/>
        <pt x="104" y="110" on="1"/>
        <pt x="204" y="110" on="0"/>
        <pt x="235" y="154" on="1"/>
        <pt x="263" y="192" on="0"/>
        <pt x="263" y="307" on="1"/>
        <pt x="263" y="1221" on="1"/>
        <pt x="263" y="1414" on="0"/>
        <pt x="176" y="1414" on="1"/>
        <pt x="140" y="1414" on="0"/>
        <pt x="100" y="1405" on="1"/>
        <pt x="112" y="1530" on="1"/>
        <pt x="888" y="1530" on="1"/>
        <pt x="1129" y="1530" on="0"/>
        <pt x="1249" y="1546" on="1"/>
        <pt x="1249" y="1386" on="0"/>
        <pt x="1218" y="1226" on="1"/>
        <pt x="1210" y="1188" on="0"/>
        <pt x="1204" y="1168" on="1"/>
        <pt x="1102" y="1168" on="1"/>
        <pt x="1092" y="1330" on="0"/>
        <pt x="1040" y="1373" on="1"/>
        <pt x="1011" y="1397" on="0"/>
        <pt x="918" y="1409" on="0"/>
        <pt x="848" y="1409" on="1"/>
        <pt x="480" y="1409" on="1"/>
        <pt x="480" y="874" on="1"/>
        <pt x="687" y="874" on="1"/>
        <pt x="787" y="874" on="0"/>
        <pt x="818" y="917" on="1"/>
        <pt x="838" y="944" on="0"/>
        <pt x="850" y="1043" on="1"/>
        <pt x="972" y="1044" on="1"/>
        <pt x="973" y="991" on="1"/>
        <pt x="973" y="864" on="0"/>
      </contour>
      <contour>
        <pt x="739" y="1704" on="1"/>
        <pt x="491" y="1704" on="0"/>
        <pt x="410" y="1893" on="1"/>
        <pt x="384" y="1954" on="0"/>
        <pt x="384" y="2020" on="1"/>
        <pt x="504" y="2038" on="1"/>
        <pt x="505" y="2036" on="0"/>
        <pt x="516" y="2009" on="0"/>
        <pt x="539" y="1972" on="0"/>
        <pt x="575" y="1930" on="0"/>
        <pt x="601" y="1912" on="1"/>
        <pt x="660" y="1871" on="0"/>
        <pt x="733" y="1871" on="1"/>
        <pt x="850" y="1871" on="0"/>
        <pt x="923" y="1954" on="1"/>
        <pt x="956" y="1991" on="0"/>
        <pt x="975" y="2038" on="1"/>
        <pt x="1105" y="2020" on="1"/>
        <pt x="1105" y="1925" on="0"/>
        <pt x="1033" y="1830" on="1"/>
        <pt x="937" y="1704" on="0"/>
      </contour>
    </TTGlyph>
    <TTGlyph name="Ecaron" xMin="87" yMin="0" xMax="1295" yMax="2040">
      <contour>
        <pt x="955" y="600" on="1"/>
        <pt x="953" y="568" on="1"/>
        <pt x="830" y="568" on="1"/>
        <pt x="823" y="681" on="0"/>
        <pt x="804" y="710" on="1"/>
        <pt x="770" y="761" on="0"/>
        <pt x="681" y="761" on="1"/>
        <pt x="480" y="761" on="1"/>
        <pt x="480" y="279" on="1"/>
        <pt x="480" y="182" on="0"/>
        <pt x="517" y="150" on="1"/>
        <pt x="553" y="119" on="0"/>
        <pt x="672" y="115" on="1"/>
        <pt x="863" y="115" on="1"/>
        <pt x="1063" y="115" on="0"/>
        <pt x="1139" y="288" on="1"/>
        <pt x="1163" y="342" on="0"/>
        <pt x="1171" y="410" on="1"/>
        <pt x="1295" y="410" on="1"/>
        <pt x="1295" y="296" on="0"/>
        <pt x="1272" y="170" on="1"/>
        <pt x="1242" y="0" on="1"/>
        <pt x="87" y="0" on="1"/>
        <pt x="104" y="110" on="1"/>
        <pt x="204" y="110" on="0"/>
        <pt x="235" y="154" on="1"/>
        <pt x="263" y="192" on="0"/>
        <pt x="263" y="307" on="1"/>
        <pt x="263" y="1221" on="1"/>
        <pt x="263" y="1414" on="0"/>
        <pt x="176" y="1414" on="1"/>
        <pt x="140" y="1414" on="0"/>
        <pt x="100" y="1405" on="1"/>
        <pt x="112" y="1530" on="1"/>
        <pt x="888" y="1530" on="1"/>
        <pt x="1129" y="1530" on="0"/>
        <pt x="1249" y="1546" on="1"/>
        <pt x="1249" y="1386" on="0"/>
        <pt x="1218" y="1226" on="1"/>
        <pt x="1210" y="1188" on="0"/>
        <pt x="1204" y="1168" on="1"/>
        <pt x="1102" y="1168" on="1"/>
        <pt x="1092" y="1330" on="0"/>
        <pt x="1040" y="1373" on="1"/>
        <pt x="1011" y="1397" on="0"/>
        <pt x="918" y="1409" on="0"/>
        <pt x="848" y="1409" on="1"/>
        <pt x="480" y="1409" on="1"/>
        <pt x="480" y="874" on="1"/>
        <pt x="687" y="874" on="1"/>
        <pt x="787" y="874" on="0"/>
        <pt x="818" y="917" on="1"/>
        <pt x="838" y="944" on="0"/>
        <pt x="850" y="1043" on="1"/>
        <pt x="972" y="1044" on="1"/>
        <pt x="973" y="991" on="1"/>
        <pt x="973" y="864" on="0"/>
      </contour>
      <contour>
        <pt x="343" y="1930" on="1"/>
        <pt x="400" y="2040" on="1"/>
        <pt x="740" y="1883" on="1"/>
        <pt x="1067" y="2040" on="1"/>
        <pt x="1131" y="1930" on="1"/>
        <pt x="740" y="1664" on="1"/>
      </contour>
    </TTGlyph>
    <TTGlyph name="Ecircumflex" xMin="87" yMin="0" xMax="1295" yMax="2040">
      <contour>
        <pt x="955" y="600" on="1"/>
        <pt x="953" y="568" on="1"/>
        <pt x="830" y="568" on="1"/>
        <pt x="823" y="681" on="0"/>
        <pt x="804" y="710" on="1"/>
        <pt x="770" y="761" on="0"/>
        <pt x="681" y="761" on="1"/>
        <pt x="480" y="761" on="1"/>
        <pt x="480" y="279" on="1"/>
        <pt x="480" y="182" on="0"/>
        <pt x="517" y="150" on="1"/>
        <pt x="553" y="119" on="0"/>
        <pt x="672" y="115" on="1"/>
        <pt x="863" y="115" on="1"/>
        <pt x="1063" y="115" on="0"/>
        <pt x="1139" y="288" on="1"/>
        <pt x="1163" y="342" on="0"/>
        <pt x="1171" y="410" on="1"/>
        <pt x="1295" y="410" on="1"/>
        <pt x="1295" y="296" on="0"/>
        <pt x="1272" y="170" on="1"/>
        <pt x="1242" y="0" on="1"/>
        <pt x="87" y="0" on="1"/>
        <pt x="104" y="110" on="1"/>
        <pt x="204" y="110" on="0"/>
        <pt x="235" y="154" on="1"/>
        <pt x="263" y="192" on="0"/>
        <pt x="263" y="307" on="1"/>
        <pt x="263" y="1221" on="1"/>
        <pt x="263" y="1414" on="0"/>
        <pt x="176" y="1414" on="1"/>
        <pt x="140" y="1414" on="0"/>
        <pt x="100" y="1405" on="1"/>
        <pt x="112" y="1530" on="1"/>
        <pt x="888" y="1530" on="1"/>
        <pt x="1129" y="1530" on="0"/>
        <pt x="1249" y="1546" on="1"/>
        <pt x="1249" y="1386" on="0"/>
        <pt x="1218" y="1226" on="1"/>
        <pt x="1210" y="1188" on="0"/>
        <pt x="1204" y="1168" on="1"/>
        <pt x="1102" y="1168" on="1"/>
        <pt x="1092" y="1330" on="0"/>
        <pt x="1040" y="1373" on="1"/>
        <pt x="1011" y="1397" on="0"/>
        <pt x="918" y="1409" on="0"/>
        <pt x="848" y="1409" on="1"/>
        <pt x="480" y="1409" on="1"/>
        <pt x="480" y="874" on="1"/>
        <pt x="687" y="874" on="1"/>
        <pt x="787" y="874" on="0"/>
        <pt x="818" y="917" on="1"/>
        <pt x="838" y="944" on="0"/>
        <pt x="850" y="1043" on="1"/>
        <pt x="972" y="1044" on="1"/>
        <pt x="973" y="991" on="1"/>
        <pt x="973" y="864" on="0"/>
      </contour>
      <contour>
        <pt x="343" y="1767" on="1"/>
        <pt x="739" y="2040" on="1"/>
        <pt x="1130" y="1775" on="1"/>
        <pt x="1066" y="1664" on="1"/>
        <pt x="739" y="1821" on="1"/>
        <pt x="739" y="1821" on="0"/>
        <pt x="400" y="1664" on="1"/>
      </contour>
    </TTGlyph>
    <TTGlyph name="Edieresis" xMin="87" yMin="0" xMax="1295" yMax="2029">
      <contour>
        <pt x="955" y="600" on="1"/>
        <pt x="953" y="568" on="1"/>
        <pt x="830" y="568" on="1"/>
        <pt x="823" y="681" on="0"/>
        <pt x="804" y="710" on="1"/>
        <pt x="770" y="761" on="0"/>
        <pt x="681" y="761" on="1"/>
        <pt x="480" y="761" on="1"/>
        <pt x="480" y="279" on="1"/>
        <pt x="480" y="182" on="0"/>
        <pt x="517" y="150" on="1"/>
        <pt x="553" y="119" on="0"/>
        <pt x="672" y="115" on="1"/>
        <pt x="863" y="115" on="1"/>
        <pt x="1063" y="115" on="0"/>
        <pt x="1139" y="288" on="1"/>
        <pt x="1163" y="342" on="0"/>
        <pt x="1171" y="410" on="1"/>
        <pt x="1295" y="410" on="1"/>
        <pt x="1295" y="296" on="0"/>
        <pt x="1272" y="170" on="1"/>
        <pt x="1242" y="0" on="1"/>
        <pt x="87" y="0" on="1"/>
        <pt x="104" y="110" on="1"/>
        <pt x="204" y="110" on="0"/>
        <pt x="235" y="154" on="1"/>
        <pt x="263" y="192" on="0"/>
        <pt x="263" y="307" on="1"/>
        <pt x="263" y="1221" on="1"/>
        <pt x="263" y="1414" on="0"/>
        <pt x="176" y="1414" on="1"/>
        <pt x="140" y="1414" on="0"/>
        <pt x="100" y="1405" on="1"/>
        <pt x="112" y="1530" on="1"/>
        <pt x="888" y="1530" on="1"/>
        <pt x="1129" y="1530" on="0"/>
        <pt x="1249" y="1546" on="1"/>
        <pt x="1249" y="1386" on="0"/>
        <pt x="1218" y="1226" on="1"/>
        <pt x="1210" y="1188" on="0"/>
        <pt x="1204" y="1168" on="1"/>
        <pt x="1102" y="1168" on="1"/>
        <pt x="1092" y="1330" on="0"/>
        <pt x="1040" y="1373" on="1"/>
        <pt x="1011" y="1397" on="0"/>
        <pt x="918" y="1409" on="0"/>
        <pt x="848" y="1409" on="1"/>
        <pt x="480" y="1409" on="1"/>
        <pt x="480" y="874" on="1"/>
        <pt x="687" y="874" on="1"/>
        <pt x="787" y="874" on="0"/>
        <pt x="818" y="917" on="1"/>
        <pt x="838" y="944" on="0"/>
        <pt x="850" y="1043" on="1"/>
        <pt x="972" y="1044" on="1"/>
        <pt x="973" y="991" on="1"/>
        <pt x="973" y="864" on="0"/>
      </contour>
      <contour>
        <pt x="1060" y="1758" on="0"/>
        <pt x="1007" y="1736" on="0"/>
        <pt x="944" y="1736" on="0"/>
        <pt x="888" y="1758" on="0"/>
        <pt x="868" y="1778" on="1"/>
        <pt x="824" y="1819" on="0"/>
        <pt x="824" y="1910" on="0"/>
        <pt x="847" y="1965" on="0"/>
        <pt x="868" y="1986" on="1"/>
        <pt x="911" y="2029" on="0"/>
        <pt x="976" y="2029" on="1"/>
        <pt x="1072" y="2029" on="0"/>
        <pt x="1110" y="1938" on="1"/>
        <pt x="1122" y="1910" on="0"/>
        <pt x="1122" y="1849" on="0"/>
        <pt x="1099" y="1797" on="0"/>
      </contour>
      <contour>
        <pt x="603" y="1758" on="0"/>
        <pt x="550" y="1736" on="0"/>
        <pt x="487" y="1736" on="0"/>
        <pt x="430" y="1758" on="0"/>
        <pt x="410" y="1778" on="1"/>
        <pt x="365" y="1820" on="0"/>
        <pt x="365" y="1910" on="0"/>
        <pt x="389" y="1965" on="0"/>
        <pt x="410" y="1986" on="1"/>
        <pt x="453" y="2029" on="0"/>
        <pt x="520" y="2029" on="1"/>
        <pt x="615" y="2029" on="0"/>
        <pt x="652" y="1938" on="1"/>
        <pt x="663" y="1910" on="0"/>
        <pt x="663" y="1849" on="0"/>
        <pt x="641" y="1797" on="0"/>
      </contour>
    </TTGlyph>
    <TTGlyph name="Edotaccent" xMin="87" yMin="0" xMax="1295" yMax="2037">
      <contour>
        <pt x="955" y="600" on="1"/>
        <pt x="953" y="568" on="1"/>
        <pt x="830" y="568" on="1"/>
        <pt x="823" y="681" on="0"/>
        <pt x="804" y="710" on="1"/>
        <pt x="770" y="761" on="0"/>
        <pt x="681" y="761" on="1"/>
        <pt x="480" y="761" on="1"/>
        <pt x="480" y="279" on="1"/>
        <pt x="480" y="182" on="0"/>
        <pt x="517" y="150" on="1"/>
        <pt x="553" y="119" on="0"/>
        <pt x="672" y="115" on="1"/>
        <pt x="863" y="115" on="1"/>
        <pt x="1063" y="115" on="0"/>
        <pt x="1139" y="288" on="1"/>
        <pt x="1163" y="342" on="0"/>
        <pt x="1171" y="410" on="1"/>
        <pt x="1295" y="410" on="1"/>
        <pt x="1295" y="296" on="0"/>
        <pt x="1272" y="170" on="1"/>
        <pt x="1242" y="0" on="1"/>
        <pt x="87" y="0" on="1"/>
        <pt x="104" y="110" on="1"/>
        <pt x="204" y="110" on="0"/>
        <pt x="235" y="154" on="1"/>
        <pt x="263" y="192" on="0"/>
        <pt x="263" y="307" on="1"/>
        <pt x="263" y="1221" on="1"/>
        <pt x="263" y="1414" on="0"/>
        <pt x="176" y="1414" on="1"/>
        <pt x="140" y="1414" on="0"/>
        <pt x="100" y="1405" on="1"/>
        <pt x="112" y="1530" on="1"/>
        <pt x="888" y="1530" on="1"/>
        <pt x="1129" y="1530" on="0"/>
        <pt x="1249" y="1546" on="1"/>
        <pt x="1249" y="1386" on="0"/>
        <pt x="1218" y="1226" on="1"/>
        <pt x="1210" y="1188" on="0"/>
        <pt x="1204" y="1168" on="1"/>
        <pt x="1102" y="1168" on="1"/>
        <pt x="1092" y="1330" on="0"/>
        <pt x="1040" y="1373" on="1"/>
        <pt x="1011" y="1397" on="0"/>
        <pt x="918" y="1409" on="0"/>
        <pt x="848" y="1409" on="1"/>
        <pt x="480" y="1409" on="1"/>
        <pt x="480" y="874" on="1"/>
        <pt x="687" y="874" on="1"/>
        <pt x="787" y="874" on="0"/>
        <pt x="818" y="917" on="1"/>
        <pt x="838" y="944" on="0"/>
        <pt x="850" y="1043" on="1"/>
        <pt x="972" y="1044" on="1"/>
        <pt x="973" y="991" on="1"/>
        <pt x="973" y="864" on="0"/>
      </contour>
      <contour>
        <pt x="585" y="1815" on="0"/>
        <pt x="585" y="1913" on="0"/>
        <pt x="610" y="1971" on="0"/>
        <pt x="632" y="1992" on="1"/>
        <pt x="679" y="2037" on="0"/>
        <pt x="747" y="2037" on="1"/>
        <pt x="812" y="2037" on="0"/>
        <pt x="856" y="1992" on="1"/>
        <pt x="900" y="1946" on="0"/>
        <pt x="900" y="1879" on="1"/>
        <pt x="900" y="1815" on="0"/>
        <pt x="856" y="1772" on="1"/>
        <pt x="811" y="1729" on="0"/>
        <pt x="762" y="1729" on="1"/>
        <pt x="679" y="1729" on="0"/>
      </contour>
    </TTGlyph>
    <TTGlyph name="Egrave" xMin="87" yMin="0" xMax="1295" yMax="2041">
      <contour>
        <pt x="955" y="600" on="1"/>
        <pt x="953" y="568" on="1"/>
        <pt x="830" y="568" on="1"/>
        <pt x="823" y="681" on="0"/>
        <pt x="804" y="710" on="1"/>
        <pt x="770" y="761" on="0"/>
        <pt x="681" y="761" on="1"/>
        <pt x="480" y="761" on="1"/>
        <pt x="480" y="279" on="1"/>
        <pt x="480" y="182" on="0"/>
        <pt x="517" y="150" on="1"/>
        <pt x="553" y="119" on="0"/>
        <pt x="672" y="115" on="1"/>
        <pt x="863" y="115" on="1"/>
        <pt x="1063" y="115" on="0"/>
        <pt x="1139" y="288" on="1"/>
        <pt x="1163" y="342" on="0"/>
        <pt x="1171" y="410" on="1"/>
        <pt x="1295" y="410" on="1"/>
        <pt x="1295" y="296" on="0"/>
        <pt x="1272" y="170" on="1"/>
        <pt x="1242" y="0" on="1"/>
        <pt x="87" y="0" on="1"/>
        <pt x="104" y="110" on="1"/>
        <pt x="204" y="110" on="0"/>
        <pt x="235" y="154" on="1"/>
        <pt x="263" y="192" on="0"/>
        <pt x="263" y="307" on="1"/>
        <pt x="263" y="1221" on="1"/>
        <pt x="263" y="1414" on="0"/>
        <pt x="176" y="1414" on="1"/>
        <pt x="140" y="1414" on="0"/>
        <pt x="100" y="1405" on="1"/>
        <pt x="112" y="1530" on="1"/>
        <pt x="888" y="1530" on="1"/>
        <pt x="1129" y="1530" on="0"/>
        <pt x="1249" y="1546" on="1"/>
        <pt x="1249" y="1386" on="0"/>
        <pt x="1218" y="1226" on="1"/>
        <pt x="1210" y="1188" on="0"/>
        <pt x="1204" y="1168" on="1"/>
        <pt x="1102" y="1168" on="1"/>
        <pt x="1092" y="1330" on="0"/>
        <pt x="1040" y="1373" on="1"/>
        <pt x="1011" y="1397" on="0"/>
        <pt x="918" y="1409" on="0"/>
        <pt x="848" y="1409" on="1"/>
        <pt x="480" y="1409" on="1"/>
        <pt x="480" y="874" on="1"/>
        <pt x="687" y="874" on="1"/>
        <pt x="787" y="874" on="0"/>
        <pt x="818" y="917" on="1"/>
        <pt x="838" y="944" on="0"/>
        <pt x="850" y="1043" on="1"/>
        <pt x="972" y="1044" on="1"/>
        <pt x="973" y="991" on="1"/>
        <pt x="973" y="864" on="0"/>
      </contour>
      <contour>
        <pt x="370" y="2041" on="1"/>
        <pt x="933" y="1781" on="1"/>
        <pt x="894" y="1663" on="1"/>
        <pt x="298" y="1848" on="1"/>
      </contour>
    </TTGlyph>
    <TTGlyph name="Emacron" xMin="87" yMin="0" xMax="1295" yMax="1970">
      <contour>
        <pt x="955" y="600" on="1"/>
        <pt x="953" y="568" on="1"/>
        <pt x="830" y="568" on="1"/>
        <pt x="823" y="681" on="0"/>
        <pt x="804" y="710" on="1"/>
        <pt x="770" y="761" on="0"/>
        <pt x="681" y="761" on="1"/>
        <pt x="480" y="761" on="1"/>
        <pt x="480" y="279" on="1"/>
        <pt x="480" y="182" on="0"/>
        <pt x="517" y="150" on="1"/>
        <pt x="553" y="119" on="0"/>
        <pt x="672" y="115" on="1"/>
        <pt x="863" y="115" on="1"/>
        <pt x="1063" y="115" on="0"/>
        <pt x="1139" y="288" on="1"/>
        <pt x="1163" y="342" on="0"/>
        <pt x="1171" y="410" on="1"/>
        <pt x="1295" y="410" on="1"/>
        <pt x="1295" y="296" on="0"/>
        <pt x="1272" y="170" on="1"/>
        <pt x="1242" y="0" on="1"/>
        <pt x="87" y="0" on="1"/>
        <pt x="104" y="110" on="1"/>
        <pt x="204" y="110" on="0"/>
        <pt x="235" y="154" on="1"/>
        <pt x="263" y="192" on="0"/>
        <pt x="263" y="307" on="1"/>
        <pt x="263" y="1221" on="1"/>
        <pt x="263" y="1414" on="0"/>
        <pt x="176" y="1414" on="1"/>
        <pt x="140" y="1414" on="0"/>
        <pt x="100" y="1405" on="1"/>
        <pt x="112" y="1530" on="1"/>
        <pt x="888" y="1530" on="1"/>
        <pt x="1129" y="1530" on="0"/>
        <pt x="1249" y="1546" on="1"/>
        <pt x="1249" y="1386" on="0"/>
        <pt x="1218" y="1226" on="1"/>
        <pt x="1210" y="1188" on="0"/>
        <pt x="1204" y="1168" on="1"/>
        <pt x="1102" y="1168" on="1"/>
        <pt x="1092" y="1330" on="0"/>
        <pt x="1040" y="1373" on="1"/>
        <pt x="1011" y="1397" on="0"/>
        <pt x="918" y="1409" on="0"/>
        <pt x="848" y="1409" on="1"/>
        <pt x="480" y="1409" on="1"/>
        <pt x="480" y="874" on="1"/>
        <pt x="687" y="874" on="1"/>
        <pt x="787" y="874" on="0"/>
        <pt x="818" y="917" on="1"/>
        <pt x="838" y="944" on="0"/>
        <pt x="850" y="1043" on="1"/>
        <pt x="972" y="1044" on="1"/>
        <pt x="973" y="991" on="1"/>
        <pt x="973" y="864" on="0"/>
      </contour>
      <contour>
        <pt x="377" y="1970" on="1"/>
        <pt x="1127" y="1970" on="1"/>
        <pt x="1108" y="1814" on="1"/>
        <pt x="358" y="1814" on="1"/>
      </contour>
    </TTGlyph>
    <TTGlyph name="Eng" xMin="81" yMin="-522" xMax="1682" yMax="1530">
      <contour>
        <pt x="1501" y="21" on="1"/>
        <pt x="1502" y="18" on="1"/>
        <pt x="1502" y="-98" on="0"/>
        <pt x="1378" y="-279" on="1"/>
        <pt x="1255" y="-457" on="0"/>
        <pt x="1140" y="-522" on="1"/>
        <pt x="1066" y="-446" on="1"/>
        <pt x="1065" y="-444" on="1"/>
        <pt x="1152" y="-322" on="1"/>
        <pt x="1239" y="-198" on="0"/>
        <pt x="1294" y="11" on="0"/>
        <pt x="1299" y="109" on="1"/>
        <pt x="1148" y="316" on="1"/>
        <pt x="972" y="546" on="1"/>
        <pt x="414" y="1250" on="1"/>
        <pt x="414" y="301" on="1"/>
        <pt x="414" y="198" on="0"/>
        <pt x="453" y="130" on="0"/>
        <pt x="493" y="110" on="0"/>
        <pt x="539" y="110" on="0"/>
        <pt x="579" y="113" on="0"/>
        <pt x="597" y="116" on="1"/>
        <pt x="630" y="120" on="1"/>
        <pt x="646" y="122" on="0"/>
        <pt x="655" y="124" on="1"/>
        <pt x="643" y="0" on="1"/>
        <pt x="85" y="0" on="1"/>
        <pt x="98" y="110" on="1"/>
        <pt x="191" y="110" on="0"/>
        <pt x="218" y="131" on="1"/>
        <pt x="269" y="171" on="0"/>
        <pt x="269" y="284" on="1"/>
        <pt x="269" y="1221" on="1"/>
        <pt x="269" y="1332" on="0"/>
        <pt x="243" y="1389" on="0"/>
        <pt x="208" y="1406" on="0"/>
        <pt x="182" y="1406" on="1"/>
        <pt x="150" y="1406" on="0"/>
        <pt x="81" y="1395" on="1"/>
        <pt x="96" y="1530" on="1"/>
        <pt x="504" y="1530" on="1"/>
        <pt x="531" y="1433" on="0"/>
        <pt x="598" y="1349" on="1"/>
        <pt x="1229" y="535" on="0"/>
        <pt x="1352" y="386" on="1"/>
        <pt x="1352" y="1244" on="1"/>
        <pt x="1352" y="1361" on="0"/>
        <pt x="1328" y="1406" on="0"/>
        <pt x="1295" y="1415" on="0"/>
        <pt x="1228" y="1415" on="0"/>
        <pt x="1157" y="1404" on="1"/>
        <pt x="1168" y="1530" on="1"/>
        <pt x="1682" y="1530" on="1"/>
        <pt x="1668" y="1415" on="1"/>
        <pt x="1611" y="1415" on="0"/>
        <pt x="1543" y="1412" on="0"/>
        <pt x="1526" y="1398" on="1"/>
        <pt x="1497" y="1377" on="0"/>
        <pt x="1497" y="1269" on="1"/>
        <pt x="1497" y="253" on="1"/>
      </contour>
    </TTGlyph>
    <TTGlyph name="Eogonek" xMin="88" yMin="-509" xMax="1296" yMax="1548">
      <contour>
        <pt x="1228" y="-441" on="1"/>
        <pt x="1145" y="-509" on="0"/>
        <pt x="1011" y="-509" on="1"/>
        <pt x="908" y="-509" on="0"/>
        <pt x="834" y="-450" on="1"/>
        <pt x="755" y="-388" on="0"/>
        <pt x="755" y="-286" on="1"/>
        <pt x="755" y="-186" on="0"/>
        <pt x="841" y="-95" on="1"/>
        <pt x="899" y="-34" on="0"/>
        <pt x="970" y="0" on="1"/>
        <pt x="981" y="2" on="1"/>
        <pt x="88" y="2" on="1"/>
        <pt x="105" y="112" on="1"/>
        <pt x="205" y="112" on="0"/>
        <pt x="236" y="156" on="1"/>
        <pt x="264" y="194" on="0"/>
        <pt x="264" y="309" on="1"/>
        <pt x="264" y="1223" on="1"/>
        <pt x="264" y="1416" on="0"/>
        <pt x="177" y="1416" on="1"/>
        <pt x="142" y="1416" on="0"/>
        <pt x="101" y="1407" on="1"/>
        <pt x="113" y="1532" on="1"/>
        <pt x="889" y="1532" on="1"/>
        <pt x="1130" y="1532" on="0"/>
        <pt x="1250" y="1548" on="1"/>
        <pt x="1250" y="1388" on="0"/>
        <pt x="1218" y="1228" on="1"/>
        <pt x="1211" y="1190" on="0"/>
        <pt x="1205" y="1170" on="1"/>
        <pt x="1103" y="1170" on="1"/>
        <pt x="1093" y="1332" on="0"/>
        <pt x="1041" y="1375" on="1"/>
        <pt x="1012" y="1399" on="0"/>
        <pt x="919" y="1411" on="0"/>
        <pt x="849" y="1411" on="1"/>
        <pt x="481" y="1411" on="1"/>
        <pt x="481" y="876" on="1"/>
        <pt x="688" y="876" on="1"/>
        <pt x="788" y="876" on="0"/>
        <pt x="820" y="919" on="1"/>
        <pt x="839" y="946" on="0"/>
        <pt x="851" y="1045" on="1"/>
        <pt x="973" y="1046" on="1"/>
        <pt x="974" y="993" on="1"/>
        <pt x="974" y="866" on="0"/>
        <pt x="956" y="602" on="1"/>
        <pt x="954" y="570" on="1"/>
        <pt x="831" y="570" on="1"/>
        <pt x="824" y="683" on="0"/>
        <pt x="805" y="712" on="1"/>
        <pt x="771" y="763" on="0"/>
        <pt x="682" y="763" on="1"/>
        <pt x="481" y="763" on="1"/>
        <pt x="481" y="281" on="1"/>
        <pt x="481" y="184" on="0"/>
        <pt x="518" y="152" on="1"/>
        <pt x="554" y="121" on="0"/>
        <pt x="673" y="117" on="1"/>
        <pt x="864" y="117" on="1"/>
        <pt x="1064" y="117" on="0"/>
        <pt x="1140" y="290" on="1"/>
        <pt x="1164" y="344" on="0"/>
        <pt x="1172" y="412" on="1"/>
        <pt x="1296" y="412" on="1"/>
        <pt x="1296" y="298" on="0"/>
        <pt x="1274" y="172" on="1"/>
        <pt x="1243" y="2" on="1"/>
        <pt x="1200" y="2" on="1"/>
        <pt x="1204" y="1" on="0"/>
        <pt x="1208" y="1" on="1"/>
        <pt x="1214" y="1" on="1"/>
        <pt x="1217" y="1" on="0"/>
        <pt x="1219" y="0" on="1"/>
        <pt x="1143" y="-9" on="0"/>
        <pt x="1058" y="-64" on="1"/>
        <pt x="949" y="-135" on="0"/>
        <pt x="949" y="-244" on="1"/>
        <pt x="949" y="-338" on="0"/>
        <pt x="1046" y="-366" on="1"/>
        <pt x="1074" y="-374" on="0"/>
        <pt x="1166" y="-374" on="0"/>
        <pt x="1228" y="-346" on="1"/>
      </contour>
    </TTGlyph>
    <TTGlyph name="Eth" xMin="92" yMin="-13" xMax="1495" yMax="1547">
      <contour>
        <pt x="708" y="-13" on="1"/>
        <pt x="374" y="1" on="1"/>
        <pt x="93" y="2" on="1"/>
        <pt x="100" y="112" on="1"/>
        <pt x="190" y="112" on="0"/>
        <pt x="220" y="138" on="1"/>
        <pt x="273" y="184" on="0"/>
        <pt x="273" y="288" on="1"/>
        <pt x="273" y="724" on="1"/>
        <pt x="109" y="724" on="1"/>
        <pt x="129" y="851" on="1"/>
        <pt x="273" y="851" on="1"/>
        <pt x="273" y="1231" on="1"/>
        <pt x="273" y="1336" on="0"/>
        <pt x="231" y="1399" on="0"/>
        <pt x="191" y="1417" on="0"/>
        <pt x="131" y="1417" on="0"/>
        <pt x="92" y="1405" on="1"/>
        <pt x="102" y="1532" on="1"/>
        <pt x="354" y="1532" on="1"/>
        <pt x="719" y="1547" on="1"/>
        <pt x="1495" y="1547" on="0"/>
        <pt x="1495" y="811" on="1"/>
        <pt x="1495" y="438" on="0"/>
        <pt x="1280" y="213" on="1"/>
        <pt x="1064" y="-13" on="0"/>
      </contour>
      <contour>
        <pt x="824" y="1418" on="1"/>
        <pt x="746" y="1431" on="0"/>
        <pt x="579" y="1431" on="0"/>
        <pt x="490" y="1411" on="1"/>
        <pt x="490" y="851" on="1"/>
        <pt x="842" y="851" on="1"/>
        <pt x="822" y="724" on="1"/>
        <pt x="490" y="724" on="1"/>
        <pt x="490" y="210" on="1"/>
        <pt x="490" y="160" on="0"/>
        <pt x="505" y="136" on="0"/>
        <pt x="535" y="125" on="0"/>
        <pt x="564" y="122" on="1"/>
        <pt x="611" y="117" on="0"/>
        <pt x="856" y="117" on="0"/>
        <pt x="1044" y="190" on="0"/>
        <pt x="1112" y="268" on="1"/>
        <pt x="1256" y="435" on="0"/>
        <pt x="1256" y="765" on="1"/>
        <pt x="1256" y="1347" on="0"/>
      </contour>
    </TTGlyph>
    <TTGlyph name="Euro" xMin="60" yMin="-15" xMax="1437" yMax="1544">
      <contour>
        <pt x="1402" y="343" on="1"/>
        <pt x="1425" y="299" on="0"/>
        <pt x="1425" y="189" on="1"/>
        <pt x="1425" y="82" on="0"/>
        <pt x="1274" y="29" on="1"/>
        <pt x="1149" y="-15" on="0"/>
        <pt x="932" y="-15" on="1"/>
        <pt x="695" y="-15" on="0"/>
        <pt x="516" y="108" on="1"/>
        <pt x="304" y="252" on="0"/>
        <pt x="243" y="531" on="1"/>
        <pt x="196" y="529" on="0"/>
        <pt x="150" y="526" on="1"/>
        <pt x="60" y="520" on="1"/>
        <pt x="89" y="665" on="1"/>
        <pt x="224" y="659" on="1"/>
        <pt x="219" y="724" on="0"/>
        <pt x="219" y="806" on="0"/>
        <pt x="224" y="871" on="1"/>
        <pt x="106" y="863" on="1"/>
        <pt x="135" y="1008" on="1"/>
        <pt x="163" y="1006" on="0"/>
        <pt x="191" y="1005" on="1"/>
        <pt x="248" y="1003" on="1"/>
        <pt x="314" y="1257" on="0"/>
        <pt x="516" y="1400" on="1"/>
        <pt x="718" y="1544" on="0"/>
        <pt x="1009" y="1544" on="1"/>
        <pt x="1149" y="1544" on="0"/>
        <pt x="1281" y="1498" on="1"/>
        <pt x="1437" y="1445" on="0"/>
        <pt x="1437" y="1359" on="1"/>
        <pt x="1437" y="1284" on="0"/>
        <pt x="1400" y="1219" on="1"/>
        <pt x="1388" y="1198" on="0"/>
        <pt x="1373" y="1186" on="1"/>
        <pt x="1251" y="1186" on="1"/>
        <pt x="1251" y="1342" on="0"/>
        <pt x="1102" y="1402" on="1"/>
        <pt x="1039" y="1427" on="0"/>
        <pt x="853" y="1427" on="0"/>
        <pt x="708" y="1370" on="0"/>
        <pt x="649" y="1316" on="1"/>
        <pt x="527" y="1203" on="0"/>
        <pt x="485" y="999" on="1"/>
        <pt x="572" y="999" on="1"/>
        <pt x="824" y="999" on="0"/>
        <pt x="1029" y="1008" on="1"/>
        <pt x="1001" y="863" on="1"/>
        <pt x="744" y="881" on="0"/>
        <pt x="638" y="881" on="1"/>
        <pt x="510" y="881" on="1"/>
        <pt x="490" y="881" on="0"/>
        <pt x="469" y="880" on="1"/>
        <pt x="467" y="844" on="0"/>
        <pt x="467" y="726" on="0"/>
        <pt x="475" y="656" on="1"/>
        <pt x="526" y="656" on="1"/>
        <pt x="778" y="656" on="0"/>
        <pt x="983" y="665" on="1"/>
        <pt x="955" y="520" on="1"/>
        <pt x="701" y="538" on="0"/>
        <pt x="506" y="538" on="1"/>
        <pt x="495" y="538" on="1"/>
        <pt x="545" y="324" on="0"/>
        <pt x="670" y="208" on="1"/>
        <pt x="785" y="102" on="0"/>
        <pt x="934" y="102" on="1"/>
        <pt x="1118" y="102" on="0"/>
        <pt x="1210" y="188" on="1"/>
        <pt x="1279" y="253" on="0"/>
        <pt x="1279" y="343" on="1"/>
      </contour>
    </TTGlyph>
    <TTGlyph name="F" xMin="87" yMin="0" xMax="1298" yMax="1546">
      <contour>
        <pt x="939" y="1530" on="1"/>
        <pt x="1182" y="1530" on="0"/>
        <pt x="1298" y="1546" on="1"/>
        <pt x="1298" y="1309" on="0"/>
        <pt x="1253" y="1159" on="1"/>
        <pt x="1147" y="1159" on="1"/>
        <pt x="1136" y="1320" on="0"/>
        <pt x="1074" y="1368" on="1"/>
        <pt x="1022" y="1409" on="0"/>
        <pt x="871" y="1409" on="1"/>
        <pt x="479" y="1409" on="1"/>
        <pt x="479" y="852" on="1"/>
        <pt x="702" y="852" on="1"/>
        <pt x="817" y="852" on="0"/>
        <pt x="878" y="902" on="0"/>
        <pt x="901" y="970" on="0"/>
        <pt x="908" y="1026" on="1"/>
        <pt x="1036" y="1026" on="1"/>
        <pt x="1013" y="549" on="1"/>
        <pt x="890" y="549" on="1"/>
        <pt x="888" y="630" on="0"/>
        <pt x="842" y="712" on="0"/>
        <pt x="816" y="722" on="1"/>
        <pt x="794" y="731" on="0"/>
        <pt x="566" y="734" on="0"/>
        <pt x="501" y="735" on="0"/>
        <pt x="479" y="735" on="1"/>
        <pt x="479" y="271" on="1"/>
        <pt x="479" y="179" on="0"/>
        <pt x="524" y="130" on="0"/>
        <pt x="580" y="115" on="0"/>
        <pt x="638" y="115" on="0"/>
        <pt x="675" y="116" on="0"/>
        <pt x="696" y="116" on="1"/>
        <pt x="747" y="118" on="0"/>
        <pt x="779" y="123" on="1"/>
        <pt x="766" y="0" on="1"/>
        <pt x="87" y="0" on="1"/>
        <pt x="104" y="110" on="1"/>
        <pt x="204" y="110" on="0"/>
        <pt x="234" y="154" on="1"/>
        <pt x="262" y="193" on="0"/>
        <pt x="262" y="307" on="1"/>
        <pt x="262" y="1221" on="1"/>
        <pt x="262" y="1414" on="0"/>
        <pt x="176" y="1414" on="1"/>
        <pt x="140" y="1414" on="0"/>
        <pt x="100" y="1405" on="1"/>
        <pt x="112" y="1530" on="1"/>
      </contour>
    </TTGlyph>
    <TTGlyph name="G" xMin="112" yMin="-16" xMax="1621" yMax="1545">
      <contour>
        <pt x="1501" y="97" on="1"/>
        <pt x="1303" y="-16" on="0"/>
        <pt x="938" y="-16" on="1"/>
        <pt x="527" y="-16" on="0"/>
        <pt x="315" y="192" on="1"/>
        <pt x="112" y="391" on="0"/>
        <pt x="112" y="747" on="1"/>
        <pt x="112" y="1072" on="0"/>
        <pt x="314" y="1296" on="1"/>
        <pt x="456" y="1452" on="0"/>
        <pt x="688" y="1514" on="1"/>
        <pt x="807" y="1545" on="0"/>
        <pt x="925" y="1545" on="1"/>
        <pt x="1063" y="1545" on="0"/>
        <pt x="1188" y="1530" on="1"/>
        <pt x="1384" y="1505" on="0"/>
        <pt x="1445" y="1505" on="1"/>
        <pt x="1481" y="1506" on="1"/>
        <pt x="1481" y="1315" on="0"/>
        <pt x="1453" y="1103" on="1"/>
        <pt x="1314" y="1103" on="1"/>
        <pt x="1302" y="1297" on="0"/>
        <pt x="1226" y="1368" on="1"/>
        <pt x="1151" y="1439" on="0"/>
        <pt x="799" y="1439" on="0"/>
        <pt x="566" y="1332" on="0"/>
        <pt x="493" y="1242" on="1"/>
        <pt x="354" y="1071" on="0"/>
        <pt x="354" y="782" on="1"/>
        <pt x="354" y="306" on="0"/>
        <pt x="692" y="158" on="1"/>
        <pt x="814" y="105" on="0"/>
        <pt x="963" y="105" on="1"/>
        <pt x="1203" y="105" on="0"/>
        <pt x="1271" y="193" on="1"/>
        <pt x="1271" y="501" on="1"/>
        <pt x="1271" y="645" on="0"/>
        <pt x="1160" y="656" on="1"/>
        <pt x="1130" y="659" on="0"/>
        <pt x="1042" y="659" on="0"/>
        <pt x="1003" y="652" on="1"/>
        <pt x="1013" y="787" on="1"/>
        <pt x="1621" y="787" on="1"/>
        <pt x="1607" y="661" on="1"/>
        <pt x="1560" y="660" on="0"/>
        <pt x="1506" y="643" on="0"/>
        <pt x="1492" y="614" on="1"/>
        <pt x="1471" y="569" on="0"/>
        <pt x="1471" y="384" on="1"/>
        <pt x="1471" y="170" on="0"/>
      </contour>
    </TTGlyph>
    <TTGlyph name="Gbreve" xMin="112" yMin="-16" xMax="1621" yMax="2038">
      <contour>
        <pt x="1501" y="97" on="1"/>
        <pt x="1303" y="-16" on="0"/>
        <pt x="938" y="-16" on="1"/>
        <pt x="527" y="-16" on="0"/>
        <pt x="315" y="192" on="1"/>
        <pt x="112" y="391" on="0"/>
        <pt x="112" y="747" on="1"/>
        <pt x="112" y="1072" on="0"/>
        <pt x="314" y="1296" on="1"/>
        <pt x="456" y="1452" on="0"/>
        <pt x="688" y="1514" on="1"/>
        <pt x="807" y="1545" on="0"/>
        <pt x="925" y="1545" on="1"/>
        <pt x="1063" y="1545" on="0"/>
        <pt x="1188" y="1530" on="1"/>
        <pt x="1384" y="1505" on="0"/>
        <pt x="1445" y="1505" on="1"/>
        <pt x="1481" y="1506" on="1"/>
        <pt x="1481" y="1315" on="0"/>
        <pt x="1453" y="1103" on="1"/>
        <pt x="1314" y="1103" on="1"/>
        <pt x="1302" y="1297" on="0"/>
        <pt x="1226" y="1368" on="1"/>
        <pt x="1151" y="1439" on="0"/>
        <pt x="799" y="1439" on="0"/>
        <pt x="566" y="1332" on="0"/>
        <pt x="493" y="1242" on="1"/>
        <pt x="354" y="1071" on="0"/>
        <pt x="354" y="782" on="1"/>
        <pt x="354" y="306" on="0"/>
        <pt x="692" y="158" on="1"/>
        <pt x="814" y="105" on="0"/>
        <pt x="963" y="105" on="1"/>
        <pt x="1203" y="105" on="0"/>
        <pt x="1271" y="193" on="1"/>
        <pt x="1271" y="501" on="1"/>
        <pt x="1271" y="645" on="0"/>
        <pt x="1160" y="656" on="1"/>
        <pt x="1130" y="659" on="0"/>
        <pt x="1042" y="659" on="0"/>
        <pt x="1003" y="652" on="1"/>
        <pt x="1013" y="787" on="1"/>
        <pt x="1621" y="787" on="1"/>
        <pt x="1607" y="661" on="1"/>
        <pt x="1560" y="660" on="0"/>
        <pt x="1506" y="643" on="0"/>
        <pt x="1492" y="614" on="1"/>
        <pt x="1471" y="569" on="0"/>
        <pt x="1471" y="384" on="1"/>
        <pt x="1471" y="170" on="0"/>
      </contour>
      <contour>
        <pt x="888" y="1704" on="1"/>
        <pt x="640" y="1704" on="0"/>
        <pt x="559" y="1893" on="1"/>
        <pt x="533" y="1954" on="0"/>
        <pt x="533" y="2020" on="1"/>
        <pt x="653" y="2038" on="1"/>
        <pt x="654" y="2036" on="0"/>
        <pt x="665" y="2009" on="0"/>
        <pt x="688" y="1972" on="0"/>
        <pt x="724" y="1930" on="0"/>
        <pt x="750" y="1912" on="1"/>
        <pt x="809" y="1871" on="0"/>
        <pt x="882" y="1871" on="1"/>
        <pt x="999" y="1871" on="0"/>
        <pt x="1072" y="1954" on="1"/>
        <pt x="1105" y="1991" on="0"/>
        <pt x="1124" y="2038" on="1"/>
        <pt x="1254" y="2020" on="1"/>
        <pt x="1254" y="1925" on="0"/>
        <pt x="1182" y="1830" on="1"/>
        <pt x="1086" y="1704" on="0"/>
      </contour>
    </TTGlyph>
    <TTGlyph name="Gcircumflex" xMin="112" yMin="-16" xMax="1621" yMax="2040">
      <contour>
        <pt x="1501" y="97" on="1"/>
        <pt x="1303" y="-16" on="0"/>
        <pt x="938" y="-16" on="1"/>
        <pt x="527" y="-16" on="0"/>
        <pt x="315" y="192" on="1"/>
        <pt x="112" y="391" on="0"/>
        <pt x="112" y="747" on="1"/>
        <pt x="112" y="1072" on="0"/>
        <pt x="314" y="1296" on="1"/>
        <pt x="456" y="1452" on="0"/>
        <pt x="688" y="1514" on="1"/>
        <pt x="807" y="1545" on="0"/>
        <pt x="925" y="1545" on="1"/>
        <pt x="1063" y="1545" on="0"/>
        <pt x="1188" y="1530" on="1"/>
        <pt x="1384" y="1505" on="0"/>
        <pt x="1445" y="1505" on="1"/>
        <pt x="1481" y="1506" on="1"/>
        <pt x="1481" y="1315" on="0"/>
        <pt x="1453" y="1103" on="1"/>
        <pt x="1314" y="1103" on="1"/>
        <pt x="1302" y="1297" on="0"/>
        <pt x="1226" y="1368" on="1"/>
        <pt x="1151" y="1439" on="0"/>
        <pt x="799" y="1439" on="0"/>
        <pt x="566" y="1332" on="0"/>
        <pt x="493" y="1242" on="1"/>
        <pt x="354" y="1071" on="0"/>
        <pt x="354" y="782" on="1"/>
        <pt x="354" y="306" on="0"/>
        <pt x="692" y="158" on="1"/>
        <pt x="814" y="105" on="0"/>
        <pt x="963" y="105" on="1"/>
        <pt x="1203" y="105" on="0"/>
        <pt x="1271" y="193" on="1"/>
        <pt x="1271" y="501" on="1"/>
        <pt x="1271" y="645" on="0"/>
        <pt x="1160" y="656" on="1"/>
        <pt x="1130" y="659" on="0"/>
        <pt x="1042" y="659" on="0"/>
        <pt x="1003" y="652" on="1"/>
        <pt x="1013" y="787" on="1"/>
        <pt x="1621" y="787" on="1"/>
        <pt x="1607" y="661" on="1"/>
        <pt x="1560" y="660" on="0"/>
        <pt x="1506" y="643" on="0"/>
        <pt x="1492" y="614" on="1"/>
        <pt x="1471" y="569" on="0"/>
        <pt x="1471" y="384" on="1"/>
        <pt x="1471" y="170" on="0"/>
      </contour>
      <contour>
        <pt x="492" y="1767" on="1"/>
        <pt x="888" y="2040" on="1"/>
        <pt x="1279" y="1775" on="1"/>
        <pt x="1215" y="1664" on="1"/>
        <pt x="888" y="1821" on="1"/>
        <pt x="888" y="1821" on="0"/>
        <pt x="549" y="1664" on="1"/>
      </contour>
    </TTGlyph>
    <TTGlyph name="Gcommaaccent" xMin="112" yMin="-518" xMax="1621" yMax="1545">
      <contour>
        <pt x="1501" y="97" on="1"/>
        <pt x="1303" y="-16" on="0"/>
        <pt x="938" y="-16" on="1"/>
        <pt x="527" y="-16" on="0"/>
        <pt x="315" y="192" on="1"/>
        <pt x="112" y="391" on="0"/>
        <pt x="112" y="747" on="1"/>
        <pt x="112" y="1072" on="0"/>
        <pt x="314" y="1296" on="1"/>
        <pt x="456" y="1452" on="0"/>
        <pt x="688" y="1514" on="1"/>
        <pt x="807" y="1545" on="0"/>
        <pt x="925" y="1545" on="1"/>
        <pt x="1063" y="1545" on="0"/>
        <pt x="1188" y="1530" on="1"/>
        <pt x="1384" y="1505" on="0"/>
        <pt x="1445" y="1505" on="1"/>
        <pt x="1481" y="1506" on="1"/>
        <pt x="1481" y="1315" on="0"/>
        <pt x="1453" y="1103" on="1"/>
        <pt x="1314" y="1103" on="1"/>
        <pt x="1302" y="1297" on="0"/>
        <pt x="1226" y="1368" on="1"/>
        <pt x="1151" y="1439" on="0"/>
        <pt x="799" y="1439" on="0"/>
        <pt x="566" y="1332" on="0"/>
        <pt x="493" y="1242" on="1"/>
        <pt x="354" y="1071" on="0"/>
        <pt x="354" y="782" on="1"/>
        <pt x="354" y="306" on="0"/>
        <pt x="692" y="158" on="1"/>
        <pt x="814" y="105" on="0"/>
        <pt x="963" y="105" on="1"/>
        <pt x="1203" y="105" on="0"/>
        <pt x="1271" y="193" on="1"/>
        <pt x="1271" y="501" on="1"/>
        <pt x="1271" y="645" on="0"/>
        <pt x="1160" y="656" on="1"/>
        <pt x="1130" y="659" on="0"/>
        <pt x="1042" y="659" on="0"/>
        <pt x="1003" y="652" on="1"/>
        <pt x="1013" y="787" on="1"/>
        <pt x="1621" y="787" on="1"/>
        <pt x="1607" y="661" on="1"/>
        <pt x="1560" y="660" on="0"/>
        <pt x="1506" y="643" on="0"/>
        <pt x="1492" y="614" on="1"/>
        <pt x="1471" y="569" on="0"/>
        <pt x="1471" y="384" on="1"/>
        <pt x="1471" y="170" on="0"/>
      </contour>
      <contour>
        <pt x="908" y="-59" on="1"/>
        <pt x="1065" y="-59" on="0"/>
        <pt x="1065" y="-214" on="1"/>
        <pt x="1065" y="-332" on="0"/>
        <pt x="996" y="-432" on="1"/>
        <pt x="968" y="-472" on="0"/>
        <pt x="910" y="-518" on="0"/>
        <pt x="892" y="-518" on="1"/>
        <pt x="861" y="-518" on="0"/>
        <pt x="831" y="-487" on="0"/>
        <pt x="827" y="-475" on="1"/>
        <pt x="882" y="-422" on="0"/>
        <pt x="880" y="-339" on="1"/>
        <pt x="759" y="-327" on="0"/>
        <pt x="759" y="-204" on="1"/>
        <pt x="759" y="-144" on="0"/>
        <pt x="799" y="-102" on="1"/>
        <pt x="840" y="-59" on="0"/>
      </contour>
    </TTGlyph>
    <TTGlyph name="Gdotaccent" xMin="112" yMin="-16" xMax="1621" yMax="2037">
      <contour>
        <pt x="1501" y="97" on="1"/>
        <pt x="1303" y="-16" on="0"/>
        <pt x="938" y="-16" on="1"/>
        <pt x="527" y="-16" on="0"/>
        <pt x="315" y="192" on="1"/>
        <pt x="112" y="391" on="0"/>
        <pt x="112" y="747" on="1"/>
        <pt x="112" y="1072" on="0"/>
        <pt x="314" y="1296" on="1"/>
        <pt x="456" y="1452" on="0"/>
        <pt x="688" y="1514" on="1"/>
        <pt x="807" y="1545" on="0"/>
        <pt x="925" y="1545" on="1"/>
        <pt x="1063" y="1545" on="0"/>
        <pt x="1188" y="1530" on="1"/>
        <pt x="1384" y="1505" on="0"/>
        <pt x="1445" y="1505" on="1"/>
        <pt x="1481" y="1506" on="1"/>
        <pt x="1481" y="1315" on="0"/>
        <pt x="1453" y="1103" on="1"/>
        <pt x="1314" y="1103" on="1"/>
        <pt x="1302" y="1297" on="0"/>
        <pt x="1226" y="1368" on="1"/>
        <pt x="1151" y="1439" on="0"/>
        <pt x="799" y="1439" on="0"/>
        <pt x="566" y="1332" on="0"/>
        <pt x="493" y="1242" on="1"/>
        <pt x="354" y="1071" on="0"/>
        <pt x="354" y="782" on="1"/>
        <pt x="354" y="306" on="0"/>
        <pt x="692" y="158" on="1"/>
        <pt x="814" y="105" on="0"/>
        <pt x="963" y="105" on="1"/>
        <pt x="1203" y="105" on="0"/>
        <pt x="1271" y="193" on="1"/>
        <pt x="1271" y="501" on="1"/>
        <pt x="1271" y="645" on="0"/>
        <pt x="1160" y="656" on="1"/>
        <pt x="1130" y="659" on="0"/>
        <pt x="1042" y="659" on="0"/>
        <pt x="1003" y="652" on="1"/>
        <pt x="1013" y="787" on="1"/>
        <pt x="1621" y="787" on="1"/>
        <pt x="1607" y="661" on="1"/>
        <pt x="1560" y="660" on="0"/>
        <pt x="1506" y="643" on="0"/>
        <pt x="1492" y="614" on="1"/>
        <pt x="1471" y="569" on="0"/>
        <pt x="1471" y="384" on="1"/>
        <pt x="1471" y="170" on="0"/>
      </contour>
      <contour>
        <pt x="734" y="1815" on="0"/>
        <pt x="734" y="1913" on="0"/>
        <pt x="759" y="1971" on="0"/>
        <pt x="781" y="1992" on="1"/>
        <pt x="828" y="2037" on="0"/>
        <pt x="896" y="2037" on="1"/>
        <pt x="961" y="2037" on="0"/>
        <pt x="1005" y="1992" on="1"/>
        <pt x="1049" y="1946" on="0"/>
        <pt x="1049" y="1879" on="1"/>
        <pt x="1049" y="1815" on="0"/>
        <pt x="1005" y="1772" on="1"/>
        <pt x="960" y="1729" on="0"/>
        <pt x="911" y="1729" on="1"/>
        <pt x="828" y="1729" on="0"/>
      </contour>
    </TTGlyph>
    <TTGlyph name="H" xMin="90" yMin="0" xMax="1607" yMax="1530">
      <contour>
        <pt x="1485" y="117" on="1"/>
        <pt x="1501" y="110" on="0"/>
        <pt x="1549" y="110" on="0"/>
        <pt x="1605" y="124" on="1"/>
        <pt x="1593" y="0" on="1"/>
        <pt x="1042" y="0" on="1"/>
        <pt x="1060" y="110" on="1"/>
        <pt x="1157" y="110" on="0"/>
        <pt x="1192" y="162" on="1"/>
        <pt x="1221" y="207" on="0"/>
        <pt x="1221" y="327" on="1"/>
        <pt x="1221" y="726" on="1"/>
        <pt x="483" y="726" on="1"/>
        <pt x="483" y="269" on="1"/>
        <pt x="483" y="162" on="0"/>
        <pt x="502" y="119" on="0"/>
        <pt x="527" y="110" on="0"/>
        <pt x="554" y="110" on="1"/>
        <pt x="604" y="110" on="0"/>
        <pt x="668" y="126" on="1"/>
        <pt x="653" y="0" on="1"/>
        <pt x="90" y="0" on="1"/>
        <pt x="107" y="110" on="1"/>
        <pt x="207" y="110" on="0"/>
        <pt x="238" y="154" on="1"/>
        <pt x="266" y="192" on="0"/>
        <pt x="266" y="307" on="1"/>
        <pt x="266" y="1221" on="1"/>
        <pt x="266" y="1414" on="0"/>
        <pt x="181" y="1414" on="1"/>
        <pt x="145" y="1414" on="0"/>
        <pt x="103" y="1405" on="1"/>
        <pt x="115" y="1530" on="1"/>
        <pt x="648" y="1530" on="1"/>
        <pt x="633" y="1414" on="1"/>
        <pt x="587" y="1414" on="0"/>
        <pt x="529" y="1404" on="0"/>
        <pt x="512" y="1384" on="1"/>
        <pt x="483" y="1348" on="0"/>
        <pt x="483" y="1208" on="1"/>
        <pt x="483" y="852" on="1"/>
        <pt x="1221" y="852" on="1"/>
        <pt x="1221" y="1214" on="1"/>
        <pt x="1221" y="1340" on="0"/>
        <pt x="1194" y="1400" on="0"/>
        <pt x="1162" y="1414" on="0"/>
        <pt x="1132" y="1414" on="1"/>
        <pt x="1085" y="1414" on="0"/>
        <pt x="1032" y="1402" on="1"/>
        <pt x="1051" y="1530" on="1"/>
        <pt x="1607" y="1530" on="1"/>
        <pt x="1593" y="1414" on="1"/>
        <pt x="1505" y="1414" on="0"/>
        <pt x="1474" y="1377" on="1"/>
        <pt x="1437" y="1334" on="0"/>
        <pt x="1437" y="1213" on="1"/>
        <pt x="1437" y="258" on="1"/>
        <pt x="1437" y="138" on="0"/>
      </contour>
    </TTGlyph>
    <TTGlyph name="Hbar" xMin="36" yMin="2" xMax="1657" yMax="1532">
      <contour>
        <pt x="1486" y="119" on="1"/>
        <pt x="1502" y="112" on="0"/>
        <pt x="1550" y="112" on="0"/>
        <pt x="1606" y="126" on="1"/>
        <pt x="1594" y="2" on="1"/>
        <pt x="1043" y="2" on="1"/>
        <pt x="1061" y="112" on="1"/>
        <pt x="1158" y="112" on="0"/>
        <pt x="1192" y="164" on="1"/>
        <pt x="1222" y="209" on="0"/>
        <pt x="1222" y="329" on="1"/>
        <pt x="1222" y="728" on="1"/>
        <pt x="484" y="728" on="1"/>
        <pt x="484" y="271" on="1"/>
        <pt x="484" y="164" on="0"/>
        <pt x="503" y="121" on="0"/>
        <pt x="528" y="112" on="0"/>
        <pt x="556" y="112" on="1"/>
        <pt x="605" y="112" on="0"/>
        <pt x="669" y="128" on="1"/>
        <pt x="654" y="2" on="1"/>
        <pt x="91" y="2" on="1"/>
        <pt x="108" y="112" on="1"/>
        <pt x="208" y="112" on="0"/>
        <pt x="239" y="156" on="1"/>
        <pt x="267" y="194" on="0"/>
        <pt x="267" y="309" on="1"/>
        <pt x="267" y="1076" on="1"/>
        <pt x="36" y="1076" on="1"/>
        <pt x="66" y="1184" on="1"/>
        <pt x="267" y="1184" on="1"/>
        <pt x="267" y="1223" on="1"/>
        <pt x="267" y="1416" on="0"/>
        <pt x="182" y="1416" on="1"/>
        <pt x="146" y="1416" on="0"/>
        <pt x="104" y="1407" on="1"/>
        <pt x="116" y="1532" on="1"/>
        <pt x="649" y="1532" on="1"/>
        <pt x="634" y="1416" on="1"/>
        <pt x="588" y="1416" on="0"/>
        <pt x="530" y="1406" on="0"/>
        <pt x="514" y="1386" on="1"/>
        <pt x="484" y="1350" on="0"/>
        <pt x="484" y="1210" on="1"/>
        <pt x="484" y="1184" on="1"/>
        <pt x="1222" y="1184" on="1"/>
        <pt x="1222" y="1216" on="1"/>
        <pt x="1222" y="1342" on="0"/>
        <pt x="1195" y="1402" on="0"/>
        <pt x="1163" y="1416" on="0"/>
        <pt x="1133" y="1416" on="1"/>
        <pt x="1086" y="1416" on="0"/>
        <pt x="1033" y="1404" on="1"/>
        <pt x="1052" y="1532" on="1"/>
        <pt x="1608" y="1532" on="1"/>
        <pt x="1594" y="1416" on="1"/>
        <pt x="1506" y="1416" on="0"/>
        <pt x="1474" y="1379" on="1"/>
        <pt x="1438" y="1336" on="0"/>
        <pt x="1438" y="1215" on="1"/>
        <pt x="1438" y="1184" on="1"/>
        <pt x="1657" y="1184" on="1"/>
        <pt x="1627" y="1076" on="1"/>
        <pt x="1438" y="1076" on="1"/>
        <pt x="1438" y="260" on="1"/>
        <pt x="1438" y="140" on="0"/>
      </contour>
      <contour>
        <pt x="1222" y="854" on="1"/>
        <pt x="1222" y="1076" on="1"/>
        <pt x="484" y="1076" on="1"/>
        <pt x="484" y="854" on="1"/>
      </contour>
    </TTGlyph>
    <TTGlyph name="Hcircumflex" xMin="90" yMin="0" xMax="1607" yMax="2040">
      <contour>
        <pt x="1485" y="117" on="1"/>
        <pt x="1501" y="110" on="0"/>
        <pt x="1549" y="110" on="0"/>
        <pt x="1605" y="124" on="1"/>
        <pt x="1593" y="0" on="1"/>
        <pt x="1042" y="0" on="1"/>
        <pt x="1060" y="110" on="1"/>
        <pt x="1157" y="110" on="0"/>
        <pt x="1192" y="162" on="1"/>
        <pt x="1221" y="207" on="0"/>
        <pt x="1221" y="327" on="1"/>
        <pt x="1221" y="726" on="1"/>
        <pt x="483" y="726" on="1"/>
        <pt x="483" y="269" on="1"/>
        <pt x="483" y="162" on="0"/>
        <pt x="502" y="119" on="0"/>
        <pt x="527" y="110" on="0"/>
        <pt x="554" y="110" on="1"/>
        <pt x="604" y="110" on="0"/>
        <pt x="668" y="126" on="1"/>
        <pt x="653" y="0" on="1"/>
        <pt x="90" y="0" on="1"/>
        <pt x="107" y="110" on="1"/>
        <pt x="207" y="110" on="0"/>
        <pt x="238" y="154" on="1"/>
        <pt x="266" y="192" on="0"/>
        <pt x="266" y="307" on="1"/>
        <pt x="266" y="1221" on="1"/>
        <pt x="266" y="1414" on="0"/>
        <pt x="181" y="1414" on="1"/>
        <pt x="145" y="1414" on="0"/>
        <pt x="103" y="1405" on="1"/>
        <pt x="115" y="1530" on="1"/>
        <pt x="648" y="1530" on="1"/>
        <pt x="633" y="1414" on="1"/>
        <pt x="587" y="1414" on="0"/>
        <pt x="529" y="1404" on="0"/>
        <pt x="512" y="1384" on="1"/>
        <pt x="483" y="1348" on="0"/>
        <pt x="483" y="1208" on="1"/>
        <pt x="483" y="852" on="1"/>
        <pt x="1221" y="852" on="1"/>
        <pt x="1221" y="1214" on="1"/>
        <pt x="1221" y="1340" on="0"/>
        <pt x="1194" y="1400" on="0"/>
        <pt x="1162" y="1414" on="0"/>
        <pt x="1132" y="1414" on="1"/>
        <pt x="1085" y="1414" on="0"/>
        <pt x="1032" y="1402" on="1"/>
        <pt x="1051" y="1530" on="1"/>
        <pt x="1607" y="1530" on="1"/>
        <pt x="1593" y="1414" on="1"/>
        <pt x="1505" y="1414" on="0"/>
        <pt x="1474" y="1377" on="1"/>
        <pt x="1437" y="1334" on="0"/>
        <pt x="1437" y="1213" on="1"/>
        <pt x="1437" y="258" on="1"/>
        <pt x="1437" y="138" on="0"/>
      </contour>
      <contour>
        <pt x="470" y="1767" on="1"/>
        <pt x="866" y="2040" on="1"/>
        <pt x="1257" y="1775" on="1"/>
        <pt x="1193" y="1664" on="1"/>
        <pt x="866" y="1821" on="1"/>
        <pt x="866" y="1821" on="0"/>
        <pt x="527" y="1664" on="1"/>
      </contour>
    </TTGlyph>
    <TTGlyph name="I" xMin="114" yMin="0" xMax="739" yMax="1530">
      <contour>
        <pt x="564" y="127" on="0"/>
        <pt x="609" y="110" on="0"/>
        <pt x="664" y="110" on="0"/>
        <pt x="739" y="125" on="1"/>
        <pt x="727" y="0" on="1"/>
        <pt x="114" y="0" on="1"/>
        <pt x="125" y="110" on="1"/>
        <pt x="223" y="110" on="0"/>
        <pt x="267" y="156" on="1"/>
        <pt x="318" y="211" on="0"/>
        <pt x="318" y="341" on="1"/>
        <pt x="317" y="1214" on="1"/>
        <pt x="317" y="1384" on="0"/>
        <pt x="266" y="1407" on="1"/>
        <pt x="250" y="1414" on="0"/>
        <pt x="229" y="1414" on="1"/>
        <pt x="170" y="1414" on="0"/>
        <pt x="122" y="1405" on="1"/>
        <pt x="138" y="1530" on="1"/>
        <pt x="723" y="1530" on="1"/>
        <pt x="707" y="1414" on="1"/>
        <pt x="594" y="1414" on="0"/>
        <pt x="563" y="1376" on="1"/>
        <pt x="534" y="1342" on="0"/>
        <pt x="534" y="1221" on="1"/>
        <pt x="534" y="271" on="1"/>
        <pt x="534" y="175" on="0"/>
      </contour>
    </TTGlyph>
    <TTGlyph name="IJ" xMin="114" yMin="-386" xMax="1602" yMax="1530">
      <contour>
        <pt x="564" y="127" on="0"/>
        <pt x="609" y="110" on="0"/>
        <pt x="664" y="110" on="0"/>
        <pt x="739" y="125" on="1"/>
        <pt x="727" y="0" on="1"/>
        <pt x="114" y="0" on="1"/>
        <pt x="125" y="110" on="1"/>
        <pt x="223" y="110" on="0"/>
        <pt x="267" y="156" on="1"/>
        <pt x="318" y="211" on="0"/>
        <pt x="318" y="341" on="1"/>
        <pt x="317" y="1214" on="1"/>
        <pt x="317" y="1384" on="0"/>
        <pt x="266" y="1407" on="1"/>
        <pt x="250" y="1414" on="0"/>
        <pt x="229" y="1414" on="1"/>
        <pt x="170" y="1414" on="0"/>
        <pt x="122" y="1405" on="1"/>
        <pt x="138" y="1530" on="1"/>
        <pt x="723" y="1530" on="1"/>
        <pt x="707" y="1414" on="1"/>
        <pt x="594" y="1414" on="0"/>
        <pt x="563" y="1376" on="1"/>
        <pt x="534" y="1342" on="0"/>
        <pt x="534" y="1221" on="1"/>
        <pt x="534" y="271" on="1"/>
        <pt x="534" y="175" on="0"/>
      </contour>
      <contour>
        <pt x="927" y="-310" on="1"/>
        <pt x="1065" y="-163" on="0"/>
        <pt x="1133" y="66" on="1"/>
        <pt x="1182" y="233" on="0"/>
        <pt x="1182" y="396" on="1"/>
        <pt x="1182" y="1177" on="1"/>
        <pt x="1182" y="1323" on="0"/>
        <pt x="1153" y="1397" on="0"/>
        <pt x="1120" y="1414" on="0"/>
        <pt x="1090" y="1414" on="1"/>
        <pt x="1010" y="1414" on="0"/>
        <pt x="974" y="1406" on="1"/>
        <pt x="975" y="1405" on="0"/>
        <pt x="975" y="1403" on="1"/>
        <pt x="963" y="1404" on="1"/>
        <pt x="981" y="1530" on="1"/>
        <pt x="1602" y="1530" on="1"/>
        <pt x="1587" y="1414" on="1"/>
        <pt x="1478" y="1414" on="0"/>
        <pt x="1418" y="1365" on="0"/>
        <pt x="1398" y="1296" on="0"/>
        <pt x="1398" y="1240" on="1"/>
        <pt x="1398" y="332" on="1"/>
        <pt x="1398" y="188" on="0"/>
        <pt x="1358" y="39" on="0"/>
        <pt x="1304" y="-71" on="0"/>
        <pt x="1260" y="-130" on="1"/>
        <pt x="1174" y="-243" on="0"/>
        <pt x="1002" y="-386" on="1"/>
        <pt x="927" y="-312" on="1"/>
      </contour>
    </TTGlyph>
    <TTGlyph name="Iacute" xMin="114" yMin="0" xMax="822" yMax="2041">
      <contour>
        <pt x="564" y="127" on="0"/>
        <pt x="609" y="110" on="0"/>
        <pt x="664" y="110" on="0"/>
        <pt x="739" y="125" on="1"/>
        <pt x="727" y="0" on="1"/>
        <pt x="114" y="0" on="1"/>
        <pt x="125" y="110" on="1"/>
        <pt x="223" y="110" on="0"/>
        <pt x="267" y="156" on="1"/>
        <pt x="318" y="211" on="0"/>
        <pt x="318" y="341" on="1"/>
        <pt x="317" y="1214" on="1"/>
        <pt x="317" y="1384" on="0"/>
        <pt x="266" y="1407" on="1"/>
        <pt x="250" y="1414" on="0"/>
        <pt x="229" y="1414" on="1"/>
        <pt x="170" y="1414" on="0"/>
        <pt x="122" y="1405" on="1"/>
        <pt x="138" y="1530" on="1"/>
        <pt x="723" y="1530" on="1"/>
        <pt x="707" y="1414" on="1"/>
        <pt x="594" y="1414" on="0"/>
        <pt x="563" y="1376" on="1"/>
        <pt x="534" y="1342" on="0"/>
        <pt x="534" y="1221" on="1"/>
        <pt x="534" y="271" on="1"/>
        <pt x="534" y="175" on="0"/>
      </contour>
      <contour>
        <pt x="187" y="1781" on="1"/>
        <pt x="750" y="2041" on="1"/>
        <pt x="822" y="1848" on="1"/>
        <pt x="226" y="1663" on="1"/>
      </contour>
    </TTGlyph>
    <TTGlyph name="Ibreve" xMin="68" yMin="0" xMax="789" yMax="2038">
      <contour>
        <pt x="564" y="127" on="0"/>
        <pt x="609" y="110" on="0"/>
        <pt x="664" y="110" on="0"/>
        <pt x="739" y="125" on="1"/>
        <pt x="727" y="0" on="1"/>
        <pt x="114" y="0" on="1"/>
        <pt x="125" y="110" on="1"/>
        <pt x="223" y="110" on="0"/>
        <pt x="267" y="156" on="1"/>
        <pt x="318" y="211" on="0"/>
        <pt x="318" y="341" on="1"/>
        <pt x="317" y="1214" on="1"/>
        <pt x="317" y="1384" on="0"/>
        <pt x="266" y="1407" on="1"/>
        <pt x="250" y="1414" on="0"/>
        <pt x="229" y="1414" on="1"/>
        <pt x="170" y="1414" on="0"/>
        <pt x="122" y="1405" on="1"/>
        <pt x="138" y="1530" on="1"/>
        <pt x="723" y="1530" on="1"/>
        <pt x="707" y="1414" on="1"/>
        <pt x="594" y="1414" on="0"/>
        <pt x="563" y="1376" on="1"/>
        <pt x="534" y="1342" on="0"/>
        <pt x="534" y="1221" on="1"/>
        <pt x="534" y="271" on="1"/>
        <pt x="534" y="175" on="0"/>
      </contour>
      <contour>
        <pt x="423" y="1704" on="1"/>
        <pt x="175" y="1704" on="0"/>
        <pt x="94" y="1893" on="1"/>
        <pt x="68" y="1954" on="0"/>
        <pt x="68" y="2020" on="1"/>
        <pt x="188" y="2038" on="1"/>
        <pt x="189" y="2036" on="0"/>
        <pt x="200" y="2009" on="0"/>
        <pt x="223" y="1972" on="0"/>
        <pt x="259" y="1930" on="0"/>
        <pt x="285" y="1912" on="1"/>
        <pt x="344" y="1871" on="0"/>
        <pt x="417" y="1871" on="1"/>
        <pt x="534" y="1871" on="0"/>
        <pt x="607" y="1954" on="1"/>
        <pt x="640" y="1991" on="0"/>
        <pt x="659" y="2038" on="1"/>
        <pt x="789" y="2020" on="1"/>
        <pt x="789" y="1925" on="0"/>
        <pt x="717" y="1830" on="1"/>
        <pt x="621" y="1704" on="0"/>
      </contour>
    </TTGlyph>
    <TTGlyph name="Icircumflex" xMin="26" yMin="0" xMax="813" yMax="2040">
      <contour>
        <pt x="564" y="127" on="0"/>
        <pt x="609" y="110" on="0"/>
        <pt x="664" y="110" on="0"/>
        <pt x="739" y="125" on="1"/>
        <pt x="727" y="0" on="1"/>
        <pt x="114" y="0" on="1"/>
        <pt x="125" y="110" on="1"/>
        <pt x="223" y="110" on="0"/>
        <pt x="267" y="156" on="1"/>
        <pt x="318" y="211" on="0"/>
        <pt x="318" y="341" on="1"/>
        <pt x="317" y="1214" on="1"/>
        <pt x="317" y="1384" on="0"/>
        <pt x="266" y="1407" on="1"/>
        <pt x="250" y="1414" on="0"/>
        <pt x="229" y="1414" on="1"/>
        <pt x="170" y="1414" on="0"/>
        <pt x="122" y="1405" on="1"/>
        <pt x="138" y="1530" on="1"/>
        <pt x="723" y="1530" on="1"/>
        <pt x="707" y="1414" on="1"/>
        <pt x="594" y="1414" on="0"/>
        <pt x="563" y="1376" on="1"/>
        <pt x="534" y="1342" on="0"/>
        <pt x="534" y="1221" on="1"/>
        <pt x="534" y="271" on="1"/>
        <pt x="534" y="175" on="0"/>
      </contour>
      <contour>
        <pt x="26" y="1767" on="1"/>
        <pt x="422" y="2040" on="1"/>
        <pt x="813" y="1775" on="1"/>
        <pt x="749" y="1664" on="1"/>
        <pt x="422" y="1821" on="1"/>
        <pt x="422" y="1821" on="0"/>
        <pt x="83" y="1664" on="1"/>
      </contour>
    </TTGlyph>
    <TTGlyph name="Idieresis" xMin="49" yMin="0" xMax="806" yMax="2029">
      <contour>
        <pt x="564" y="127" on="0"/>
        <pt x="609" y="110" on="0"/>
        <pt x="664" y="110" on="0"/>
        <pt x="739" y="125" on="1"/>
        <pt x="727" y="0" on="1"/>
        <pt x="114" y="0" on="1"/>
        <pt x="125" y="110" on="1"/>
        <pt x="223" y="110" on="0"/>
        <pt x="267" y="156" on="1"/>
        <pt x="318" y="211" on="0"/>
        <pt x="318" y="341" on="1"/>
        <pt x="317" y="1214" on="1"/>
        <pt x="317" y="1384" on="0"/>
        <pt x="266" y="1407" on="1"/>
        <pt x="250" y="1414" on="0"/>
        <pt x="229" y="1414" on="1"/>
        <pt x="170" y="1414" on="0"/>
        <pt x="122" y="1405" on="1"/>
        <pt x="138" y="1530" on="1"/>
        <pt x="723" y="1530" on="1"/>
        <pt x="707" y="1414" on="1"/>
        <pt x="594" y="1414" on="0"/>
        <pt x="563" y="1376" on="1"/>
        <pt x="534" y="1342" on="0"/>
        <pt x="534" y="1221" on="1"/>
        <pt x="534" y="271" on="1"/>
        <pt x="534" y="175" on="0"/>
      </contour>
      <contour>
        <pt x="744" y="1758" on="0"/>
        <pt x="691" y="1736" on="0"/>
        <pt x="628" y="1736" on="0"/>
        <pt x="572" y="1758" on="0"/>
        <pt x="552" y="1778" on="1"/>
        <pt x="508" y="1819" on="0"/>
        <pt x="508" y="1910" on="0"/>
        <pt x="531" y="1965" on="0"/>
        <pt x="552" y="1986" on="1"/>
        <pt x="595" y="2029" on="0"/>
        <pt x="660" y="2029" on="1"/>
        <pt x="756" y="2029" on="0"/>
        <pt x="794" y="1938" on="1"/>
        <pt x="806" y="1910" on="0"/>
        <pt x="806" y="1849" on="0"/>
        <pt x="783" y="1797" on="0"/>
      </contour>
      <contour>
        <pt x="287" y="1758" on="0"/>
        <pt x="234" y="1736" on="0"/>
        <pt x="171" y="1736" on="0"/>
        <pt x="114" y="1758" on="0"/>
        <pt x="94" y="1778" on="1"/>
        <pt x="49" y="1820" on="0"/>
        <pt x="49" y="1910" on="0"/>
        <pt x="73" y="1965" on="0"/>
        <pt x="94" y="1986" on="1"/>
        <pt x="137" y="2029" on="0"/>
        <pt x="204" y="2029" on="1"/>
        <pt x="299" y="2029" on="0"/>
        <pt x="336" y="1938" on="1"/>
        <pt x="347" y="1910" on="0"/>
        <pt x="347" y="1849" on="0"/>
        <pt x="325" y="1797" on="0"/>
      </contour>
    </TTGlyph>
    <TTGlyph name="Idotaccent" xMin="114" yMin="0" xMax="739" yMax="2037">
      <contour>
        <pt x="564" y="127" on="0"/>
        <pt x="609" y="110" on="0"/>
        <pt x="664" y="110" on="0"/>
        <pt x="739" y="125" on="1"/>
        <pt x="727" y="0" on="1"/>
        <pt x="114" y="0" on="1"/>
        <pt x="125" y="110" on="1"/>
        <pt x="223" y="110" on="0"/>
        <pt x="267" y="156" on="1"/>
        <pt x="318" y="211" on="0"/>
        <pt x="318" y="341" on="1"/>
        <pt x="317" y="1214" on="1"/>
        <pt x="317" y="1384" on="0"/>
        <pt x="266" y="1407" on="1"/>
        <pt x="250" y="1414" on="0"/>
        <pt x="229" y="1414" on="1"/>
        <pt x="170" y="1414" on="0"/>
        <pt x="122" y="1405" on="1"/>
        <pt x="138" y="1530" on="1"/>
        <pt x="723" y="1530" on="1"/>
        <pt x="707" y="1414" on="1"/>
        <pt x="594" y="1414" on="0"/>
        <pt x="563" y="1376" on="1"/>
        <pt x="534" y="1342" on="0"/>
        <pt x="534" y="1221" on="1"/>
        <pt x="534" y="271" on="1"/>
        <pt x="534" y="175" on="0"/>
      </contour>
      <contour>
        <pt x="268" y="1815" on="0"/>
        <pt x="268" y="1913" on="0"/>
        <pt x="293" y="1971" on="0"/>
        <pt x="315" y="1992" on="1"/>
        <pt x="362" y="2037" on="0"/>
        <pt x="430" y="2037" on="1"/>
        <pt x="495" y="2037" on="0"/>
        <pt x="539" y="1992" on="1"/>
        <pt x="583" y="1946" on="0"/>
        <pt x="583" y="1879" on="1"/>
        <pt x="583" y="1815" on="0"/>
        <pt x="539" y="1772" on="1"/>
        <pt x="494" y="1729" on="0"/>
        <pt x="445" y="1729" on="1"/>
        <pt x="362" y="1729" on="0"/>
      </contour>
    </TTGlyph>
    <TTGlyph name="Igrave" xMin="-18" yMin="0" xMax="739" yMax="2041">
      <contour>
        <pt x="564" y="127" on="0"/>
        <pt x="609" y="110" on="0"/>
        <pt x="664" y="110" on="0"/>
        <pt x="739" y="125" on="1"/>
        <pt x="727" y="0" on="1"/>
        <pt x="114" y="0" on="1"/>
        <pt x="125" y="110" on="1"/>
        <pt x="223" y="110" on="0"/>
        <pt x="267" y="156" on="1"/>
        <pt x="318" y="211" on="0"/>
        <pt x="318" y="341" on="1"/>
        <pt x="317" y="1214" on="1"/>
        <pt x="317" y="1384" on="0"/>
        <pt x="266" y="1407" on="1"/>
        <pt x="250" y="1414" on="0"/>
        <pt x="229" y="1414" on="1"/>
        <pt x="170" y="1414" on="0"/>
        <pt x="122" y="1405" on="1"/>
        <pt x="138" y="1530" on="1"/>
        <pt x="723" y="1530" on="1"/>
        <pt x="707" y="1414" on="1"/>
        <pt x="594" y="1414" on="0"/>
        <pt x="563" y="1376" on="1"/>
        <pt x="534" y="1342" on="0"/>
        <pt x="534" y="1221" on="1"/>
        <pt x="534" y="271" on="1"/>
        <pt x="534" y="175" on="0"/>
      </contour>
      <contour>
        <pt x="54" y="2041" on="1"/>
        <pt x="617" y="1781" on="1"/>
        <pt x="578" y="1663" on="1"/>
        <pt x="-18" y="1848" on="1"/>
      </contour>
    </TTGlyph>
    <TTGlyph name="Imacron" xMin="88" yMin="2" xMax="759" yMax="1972">
      <contour>
        <pt x="107" y="1972" on="1"/>
        <pt x="759" y="1972" on="1"/>
        <pt x="740" y="1815" on="1"/>
        <pt x="88" y="1815" on="1"/>
      </contour>
      <contour>
        <pt x="565" y="129" on="0"/>
        <pt x="610" y="112" on="0"/>
        <pt x="665" y="112" on="0"/>
        <pt x="740" y="127" on="1"/>
        <pt x="728" y="2" on="1"/>
        <pt x="115" y="2" on="1"/>
        <pt x="126" y="112" on="1"/>
        <pt x="224" y="112" on="0"/>
        <pt x="268" y="158" on="1"/>
        <pt x="319" y="213" on="0"/>
        <pt x="319" y="343" on="1"/>
        <pt x="318" y="1216" on="1"/>
        <pt x="318" y="1386" on="0"/>
        <pt x="266" y="1409" on="1"/>
        <pt x="251" y="1416" on="0"/>
        <pt x="230" y="1416" on="1"/>
        <pt x="171" y="1416" on="0"/>
        <pt x="123" y="1407" on="1"/>
        <pt x="139" y="1532" on="1"/>
        <pt x="724" y="1532" on="1"/>
        <pt x="708" y="1416" on="1"/>
        <pt x="595" y="1416" on="0"/>
        <pt x="564" y="1378" on="1"/>
        <pt x="535" y="1344" on="0"/>
        <pt x="535" y="1223" on="1"/>
        <pt x="535" y="273" on="1"/>
        <pt x="535" y="177" on="0"/>
      </contour>
    </TTGlyph>
    <TTGlyph name="Iogonek" xMin="115" yMin="-509" xMax="740" yMax="1532">
      <contour>
        <pt x="125" y="-286" on="1"/>
        <pt x="125" y="-123" on="0"/>
        <pt x="306" y="2" on="1"/>
        <pt x="115" y="2" on="1"/>
        <pt x="126" y="112" on="1"/>
        <pt x="224" y="112" on="0"/>
        <pt x="268" y="158" on="1"/>
        <pt x="319" y="213" on="0"/>
        <pt x="319" y="343" on="1"/>
        <pt x="318" y="1216" on="1"/>
        <pt x="318" y="1386" on="0"/>
        <pt x="266" y="1409" on="1"/>
        <pt x="251" y="1416" on="0"/>
        <pt x="230" y="1416" on="1"/>
        <pt x="171" y="1416" on="0"/>
        <pt x="123" y="1407" on="1"/>
        <pt x="139" y="1532" on="1"/>
        <pt x="724" y="1532" on="1"/>
        <pt x="708" y="1416" on="1"/>
        <pt x="595" y="1416" on="0"/>
        <pt x="564" y="1378" on="1"/>
        <pt x="535" y="1344" on="0"/>
        <pt x="535" y="1223" on="1"/>
        <pt x="535" y="273" on="1"/>
        <pt x="535" y="177" on="0"/>
        <pt x="550" y="153" on="1"/>
        <pt x="576" y="112" on="0"/>
        <pt x="648" y="112" on="1"/>
        <pt x="665" y="112" on="0"/>
        <pt x="740" y="127" on="1"/>
        <pt x="728" y="2" on="1"/>
        <pt x="538" y="2" on="1"/>
        <pt x="542" y="1" on="0"/>
        <pt x="546" y="1" on="1"/>
        <pt x="552" y="1" on="1"/>
        <pt x="555" y="1" on="0"/>
        <pt x="557" y="0" on="1"/>
        <pt x="484" y="-9" on="0"/>
        <pt x="374" y="-94" on="0"/>
        <pt x="320" y="-183" on="0"/>
        <pt x="320" y="-277" on="0"/>
        <pt x="346" y="-326" on="0"/>
        <pt x="368" y="-342" on="1"/>
        <pt x="412" y="-374" on="0"/>
        <pt x="536" y="-374" on="0"/>
        <pt x="598" y="-346" on="1"/>
        <pt x="598" y="-441" on="1"/>
        <pt x="560" y="-472" on="0"/>
        <pt x="441" y="-509" on="0"/>
        <pt x="332" y="-509" on="0"/>
        <pt x="240" y="-479" on="0"/>
        <pt x="204" y="-450" on="1"/>
        <pt x="125" y="-388" on="0"/>
      </contour>
    </TTGlyph>
    <TTGlyph name="Itilde" xMin="11" yMin="0" xMax="828" yMax="1970">
      <contour>
        <pt x="564" y="127" on="0"/>
        <pt x="609" y="110" on="0"/>
        <pt x="664" y="110" on="0"/>
        <pt x="739" y="125" on="1"/>
        <pt x="727" y="0" on="1"/>
        <pt x="114" y="0" on="1"/>
        <pt x="125" y="110" on="1"/>
        <pt x="223" y="110" on="0"/>
        <pt x="267" y="156" on="1"/>
        <pt x="318" y="211" on="0"/>
        <pt x="318" y="341" on="1"/>
        <pt x="317" y="1214" on="1"/>
        <pt x="317" y="1384" on="0"/>
        <pt x="266" y="1407" on="1"/>
        <pt x="250" y="1414" on="0"/>
        <pt x="229" y="1414" on="1"/>
        <pt x="170" y="1414" on="0"/>
        <pt x="122" y="1405" on="1"/>
        <pt x="138" y="1530" on="1"/>
        <pt x="723" y="1530" on="1"/>
        <pt x="707" y="1414" on="1"/>
        <pt x="594" y="1414" on="0"/>
        <pt x="563" y="1376" on="1"/>
        <pt x="534" y="1342" on="0"/>
        <pt x="534" y="1221" on="1"/>
        <pt x="534" y="271" on="1"/>
        <pt x="534" y="175" on="0"/>
      </contour>
      <contour>
        <pt x="11" y="1782" on="1"/>
        <pt x="14" y="1795" on="0"/>
        <pt x="55" y="1857" on="0"/>
        <pt x="92" y="1889" on="1"/>
        <pt x="184" y="1970" on="0"/>
        <pt x="291" y="1970" on="1"/>
        <pt x="345" y="1970" on="0"/>
        <pt x="432" y="1926" on="0"/>
        <pt x="466" y="1904" on="1"/>
        <pt x="551" y="1847" on="0"/>
        <pt x="609" y="1847" on="0"/>
        <pt x="647" y="1859" on="0"/>
        <pt x="664" y="1872" on="1"/>
        <pt x="695" y="1895" on="0"/>
        <pt x="739" y="1949" on="1"/>
        <pt x="828" y="1852" on="1"/>
        <pt x="817" y="1805" on="0"/>
        <pt x="771" y="1759" on="1"/>
        <pt x="675" y="1663" on="0"/>
        <pt x="567" y="1663" on="1"/>
        <pt x="522" y="1663" on="0"/>
        <pt x="432" y="1707" on="0"/>
        <pt x="394" y="1730" on="1"/>
        <pt x="295" y="1787" on="0"/>
        <pt x="239" y="1787" on="0"/>
        <pt x="202" y="1775" on="0"/>
        <pt x="184" y="1762" on="1"/>
        <pt x="156" y="1742" on="0"/>
        <pt x="110" y="1685" on="1"/>
      </contour>
    </TTGlyph>
    <TTGlyph name="J" xMin="74" yMin="-386" xMax="749" yMax="1530">
      <contour>
        <pt x="74" y="-310" on="1"/>
        <pt x="212" y="-163" on="0"/>
        <pt x="280" y="66" on="1"/>
        <pt x="329" y="233" on="0"/>
        <pt x="329" y="396" on="1"/>
        <pt x="329" y="1177" on="1"/>
        <pt x="329" y="1323" on="0"/>
        <pt x="300" y="1397" on="0"/>
        <pt x="267" y="1414" on="0"/>
        <pt x="237" y="1414" on="1"/>
        <pt x="157" y="1414" on="0"/>
        <pt x="121" y="1406" on="1"/>
        <pt x="122" y="1405" on="0"/>
        <pt x="122" y="1403" on="1"/>
        <pt x="110" y="1404" on="1"/>
        <pt x="128" y="1530" on="1"/>
        <pt x="749" y="1530" on="1"/>
        <pt x="734" y="1414" on="1"/>
        <pt x="625" y="1414" on="0"/>
        <pt x="565" y="1365" on="0"/>
        <pt x="545" y="1296" on="0"/>
        <pt x="545" y="1240" on="1"/>
        <pt x="545" y="332" on="1"/>
        <pt x="545" y="188" on="0"/>
        <pt x="505" y="39" on="0"/>
        <pt x="451" y="-71" on="0"/>
        <pt x="407" y="-130" on="1"/>
        <pt x="321" y="-243" on="0"/>
        <pt x="149" y="-386" on="1"/>
        <pt x="74" y="-312" on="1"/>
      </contour>
    </TTGlyph>
    <TTGlyph name="Jcircumflex" xMin="47" yMin="-386" xMax="834" yMax="2040">
      <contour>
        <pt x="74" y="-310" on="1"/>
        <pt x="212" y="-163" on="0"/>
        <pt x="280" y="66" on="1"/>
        <pt x="329" y="233" on="0"/>
        <pt x="329" y="396" on="1"/>
        <pt x="329" y="1177" on="1"/>
        <pt x="329" y="1323" on="0"/>
        <pt x="300" y="1397" on="0"/>
        <pt x="267" y="1414" on="0"/>
        <pt x="237" y="1414" on="1"/>
        <pt x="157" y="1414" on="0"/>
        <pt x="121" y="1406" on="1"/>
        <pt x="122" y="1405" on="0"/>
        <pt x="122" y="1403" on="1"/>
        <pt x="110" y="1404" on="1"/>
        <pt x="128" y="1530" on="1"/>
        <pt x="749" y="1530" on="1"/>
        <pt x="734" y="1414" on="1"/>
        <pt x="625" y="1414" on="0"/>
        <pt x="565" y="1365" on="0"/>
        <pt x="545" y="1296" on="0"/>
        <pt x="545" y="1240" on="1"/>
        <pt x="545" y="332" on="1"/>
        <pt x="545" y="188" on="0"/>
        <pt x="505" y="39" on="0"/>
        <pt x="451" y="-71" on="0"/>
        <pt x="407" y="-130" on="1"/>
        <pt x="321" y="-243" on="0"/>
        <pt x="149" y="-386" on="1"/>
        <pt x="74" y="-312" on="1"/>
      </contour>
      <contour>
        <pt x="47" y="1767" on="1"/>
        <pt x="443" y="2040" on="1"/>
        <pt x="834" y="1775" on="1"/>
        <pt x="770" y="1664" on="1"/>
        <pt x="443" y="1821" on="1"/>
        <pt x="443" y="1821" on="0"/>
        <pt x="104" y="1664" on="1"/>
      </contour>
    </TTGlyph>
    <TTGlyph name="K" xMin="119" yMin="0" xMax="1510" yMax="1530">
      <contour>
        <pt x="1435" y="1412" on="1"/>
        <pt x="1421" y="1416" on="0"/>
        <pt x="1410" y="1416" on="0"/>
        <pt x="1362" y="1414" on="0"/>
        <pt x="1317" y="1399" on="0"/>
        <pt x="1286" y="1378" on="1"/>
        <pt x="1215" y="1327" on="0"/>
        <pt x="1123" y="1221" on="1"/>
        <pt x="763" y="806" on="1"/>
        <pt x="910" y="702" on="0"/>
        <pt x="1108" y="460" on="1"/>
        <pt x="1161" y="394" on="0"/>
        <pt x="1236" y="287" on="0"/>
        <pt x="1302" y="202" on="0"/>
        <pt x="1332" y="172" on="1"/>
        <pt x="1392" y="112" on="0"/>
        <pt x="1477" y="112" on="0"/>
        <pt x="1510" y="121" on="1"/>
        <pt x="1506" y="0" on="1"/>
        <pt x="1271" y="0" on="1"/>
        <pt x="1161" y="0" on="0"/>
        <pt x="1070" y="115" on="1"/>
        <pt x="1039" y="154" on="0"/>
        <pt x="1012" y="200" on="1"/>
        <pt x="931" y="332" on="0"/>
        <pt x="893" y="388" on="1"/>
        <pt x="818" y="496" on="1"/>
        <pt x="690" y="672" on="0"/>
        <pt x="606" y="737" on="1"/>
        <pt x="513" y="737" on="1"/>
        <pt x="513" y="300" on="1"/>
        <pt x="513" y="200" on="0"/>
        <pt x="526" y="168" on="1"/>
        <pt x="551" y="110" on="0"/>
        <pt x="614" y="110" on="1"/>
        <pt x="655" y="110" on="0"/>
        <pt x="716" y="124" on="1"/>
        <pt x="703" y="0" on="1"/>
        <pt x="131" y="0" on="1"/>
        <pt x="143" y="110" on="1"/>
        <pt x="240" y="110" on="0"/>
        <pt x="268" y="150" on="1"/>
        <pt x="296" y="190" on="0"/>
        <pt x="296" y="331" on="1"/>
        <pt x="296" y="1222" on="1"/>
        <pt x="296" y="1330" on="0"/>
        <pt x="271" y="1393" on="0"/>
        <pt x="239" y="1414" on="0"/>
        <pt x="206" y="1414" on="0"/>
        <pt x="182" y="1413" on="0"/>
        <pt x="168" y="1412" on="1"/>
        <pt x="142" y="1410" on="1"/>
        <pt x="129" y="1409" on="0"/>
        <pt x="119" y="1408" on="1"/>
        <pt x="137" y="1530" on="1"/>
        <pt x="678" y="1530" on="1"/>
        <pt x="663" y="1414" on="1"/>
        <pt x="577" y="1414" on="0"/>
        <pt x="552" y="1388" on="1"/>
        <pt x="513" y="1345" on="0"/>
        <pt x="513" y="1232" on="1"/>
        <pt x="513" y="852" on="1"/>
        <pt x="582" y="852" on="1"/>
        <pt x="616" y="852" on="0"/>
        <pt x="637" y="869" on="1"/>
        <pt x="920" y="1194" on="1"/>
        <pt x="961" y="1242" on="0"/>
        <pt x="970" y="1257" on="1"/>
        <pt x="989" y="1288" on="0"/>
        <pt x="1003" y="1306" on="1"/>
        <pt x="1042" y="1352" on="0"/>
        <pt x="1042" y="1371" on="1"/>
        <pt x="1042" y="1421" on="0"/>
        <pt x="988" y="1421" on="1"/>
        <pt x="939" y="1421" on="0"/>
        <pt x="897" y="1412" on="1"/>
        <pt x="914" y="1530" on="1"/>
        <pt x="1453" y="1530" on="1"/>
      </contour>
    </TTGlyph>
    <TTGlyph name="Kcommaaccent" xMin="119" yMin="-518" xMax="1510" yMax="1530">
      <contour>
        <pt x="1435" y="1412" on="1"/>
        <pt x="1421" y="1416" on="0"/>
        <pt x="1410" y="1416" on="0"/>
        <pt x="1362" y="1414" on="0"/>
        <pt x="1317" y="1399" on="0"/>
        <pt x="1286" y="1378" on="1"/>
        <pt x="1215" y="1327" on="0"/>
        <pt x="1123" y="1221" on="1"/>
        <pt x="763" y="806" on="1"/>
        <pt x="910" y="702" on="0"/>
        <pt x="1108" y="460" on="1"/>
        <pt x="1161" y="394" on="0"/>
        <pt x="1236" y="287" on="0"/>
        <pt x="1302" y="202" on="0"/>
        <pt x="1332" y="172" on="1"/>
        <pt x="1392" y="112" on="0"/>
        <pt x="1477" y="112" on="0"/>
        <pt x="1510" y="121" on="1"/>
        <pt x="1506" y="0" on="1"/>
        <pt x="1271" y="0" on="1"/>
        <pt x="1161" y="0" on="0"/>
        <pt x="1070" y="115" on="1"/>
        <pt x="1039" y="154" on="0"/>
        <pt x="1012" y="200" on="1"/>
        <pt x="931" y="332" on="0"/>
        <pt x="893" y="388" on="1"/>
        <pt x="818" y="496" on="1"/>
        <pt x="690" y="672" on="0"/>
        <pt x="606" y="737" on="1"/>
        <pt x="513" y="737" on="1"/>
        <pt x="513" y="300" on="1"/>
        <pt x="513" y="200" on="0"/>
        <pt x="526" y="168" on="1"/>
        <pt x="551" y="110" on="0"/>
        <pt x="614" y="110" on="1"/>
        <pt x="655" y="110" on="0"/>
        <pt x="716" y="124" on="1"/>
        <pt x="703" y="0" on="1"/>
        <pt x="131" y="0" on="1"/>
        <pt x="143" y="110" on="1"/>
        <pt x="240" y="110" on="0"/>
        <pt x="268" y="150" on="1"/>
        <pt x="296" y="190" on="0"/>
        <pt x="296" y="331" on="1"/>
        <pt x="296" y="1222" on="1"/>
        <pt x="296" y="1330" on="0"/>
        <pt x="271" y="1393" on="0"/>
        <pt x="239" y="1414" on="0"/>
        <pt x="206" y="1414" on="0"/>
        <pt x="182" y="1413" on="0"/>
        <pt x="168" y="1412" on="1"/>
        <pt x="142" y="1410" on="1"/>
        <pt x="129" y="1409" on="0"/>
        <pt x="119" y="1408" on="1"/>
        <pt x="137" y="1530" on="1"/>
        <pt x="678" y="1530" on="1"/>
        <pt x="663" y="1414" on="1"/>
        <pt x="577" y="1414" on="0"/>
        <pt x="552" y="1388" on="1"/>
        <pt x="513" y="1345" on="0"/>
        <pt x="513" y="1232" on="1"/>
        <pt x="513" y="852" on="1"/>
        <pt x="582" y="852" on="1"/>
        <pt x="616" y="852" on="0"/>
        <pt x="637" y="869" on="1"/>
        <pt x="920" y="1194" on="1"/>
        <pt x="961" y="1242" on="0"/>
        <pt x="970" y="1257" on="1"/>
        <pt x="989" y="1288" on="0"/>
        <pt x="1003" y="1306" on="1"/>
        <pt x="1042" y="1352" on="0"/>
        <pt x="1042" y="1371" on="1"/>
        <pt x="1042" y="1421" on="0"/>
        <pt x="988" y="1421" on="1"/>
        <pt x="939" y="1421" on="0"/>
        <pt x="897" y="1412" on="1"/>
        <pt x="914" y="1530" on="1"/>
        <pt x="1453" y="1530" on="1"/>
      </contour>
      <contour>
        <pt x="831" y="-59" on="1"/>
        <pt x="988" y="-59" on="0"/>
        <pt x="988" y="-214" on="1"/>
        <pt x="988" y="-332" on="0"/>
        <pt x="919" y="-432" on="1"/>
        <pt x="891" y="-472" on="0"/>
        <pt x="833" y="-518" on="0"/>
        <pt x="815" y="-518" on="1"/>
        <pt x="784" y="-518" on="0"/>
        <pt x="754" y="-487" on="0"/>
        <pt x="750" y="-475" on="1"/>
        <pt x="805" y="-422" on="0"/>
        <pt x="803" y="-339" on="1"/>
        <pt x="682" y="-327" on="0"/>
        <pt x="682" y="-204" on="1"/>
        <pt x="682" y="-144" on="0"/>
        <pt x="722" y="-102" on="1"/>
        <pt x="763" y="-59" on="0"/>
      </contour>
    </TTGlyph>
    <TTGlyph name="L" xMin="62" yMin="0" xMax="1278" yMax="1530">
      <contour>
        <pt x="1273" y="447" on="1"/>
        <pt x="1278" y="392" on="0"/>
        <pt x="1278" y="333" on="1"/>
        <pt x="1278" y="250" on="0"/>
        <pt x="1260" y="152" on="1"/>
        <pt x="1236" y="26" on="0"/>
        <pt x="1234" y="0" on="1"/>
        <pt x="62" y="0" on="1"/>
        <pt x="74" y="115" on="1"/>
        <pt x="170" y="113" on="0"/>
        <pt x="208" y="154" on="1"/>
        <pt x="253" y="201" on="0"/>
        <pt x="253" y="331" on="1"/>
        <pt x="252" y="1248" on="1"/>
        <pt x="252" y="1356" on="0"/>
        <pt x="224" y="1404" on="0"/>
        <pt x="193" y="1414" on="0"/>
        <pt x="138" y="1414" on="0"/>
        <pt x="118" y="1410" on="1"/>
        <pt x="94" y="1404" on="0"/>
        <pt x="86" y="1404" on="1"/>
        <pt x="102" y="1530" on="1"/>
        <pt x="702" y="1530" on="1"/>
        <pt x="688" y="1413" on="1"/>
        <pt x="559" y="1413" on="0"/>
        <pt x="495" y="1373" on="0"/>
        <pt x="472" y="1309" on="0"/>
        <pt x="472" y="1254" on="1"/>
        <pt x="473" y="1223" on="1"/>
        <pt x="473" y="280" on="1"/>
        <pt x="473" y="132" on="0"/>
        <pt x="571" y="115" on="1"/>
        <pt x="600" y="110" on="0"/>
        <pt x="633" y="110" on="1"/>
        <pt x="798" y="110" on="1"/>
        <pt x="1073" y="110" on="0"/>
        <pt x="1126" y="321" on="1"/>
        <pt x="1142" y="382" on="0"/>
        <pt x="1149" y="447" on="1"/>
      </contour>
    </TTGlyph>
    <TTGlyph name="Lacute" xMin="62" yMin="0" xMax="1278" yMax="2041">
      <contour>
        <pt x="1273" y="447" on="1"/>
        <pt x="1278" y="392" on="0"/>
        <pt x="1278" y="333" on="1"/>
        <pt x="1278" y="250" on="0"/>
        <pt x="1260" y="152" on="1"/>
        <pt x="1236" y="26" on="0"/>
        <pt x="1234" y="0" on="1"/>
        <pt x="62" y="0" on="1"/>
        <pt x="74" y="115" on="1"/>
        <pt x="170" y="113" on="0"/>
        <pt x="208" y="154" on="1"/>
        <pt x="253" y="201" on="0"/>
        <pt x="253" y="331" on="1"/>
        <pt x="252" y="1248" on="1"/>
        <pt x="252" y="1356" on="0"/>
        <pt x="224" y="1404" on="0"/>
        <pt x="193" y="1414" on="0"/>
        <pt x="138" y="1414" on="0"/>
        <pt x="118" y="1410" on="1"/>
        <pt x="94" y="1404" on="0"/>
        <pt x="86" y="1404" on="1"/>
        <pt x="102" y="1530" on="1"/>
        <pt x="702" y="1530" on="1"/>
        <pt x="688" y="1413" on="1"/>
        <pt x="559" y="1413" on="0"/>
        <pt x="495" y="1373" on="0"/>
        <pt x="472" y="1309" on="0"/>
        <pt x="472" y="1254" on="1"/>
        <pt x="473" y="1223" on="1"/>
        <pt x="473" y="280" on="1"/>
        <pt x="473" y="132" on="0"/>
        <pt x="571" y="115" on="1"/>
        <pt x="600" y="110" on="0"/>
        <pt x="633" y="110" on="1"/>
        <pt x="798" y="110" on="1"/>
        <pt x="1073" y="110" on="0"/>
        <pt x="1126" y="321" on="1"/>
        <pt x="1142" y="382" on="0"/>
        <pt x="1149" y="447" on="1"/>
      </contour>
      <contour>
        <pt x="394" y="1781" on="1"/>
        <pt x="957" y="2041" on="1"/>
        <pt x="1029" y="1848" on="1"/>
        <pt x="433" y="1663" on="1"/>
      </contour>
    </TTGlyph>
    <TTGlyph name="Lcaron" xMin="63" yMin="2" xMax="1279" yMax="1720">
      <contour>
        <pt x="884" y="1157" on="1"/>
        <pt x="995" y="1274" on="0"/>
        <pt x="998" y="1391" on="1"/>
        <pt x="937" y="1399" on="0"/>
        <pt x="896" y="1445" on="1"/>
        <pt x="855" y="1492" on="0"/>
        <pt x="855" y="1589" on="0"/>
        <pt x="881" y="1649" on="0"/>
        <pt x="904" y="1672" on="1"/>
        <pt x="954" y="1720" on="0"/>
        <pt x="1062" y="1720" on="0"/>
        <pt x="1123" y="1691" on="0"/>
        <pt x="1144" y="1664" on="1"/>
        <pt x="1185" y="1611" on="0"/>
        <pt x="1185" y="1472" on="0"/>
        <pt x="1160" y="1372" on="0"/>
        <pt x="1120" y="1283" on="0"/>
        <pt x="1071" y="1208" on="0"/>
        <pt x="1047" y="1181" on="1"/>
        <pt x="996" y="1124" on="0"/>
        <pt x="973" y="1124" on="1"/>
        <pt x="920" y="1124" on="0"/>
      </contour>
      <contour>
        <pt x="1274" y="449" on="1"/>
        <pt x="1279" y="394" on="0"/>
        <pt x="1279" y="335" on="1"/>
        <pt x="1279" y="252" on="0"/>
        <pt x="1260" y="154" on="1"/>
        <pt x="1237" y="28" on="0"/>
        <pt x="1235" y="2" on="1"/>
        <pt x="63" y="2" on="1"/>
        <pt x="75" y="117" on="1"/>
        <pt x="171" y="115" on="0"/>
        <pt x="210" y="156" on="1"/>
        <pt x="254" y="203" on="0"/>
        <pt x="254" y="333" on="1"/>
        <pt x="253" y="1250" on="1"/>
        <pt x="253" y="1358" on="0"/>
        <pt x="225" y="1406" on="0"/>
        <pt x="194" y="1416" on="0"/>
        <pt x="139" y="1416" on="0"/>
        <pt x="119" y="1412" on="1"/>
        <pt x="95" y="1406" on="0"/>
        <pt x="87" y="1406" on="1"/>
        <pt x="103" y="1532" on="1"/>
        <pt x="703" y="1532" on="1"/>
        <pt x="689" y="1415" on="1"/>
        <pt x="560" y="1415" on="0"/>
        <pt x="496" y="1375" on="0"/>
        <pt x="473" y="1311" on="0"/>
        <pt x="473" y="1256" on="1"/>
        <pt x="474" y="1225" on="1"/>
        <pt x="474" y="282" on="1"/>
        <pt x="474" y="134" on="0"/>
        <pt x="572" y="117" on="1"/>
        <pt x="601" y="112" on="0"/>
        <pt x="634" y="112" on="1"/>
        <pt x="799" y="112" on="1"/>
        <pt x="1074" y="112" on="0"/>
        <pt x="1128" y="323" on="1"/>
        <pt x="1143" y="384" on="0"/>
        <pt x="1150" y="449" on="1"/>
      </contour>
    </TTGlyph>
    <TTGlyph name="Lcommaaccent" xMin="62" yMin="-518" xMax="1278" yMax="1530">
      <contour>
        <pt x="1273" y="447" on="1"/>
        <pt x="1278" y="392" on="0"/>
        <pt x="1278" y="333" on="1"/>
        <pt x="1278" y="250" on="0"/>
        <pt x="1260" y="152" on="1"/>
        <pt x="1236" y="26" on="0"/>
        <pt x="1234" y="0" on="1"/>
        <pt x="62" y="0" on="1"/>
        <pt x="74" y="115" on="1"/>
        <pt x="170" y="113" on="0"/>
        <pt x="208" y="154" on="1"/>
        <pt x="253" y="201" on="0"/>
        <pt x="253" y="331" on="1"/>
        <pt x="252" y="1248" on="1"/>
        <pt x="252" y="1356" on="0"/>
        <pt x="224" y="1404" on="0"/>
        <pt x="193" y="1414" on="0"/>
        <pt x="138" y="1414" on="0"/>
        <pt x="118" y="1410" on="1"/>
        <pt x="94" y="1404" on="0"/>
        <pt x="86" y="1404" on="1"/>
        <pt x="102" y="1530" on="1"/>
        <pt x="702" y="1530" on="1"/>
        <pt x="688" y="1413" on="1"/>
        <pt x="559" y="1413" on="0"/>
        <pt x="495" y="1373" on="0"/>
        <pt x="472" y="1309" on="0"/>
        <pt x="472" y="1254" on="1"/>
        <pt x="473" y="1223" on="1"/>
        <pt x="473" y="280" on="1"/>
        <pt x="473" y="132" on="0"/>
        <pt x="571" y="115" on="1"/>
        <pt x="600" y="110" on="0"/>
        <pt x="633" y="110" on="1"/>
        <pt x="798" y="110" on="1"/>
        <pt x="1073" y="110" on="0"/>
        <pt x="1126" y="321" on="1"/>
        <pt x="1142" y="382" on="0"/>
        <pt x="1149" y="447" on="1"/>
      </contour>
      <contour>
        <pt x="638" y="-59" on="1"/>
        <pt x="795" y="-59" on="0"/>
        <pt x="795" y="-214" on="1"/>
        <pt x="795" y="-332" on="0"/>
        <pt x="726" y="-432" on="1"/>
        <pt x="698" y="-472" on="0"/>
        <pt x="640" y="-518" on="0"/>
        <pt x="622" y="-518" on="1"/>
        <pt x="591" y="-518" on="0"/>
        <pt x="561" y="-487" on="0"/>
        <pt x="557" y="-475" on="1"/>
        <pt x="612" y="-422" on="0"/>
        <pt x="610" y="-339" on="1"/>
        <pt x="489" y="-327" on="0"/>
        <pt x="489" y="-204" on="1"/>
        <pt x="489" y="-144" on="0"/>
        <pt x="529" y="-102" on="1"/>
        <pt x="570" y="-59" on="0"/>
      </contour>
    </TTGlyph>
    <TTGlyph name="Ldot" xMin="62" yMin="0" xMax="1282" yMax="1530">
      <contour>
        <pt x="1273" y="447" on="1"/>
        <pt x="1278" y="392" on="0"/>
        <pt x="1278" y="333" on="1"/>
        <pt x="1278" y="250" on="0"/>
        <pt x="1260" y="152" on="1"/>
        <pt x="1236" y="26" on="0"/>
        <pt x="1234" y="0" on="1"/>
        <pt x="62" y="0" on="1"/>
        <pt x="74" y="115" on="1"/>
        <pt x="170" y="113" on="0"/>
        <pt x="208" y="154" on="1"/>
        <pt x="253" y="201" on="0"/>
        <pt x="253" y="331" on="1"/>
        <pt x="252" y="1248" on="1"/>
        <pt x="252" y="1356" on="0"/>
        <pt x="224" y="1404" on="0"/>
        <pt x="193" y="1414" on="0"/>
        <pt x="138" y="1414" on="0"/>
        <pt x="118" y="1410" on="1"/>
        <pt x="94" y="1404" on="0"/>
        <pt x="86" y="1404" on="1"/>
        <pt x="102" y="1530" on="1"/>
        <pt x="702" y="1530" on="1"/>
        <pt x="688" y="1413" on="1"/>
        <pt x="559" y="1413" on="0"/>
        <pt x="495" y="1373" on="0"/>
        <pt x="472" y="1309" on="0"/>
        <pt x="472" y="1254" on="1"/>
        <pt x="473" y="1223" on="1"/>
        <pt x="473" y="280" on="1"/>
        <pt x="473" y="132" on="0"/>
        <pt x="571" y="115" on="1"/>
        <pt x="600" y="110" on="0"/>
        <pt x="633" y="110" on="1"/>
        <pt x="798" y="110" on="1"/>
        <pt x="1073" y="110" on="0"/>
        <pt x="1126" y="321" on="1"/>
        <pt x="1142" y="382" on="0"/>
        <pt x="1149" y="447" on="1"/>
      </contour>
      <contour>
        <pt x="1111" y="767" on="1"/>
        <pt x="1077" y="767" on="0"/>
        <pt x="1016" y="794" on="0"/>
        <pt x="993" y="816" on="1"/>
        <pt x="942" y="865" on="0"/>
        <pt x="942" y="934" on="1"/>
        <pt x="942" y="1004" on="0"/>
        <pt x="993" y="1053" on="1"/>
        <pt x="1043" y="1102" on="0"/>
        <pt x="1111" y="1102" on="1"/>
        <pt x="1181" y="1102" on="0"/>
        <pt x="1231" y="1053" on="1"/>
        <pt x="1282" y="1004" on="0"/>
        <pt x="1282" y="934" on="1"/>
        <pt x="1282" y="865" on="0"/>
        <pt x="1231" y="816" on="1"/>
        <pt x="1180" y="767" on="0"/>
      </contour>
    </TTGlyph>
    <TTGlyph name="Lslash" xMin="18" yMin="2" xMax="1279" yMax="1532">
      <contour>
        <pt x="1274" y="449" on="1"/>
        <pt x="1279" y="394" on="0"/>
        <pt x="1279" y="335" on="1"/>
        <pt x="1279" y="252" on="0"/>
        <pt x="1260" y="154" on="1"/>
        <pt x="1237" y="28" on="0"/>
        <pt x="1235" y="2" on="1"/>
        <pt x="63" y="2" on="1"/>
        <pt x="75" y="117" on="1"/>
        <pt x="171" y="115" on="0"/>
        <pt x="210" y="156" on="1"/>
        <pt x="254" y="203" on="0"/>
        <pt x="254" y="333" on="1"/>
        <pt x="253" y="633" on="1"/>
        <pt x="56" y="557" on="1"/>
        <pt x="18" y="700" on="1"/>
        <pt x="253" y="790" on="1"/>
        <pt x="253" y="1250" on="1"/>
        <pt x="253" y="1358" on="0"/>
        <pt x="225" y="1406" on="0"/>
        <pt x="194" y="1416" on="0"/>
        <pt x="139" y="1416" on="0"/>
        <pt x="119" y="1412" on="1"/>
        <pt x="95" y="1406" on="0"/>
        <pt x="87" y="1406" on="1"/>
        <pt x="103" y="1532" on="1"/>
        <pt x="703" y="1532" on="1"/>
        <pt x="689" y="1415" on="1"/>
        <pt x="560" y="1415" on="0"/>
        <pt x="496" y="1375" on="0"/>
        <pt x="473" y="1311" on="0"/>
        <pt x="473" y="1256" on="1"/>
        <pt x="474" y="1225" on="1"/>
        <pt x="474" y="875" on="1"/>
        <pt x="832" y="1013" on="1"/>
        <pt x="870" y="871" on="1"/>
        <pt x="474" y="718" on="1"/>
        <pt x="474" y="282" on="1"/>
        <pt x="474" y="134" on="0"/>
        <pt x="572" y="117" on="1"/>
        <pt x="601" y="112" on="0"/>
        <pt x="634" y="112" on="1"/>
        <pt x="799" y="112" on="1"/>
        <pt x="1074" y="112" on="0"/>
        <pt x="1128" y="323" on="1"/>
        <pt x="1143" y="384" on="0"/>
        <pt x="1150" y="449" on="1"/>
      </contour>
    </TTGlyph>
    <TTGlyph name="M" xMin="79" yMin="-17" xMax="2158" yMax="1530">
      <contour>
        <pt x="437" y="131" on="0"/>
        <pt x="477" y="114" on="0"/>
        <pt x="542" y="114" on="0"/>
        <pt x="629" y="129" on="1"/>
        <pt x="618" y="0" on="1"/>
        <pt x="79" y="0" on="1"/>
        <pt x="85" y="114" on="1"/>
        <pt x="170" y="112" on="0"/>
        <pt x="198" y="144" on="1"/>
        <pt x="245" y="197" on="0"/>
        <pt x="327" y="674" on="1"/>
        <pt x="419" y="1240" on="1"/>
        <pt x="426" y="1282" on="0"/>
        <pt x="426" y="1318" on="1"/>
        <pt x="426" y="1414" on="0"/>
        <pt x="346" y="1414" on="1"/>
        <pt x="291" y="1414" on="0"/>
        <pt x="243" y="1402" on="1"/>
        <pt x="259" y="1530" on="1"/>
        <pt x="711" y="1530" on="1"/>
        <pt x="726" y="1442" on="0"/>
        <pt x="771" y="1292" on="1"/>
        <pt x="870" y="972" on="0"/>
        <pt x="920" y="827" on="1"/>
        <pt x="1047" y="460" on="0"/>
        <pt x="1101" y="316" on="1"/>
        <pt x="1402" y="1204" on="0"/>
        <pt x="1480" y="1475" on="0"/>
        <pt x="1492" y="1530" on="1"/>
        <pt x="1941" y="1530" on="1"/>
        <pt x="1926" y="1414" on="1"/>
        <pt x="1828" y="1414" on="0"/>
        <pt x="1777" y="1388" on="0"/>
        <pt x="1761" y="1354" on="0"/>
        <pt x="1761" y="1334" on="1"/>
        <pt x="1761" y="1308" on="0"/>
        <pt x="1766" y="1265" on="1"/>
        <pt x="1785" y="1132" on="1"/>
        <pt x="1852" y="653" on="0"/>
        <pt x="1940" y="279" on="1"/>
        <pt x="1965" y="181" on="0"/>
        <pt x="1981" y="157" on="1"/>
        <pt x="2006" y="118" on="0"/>
        <pt x="2053" y="118" on="1"/>
        <pt x="2118" y="118" on="0"/>
        <pt x="2158" y="129" on="1"/>
        <pt x="2145" y="0" on="1"/>
        <pt x="1546" y="0" on="1"/>
        <pt x="1559" y="99" on="1"/>
        <pt x="1641" y="97" on="0"/>
        <pt x="1672" y="121" on="1"/>
        <pt x="1730" y="165" on="0"/>
        <pt x="1730" y="254" on="1"/>
        <pt x="1730" y="291" on="0"/>
        <pt x="1716" y="370" on="1"/>
        <pt x="1559" y="1248" on="1"/>
        <pt x="1276" y="410" on="1"/>
        <pt x="1210" y="211" on="0"/>
        <pt x="1154" y="13" on="1"/>
        <pt x="1108" y="13" on="0"/>
        <pt x="1006" y="-17" on="1"/>
        <pt x="568" y="1246" on="1"/>
        <pt x="550" y="1120" on="0"/>
        <pt x="528" y="992" on="1"/>
        <pt x="480" y="729" on="0"/>
        <pt x="446" y="551" on="0"/>
        <pt x="435" y="486" on="1"/>
        <pt x="410" y="337" on="0"/>
        <pt x="410" y="199" on="0"/>
        <pt x="416" y="160" on="0"/>
      </contour>
    </TTGlyph>
    <TTGlyph name="N" xMin="81" yMin="-19" xMax="1682" yMax="1530">
      <contour>
        <pt x="1512" y="17" on="1"/>
        <pt x="1431" y="10" on="0"/>
        <pt x="1380" y="-19" on="1"/>
        <pt x="1314" y="80" on="0"/>
        <pt x="1224" y="203" on="1"/>
        <pt x="1031" y="463" on="1"/>
        <pt x="812" y="746" on="1"/>
        <pt x="414" y="1250" on="1"/>
        <pt x="414" y="301" on="1"/>
        <pt x="414" y="198" on="0"/>
        <pt x="453" y="130" on="0"/>
        <pt x="493" y="110" on="0"/>
        <pt x="539" y="110" on="0"/>
        <pt x="579" y="113" on="0"/>
        <pt x="597" y="116" on="1"/>
        <pt x="630" y="120" on="1"/>
        <pt x="646" y="122" on="0"/>
        <pt x="655" y="124" on="1"/>
        <pt x="643" y="0" on="1"/>
        <pt x="85" y="0" on="1"/>
        <pt x="98" y="110" on="1"/>
        <pt x="191" y="110" on="0"/>
        <pt x="218" y="131" on="1"/>
        <pt x="269" y="171" on="0"/>
        <pt x="269" y="284" on="1"/>
        <pt x="269" y="1221" on="1"/>
        <pt x="269" y="1332" on="0"/>
        <pt x="243" y="1389" on="0"/>
        <pt x="208" y="1406" on="0"/>
        <pt x="182" y="1406" on="1"/>
        <pt x="150" y="1406" on="0"/>
        <pt x="81" y="1395" on="1"/>
        <pt x="96" y="1530" on="1"/>
        <pt x="514" y="1530" on="1"/>
        <pt x="546" y="1434" on="0"/>
        <pt x="607" y="1350" on="1"/>
        <pt x="738" y="1172" on="1"/>
        <pt x="1264" y="490" on="0"/>
        <pt x="1352" y="383" on="1"/>
        <pt x="1352" y="1244" on="1"/>
        <pt x="1352" y="1361" on="0"/>
        <pt x="1328" y="1406" on="0"/>
        <pt x="1295" y="1415" on="0"/>
        <pt x="1228" y="1415" on="0"/>
        <pt x="1157" y="1404" on="1"/>
        <pt x="1168" y="1530" on="1"/>
        <pt x="1682" y="1530" on="1"/>
        <pt x="1668" y="1415" on="1"/>
        <pt x="1611" y="1415" on="0"/>
        <pt x="1543" y="1412" on="0"/>
        <pt x="1526" y="1398" on="1"/>
        <pt x="1497" y="1377" on="0"/>
        <pt x="1497" y="1269" on="1"/>
        <pt x="1497" y="253" on="1"/>
        <pt x="1497" y="137" on="0"/>
      </contour>
    </TTGlyph>
    <TTGlyph name="Nacute" xMin="81" yMin="-19" xMax="1682" yMax="2041">
      <contour>
        <pt x="1512" y="17" on="1"/>
        <pt x="1431" y="10" on="0"/>
        <pt x="1380" y="-19" on="1"/>
        <pt x="1314" y="80" on="0"/>
        <pt x="1224" y="203" on="1"/>
        <pt x="1031" y="463" on="1"/>
        <pt x="812" y="746" on="1"/>
        <pt x="414" y="1250" on="1"/>
        <pt x="414" y="301" on="1"/>
        <pt x="414" y="198" on="0"/>
        <pt x="453" y="130" on="0"/>
        <pt x="493" y="110" on="0"/>
        <pt x="539" y="110" on="0"/>
        <pt x="579" y="113" on="0"/>
        <pt x="597" y="116" on="1"/>
        <pt x="630" y="120" on="1"/>
        <pt x="646" y="122" on="0"/>
        <pt x="655" y="124" on="1"/>
        <pt x="643" y="0" on="1"/>
        <pt x="85" y="0" on="1"/>
        <pt x="98" y="110" on="1"/>
        <pt x="191" y="110" on="0"/>
        <pt x="218" y="131" on="1"/>
        <pt x="269" y="171" on="0"/>
        <pt x="269" y="284" on="1"/>
        <pt x="269" y="1221" on="1"/>
        <pt x="269" y="1332" on="0"/>
        <pt x="243" y="1389" on="0"/>
        <pt x="208" y="1406" on="0"/>
        <pt x="182" y="1406" on="1"/>
        <pt x="150" y="1406" on="0"/>
        <pt x="81" y="1395" on="1"/>
        <pt x="96" y="1530" on="1"/>
        <pt x="514" y="1530" on="1"/>
        <pt x="546" y="1434" on="0"/>
        <pt x="607" y="1350" on="1"/>
        <pt x="738" y="1172" on="1"/>
        <pt x="1264" y="490" on="0"/>
        <pt x="1352" y="383" on="1"/>
        <pt x="1352" y="1244" on="1"/>
        <pt x="1352" y="1361" on="0"/>
        <pt x="1328" y="1406" on="0"/>
        <pt x="1295" y="1415" on="0"/>
        <pt x="1228" y="1415" on="0"/>
        <pt x="1157" y="1404" on="1"/>
        <pt x="1168" y="1530" on="1"/>
        <pt x="1682" y="1530" on="1"/>
        <pt x="1668" y="1415" on="1"/>
        <pt x="1611" y="1415" on="0"/>
        <pt x="1543" y="1412" on="0"/>
        <pt x="1526" y="1398" on="1"/>
        <pt x="1497" y="1377" on="0"/>
        <pt x="1497" y="1269" on="1"/>
        <pt x="1497" y="253" on="1"/>
        <pt x="1497" y="137" on="0"/>
      </contour>
      <contour>
        <pt x="641" y="1781" on="1"/>
        <pt x="1204" y="2041" on="1"/>
        <pt x="1276" y="1848" on="1"/>
        <pt x="680" y="1663" on="1"/>
      </contour>
    </TTGlyph>
    <TTGlyph name="Ncaron" xMin="81" yMin="-19" xMax="1682" yMax="2040">
      <contour>
        <pt x="1512" y="17" on="1"/>
        <pt x="1431" y="10" on="0"/>
        <pt x="1380" y="-19" on="1"/>
        <pt x="1314" y="80" on="0"/>
        <pt x="1224" y="203" on="1"/>
        <pt x="1031" y="463" on="1"/>
        <pt x="812" y="746" on="1"/>
        <pt x="414" y="1250" on="1"/>
        <pt x="414" y="301" on="1"/>
        <pt x="414" y="198" on="0"/>
        <pt x="453" y="130" on="0"/>
        <pt x="493" y="110" on="0"/>
        <pt x="539" y="110" on="0"/>
        <pt x="579" y="113" on="0"/>
        <pt x="597" y="116" on="1"/>
        <pt x="630" y="120" on="1"/>
        <pt x="646" y="122" on="0"/>
        <pt x="655" y="124" on="1"/>
        <pt x="643" y="0" on="1"/>
        <pt x="85" y="0" on="1"/>
        <pt x="98" y="110" on="1"/>
        <pt x="191" y="110" on="0"/>
        <pt x="218" y="131" on="1"/>
        <pt x="269" y="171" on="0"/>
        <pt x="269" y="284" on="1"/>
        <pt x="269" y="1221" on="1"/>
        <pt x="269" y="1332" on="0"/>
        <pt x="243" y="1389" on="0"/>
        <pt x="208" y="1406" on="0"/>
        <pt x="182" y="1406" on="1"/>
        <pt x="150" y="1406" on="0"/>
        <pt x="81" y="1395" on="1"/>
        <pt x="96" y="1530" on="1"/>
        <pt x="514" y="1530" on="1"/>
        <pt x="546" y="1434" on="0"/>
        <pt x="607" y="1350" on="1"/>
        <pt x="738" y="1172" on="1"/>
        <pt x="1264" y="490" on="0"/>
        <pt x="1352" y="383" on="1"/>
        <pt x="1352" y="1244" on="1"/>
        <pt x="1352" y="1361" on="0"/>
        <pt x="1328" y="1406" on="0"/>
        <pt x="1295" y="1415" on="0"/>
        <pt x="1228" y="1415" on="0"/>
        <pt x="1157" y="1404" on="1"/>
        <pt x="1168" y="1530" on="1"/>
        <pt x="1682" y="1530" on="1"/>
        <pt x="1668" y="1415" on="1"/>
        <pt x="1611" y="1415" on="0"/>
        <pt x="1543" y="1412" on="0"/>
        <pt x="1526" y="1398" on="1"/>
        <pt x="1497" y="1377" on="0"/>
        <pt x="1497" y="1269" on="1"/>
        <pt x="1497" y="253" on="1"/>
        <pt x="1497" y="137" on="0"/>
      </contour>
      <contour>
        <pt x="481" y="1930" on="1"/>
        <pt x="538" y="2040" on="1"/>
        <pt x="878" y="1883" on="1"/>
        <pt x="1205" y="2040" on="1"/>
        <pt x="1269" y="1930" on="1"/>
        <pt x="878" y="1664" on="1"/>
      </contour>
    </TTGlyph>
    <TTGlyph name="Ncommaaccent" xMin="81" yMin="-518" xMax="1682" yMax="1530">
      <contour>
        <pt x="1512" y="17" on="1"/>
        <pt x="1431" y="10" on="0"/>
        <pt x="1380" y="-19" on="1"/>
        <pt x="1314" y="80" on="0"/>
        <pt x="1224" y="203" on="1"/>
        <pt x="1031" y="463" on="1"/>
        <pt x="812" y="746" on="1"/>
        <pt x="414" y="1250" on="1"/>
        <pt x="414" y="301" on="1"/>
        <pt x="414" y="198" on="0"/>
        <pt x="453" y="130" on="0"/>
        <pt x="493" y="110" on="0"/>
        <pt x="539" y="110" on="0"/>
        <pt x="579" y="113" on="0"/>
        <pt x="597" y="116" on="1"/>
        <pt x="630" y="120" on="1"/>
        <pt x="646" y="122" on="0"/>
        <pt x="655" y="124" on="1"/>
        <pt x="643" y="0" on="1"/>
        <pt x="85" y="0" on="1"/>
        <pt x="98" y="110" on="1"/>
        <pt x="191" y="110" on="0"/>
        <pt x="218" y="131" on="1"/>
        <pt x="269" y="171" on="0"/>
        <pt x="269" y="284" on="1"/>
        <pt x="269" y="1221" on="1"/>
        <pt x="269" y="1332" on="0"/>
        <pt x="243" y="1389" on="0"/>
        <pt x="208" y="1406" on="0"/>
        <pt x="182" y="1406" on="1"/>
        <pt x="150" y="1406" on="0"/>
        <pt x="81" y="1395" on="1"/>
        <pt x="96" y="1530" on="1"/>
        <pt x="514" y="1530" on="1"/>
        <pt x="546" y="1434" on="0"/>
        <pt x="607" y="1350" on="1"/>
        <pt x="738" y="1172" on="1"/>
        <pt x="1264" y="490" on="0"/>
        <pt x="1352" y="383" on="1"/>
        <pt x="1352" y="1244" on="1"/>
        <pt x="1352" y="1361" on="0"/>
        <pt x="1328" y="1406" on="0"/>
        <pt x="1295" y="1415" on="0"/>
        <pt x="1228" y="1415" on="0"/>
        <pt x="1157" y="1404" on="1"/>
        <pt x="1168" y="1530" on="1"/>
        <pt x="1682" y="1530" on="1"/>
        <pt x="1668" y="1415" on="1"/>
        <pt x="1611" y="1415" on="0"/>
        <pt x="1543" y="1412" on="0"/>
        <pt x="1526" y="1398" on="1"/>
        <pt x="1497" y="1377" on="0"/>
        <pt x="1497" y="1269" on="1"/>
        <pt x="1497" y="253" on="1"/>
        <pt x="1497" y="137" on="0"/>
      </contour>
      <contour>
        <pt x="856" y="-59" on="1"/>
        <pt x="1013" y="-59" on="0"/>
        <pt x="1013" y="-214" on="1"/>
        <pt x="1013" y="-332" on="0"/>
        <pt x="944" y="-432" on="1"/>
        <pt x="916" y="-472" on="0"/>
        <pt x="858" y="-518" on="0"/>
        <pt x="840" y="-518" on="1"/>
        <pt x="809" y="-518" on="0"/>
        <pt x="779" y="-487" on="0"/>
        <pt x="775" y="-475" on="1"/>
        <pt x="830" y="-422" on="0"/>
        <pt x="828" y="-339" on="1"/>
        <pt x="707" y="-327" on="0"/>
        <pt x="707" y="-204" on="1"/>
        <pt x="707" y="-144" on="0"/>
        <pt x="747" y="-102" on="1"/>
        <pt x="788" y="-59" on="0"/>
      </contour>
    </TTGlyph>
    <TTGlyph name="Ntilde" xMin="81" yMin="-19" xMax="1682" yMax="1970">
      <contour>
        <pt x="1512" y="17" on="1"/>
        <pt x="1431" y="10" on="0"/>
        <pt x="1380" y="-19" on="1"/>
        <pt x="1314" y="80" on="0"/>
        <pt x="1224" y="203" on="1"/>
        <pt x="1031" y="463" on="1"/>
        <pt x="812" y="746" on="1"/>
        <pt x="414" y="1250" on="1"/>
        <pt x="414" y="301" on="1"/>
        <pt x="414" y="198" on="0"/>
        <pt x="453" y="130" on="0"/>
        <pt x="493" y="110" on="0"/>
        <pt x="539" y="110" on="0"/>
        <pt x="579" y="113" on="0"/>
        <pt x="597" y="116" on="1"/>
        <pt x="630" y="120" on="1"/>
        <pt x="646" y="122" on="0"/>
        <pt x="655" y="124" on="1"/>
        <pt x="643" y="0" on="1"/>
        <pt x="85" y="0" on="1"/>
        <pt x="98" y="110" on="1"/>
        <pt x="191" y="110" on="0"/>
        <pt x="218" y="131" on="1"/>
        <pt x="269" y="171" on="0"/>
        <pt x="269" y="284" on="1"/>
        <pt x="269" y="1221" on="1"/>
        <pt x="269" y="1332" on="0"/>
        <pt x="243" y="1389" on="0"/>
        <pt x="208" y="1406" on="0"/>
        <pt x="182" y="1406" on="1"/>
        <pt x="150" y="1406" on="0"/>
        <pt x="81" y="1395" on="1"/>
        <pt x="96" y="1530" on="1"/>
        <pt x="514" y="1530" on="1"/>
        <pt x="546" y="1434" on="0"/>
        <pt x="607" y="1350" on="1"/>
        <pt x="738" y="1172" on="1"/>
        <pt x="1264" y="490" on="0"/>
        <pt x="1352" y="383" on="1"/>
        <pt x="1352" y="1244" on="1"/>
        <pt x="1352" y="1361" on="0"/>
        <pt x="1328" y="1406" on="0"/>
        <pt x="1295" y="1415" on="0"/>
        <pt x="1228" y="1415" on="0"/>
        <pt x="1157" y="1404" on="1"/>
        <pt x="1168" y="1530" on="1"/>
        <pt x="1682" y="1530" on="1"/>
        <pt x="1668" y="1415" on="1"/>
        <pt x="1611" y="1415" on="0"/>
        <pt x="1543" y="1412" on="0"/>
        <pt x="1526" y="1398" on="1"/>
        <pt x="1497" y="1377" on="0"/>
        <pt x="1497" y="1269" on="1"/>
        <pt x="1497" y="253" on="1"/>
        <pt x="1497" y="137" on="0"/>
      </contour>
      <contour>
        <pt x="465" y="1782" on="1"/>
        <pt x="468" y="1795" on="0"/>
        <pt x="509" y="1857" on="0"/>
        <pt x="546" y="1889" on="1"/>
        <pt x="638" y="1970" on="0"/>
        <pt x="745" y="1970" on="1"/>
        <pt x="799" y="1970" on="0"/>
        <pt x="886" y="1926" on="0"/>
        <pt x="920" y="1904" on="1"/>
        <pt x="1005" y="1847" on="0"/>
        <pt x="1063" y="1847" on="0"/>
        <pt x="1101" y="1859" on="0"/>
        <pt x="1118" y="1872" on="1"/>
        <pt x="1149" y="1895" on="0"/>
        <pt x="1193" y="1949" on="1"/>
        <pt x="1282" y="1852" on="1"/>
        <pt x="1271" y="1805" on="0"/>
        <pt x="1225" y="1759" on="1"/>
        <pt x="1129" y="1663" on="0"/>
        <pt x="1021" y="1663" on="1"/>
        <pt x="976" y="1663" on="0"/>
        <pt x="886" y="1707" on="0"/>
        <pt x="848" y="1730" on="1"/>
        <pt x="749" y="1787" on="0"/>
        <pt x="693" y="1787" on="0"/>
        <pt x="656" y="1775" on="0"/>
        <pt x="638" y="1762" on="1"/>
        <pt x="610" y="1742" on="0"/>
        <pt x="564" y="1685" on="1"/>
      </contour>
    </TTGlyph>
    <TTGlyph name="O" xMin="117" yMin="-15" xMax="1589" yMax="1546">
      <contour>
        <pt x="218" y="276" on="0"/>
        <pt x="117" y="556" on="0"/>
        <pt x="123" y="901" on="0"/>
        <pt x="228" y="1195" on="0"/>
        <pt x="327" y="1306" on="1"/>
        <pt x="541" y="1546" on="0"/>
        <pt x="903" y="1546" on="1"/>
        <pt x="1208" y="1546" on="0"/>
        <pt x="1396" y="1348" on="1"/>
        <pt x="1589" y="1144" on="0"/>
        <pt x="1589" y="797" on="1"/>
        <pt x="1576" y="455" on="0"/>
        <pt x="1378" y="228" on="1"/>
        <pt x="1244" y="75" on="0"/>
        <pt x="1036" y="15" on="1"/>
        <pt x="931" y="-15" on="0"/>
        <pt x="656" y="-15" on="0"/>
        <pt x="401" y="84" on="0"/>
      </contour>
      <contour>
        <pt x="544" y="214" on="0"/>
        <pt x="733" y="112" on="0"/>
        <pt x="958" y="112" on="0"/>
        <pt x="1135" y="188" on="0"/>
        <pt x="1201" y="266" on="1"/>
        <pt x="1344" y="434" on="0"/>
        <pt x="1348" y="733" on="1"/>
        <pt x="1354" y="1043" on="0"/>
        <pt x="1228" y="1227" on="1"/>
        <pt x="1096" y="1418" on="0"/>
        <pt x="851" y="1418" on="1"/>
        <pt x="639" y="1418" on="0"/>
        <pt x="508" y="1266" on="1"/>
        <pt x="366" y="1102" on="0"/>
        <pt x="360" y="801" on="1"/>
        <pt x="354" y="489" on="0"/>
        <pt x="481" y="305" on="1"/>
      </contour>
    </TTGlyph>
    <TTGlyph name="OE" xMin="120" yMin="-44" xMax="2115" yMax="1546">
      <contour>
        <pt x="975" y="0" on="1"/>
        <pt x="734" y="-44" on="0"/>
        <pt x="532" y="34" on="1"/>
        <pt x="272" y="135" on="0"/>
        <pt x="170" y="416" on="1"/>
        <pt x="120" y="556" on="0"/>
        <pt x="126" y="901" on="0"/>
        <pt x="221" y="1195" on="0"/>
        <pt x="315" y="1306" on="1"/>
        <pt x="518" y="1546" on="0"/>
        <pt x="876" y="1546" on="1"/>
        <pt x="961" y="1546" on="0"/>
        <pt x="1041" y="1530" on="1"/>
        <pt x="1708" y="1530" on="1"/>
        <pt x="1949" y="1530" on="0"/>
        <pt x="2069" y="1546" on="1"/>
        <pt x="2069" y="1386" on="0"/>
        <pt x="2038" y="1226" on="1"/>
        <pt x="2030" y="1188" on="0"/>
        <pt x="2024" y="1168" on="1"/>
        <pt x="1922" y="1168" on="1"/>
        <pt x="1912" y="1329" on="0"/>
        <pt x="1860" y="1373" on="1"/>
        <pt x="1832" y="1397" on="0"/>
        <pt x="1738" y="1409" on="0"/>
        <pt x="1668" y="1409" on="1"/>
        <pt x="1270" y="1409" on="1"/>
        <pt x="1270" y="874" on="1"/>
        <pt x="1508" y="874" on="1"/>
        <pt x="1606" y="874" on="0"/>
        <pt x="1639" y="917" on="1"/>
        <pt x="1655" y="938" on="0"/>
        <pt x="1665" y="1001" on="0"/>
        <pt x="1670" y="1043" on="1"/>
        <pt x="1793" y="1044" on="1"/>
        <pt x="1793" y="1044" on="0"/>
        <pt x="1794" y="991" on="1"/>
        <pt x="1794" y="864" on="0"/>
        <pt x="1776" y="600" on="1"/>
        <pt x="1774" y="568" on="1"/>
        <pt x="1650" y="568" on="1"/>
        <pt x="1643" y="680" on="0"/>
        <pt x="1606" y="739" on="0"/>
        <pt x="1550" y="761" on="0"/>
        <pt x="1502" y="761" on="1"/>
        <pt x="1270" y="761" on="1"/>
        <pt x="1270" y="279" on="1"/>
        <pt x="1270" y="185" on="0"/>
        <pt x="1322" y="150" on="1"/>
        <pt x="1367" y="119" on="0"/>
        <pt x="1493" y="115" on="1"/>
        <pt x="1683" y="115" on="1"/>
        <pt x="1883" y="115" on="0"/>
        <pt x="1959" y="288" on="1"/>
        <pt x="1983" y="342" on="0"/>
        <pt x="1991" y="410" on="1"/>
        <pt x="2115" y="410" on="1"/>
        <pt x="2115" y="296" on="0"/>
        <pt x="2092" y="170" on="1"/>
        <pt x="2062" y="0" on="1"/>
      </contour>
      <contour>
        <pt x="547" y="214" on="0"/>
        <pt x="736" y="112" on="0"/>
        <pt x="942" y="112" on="0"/>
        <pt x="1011" y="137" on="1"/>
        <pt x="1054" y="173" on="0"/>
        <pt x="1054" y="307" on="1"/>
        <pt x="1054" y="1221" on="1"/>
        <pt x="1054" y="1346" on="0"/>
        <pt x="1020" y="1388" on="1"/>
        <pt x="945" y="1418" on="0"/>
        <pt x="754" y="1418" on="0"/>
        <pt x="577" y="1343" on="0"/>
        <pt x="511" y="1266" on="1"/>
        <pt x="368" y="1101" on="0"/>
        <pt x="364" y="801" on="1"/>
        <pt x="358" y="489" on="0"/>
        <pt x="484" y="305" on="1"/>
      </contour>
    </TTGlyph>
    <TTGlyph name="Oacute" xMin="117" yMin="-15" xMax="1589" yMax="2041">
      <contour>
        <pt x="218" y="276" on="0"/>
        <pt x="117" y="556" on="0"/>
        <pt x="123" y="901" on="0"/>
        <pt x="228" y="1195" on="0"/>
        <pt x="327" y="1306" on="1"/>
        <pt x="541" y="1546" on="0"/>
        <pt x="903" y="1546" on="1"/>
        <pt x="1208" y="1546" on="0"/>
        <pt x="1396" y="1348" on="1"/>
        <pt x="1589" y="1144" on="0"/>
        <pt x="1589" y="797" on="1"/>
        <pt x="1576" y="455" on="0"/>
        <pt x="1378" y="228" on="1"/>
        <pt x="1244" y="75" on="0"/>
        <pt x="1036" y="15" on="1"/>
        <pt x="931" y="-15" on="0"/>
        <pt x="656" y="-15" on="0"/>
        <pt x="401" y="84" on="0"/>
      </contour>
      <contour>
        <pt x="544" y="214" on="0"/>
        <pt x="733" y="112" on="0"/>
        <pt x="958" y="112" on="0"/>
        <pt x="1135" y="188" on="0"/>
        <pt x="1201" y="266" on="1"/>
        <pt x="1344" y="434" on="0"/>
        <pt x="1348" y="733" on="1"/>
        <pt x="1354" y="1043" on="0"/>
        <pt x="1228" y="1227" on="1"/>
        <pt x="1096" y="1418" on="0"/>
        <pt x="851" y="1418" on="1"/>
        <pt x="639" y="1418" on="0"/>
        <pt x="508" y="1266" on="1"/>
        <pt x="366" y="1102" on="0"/>
        <pt x="360" y="801" on="1"/>
        <pt x="354" y="489" on="0"/>
        <pt x="481" y="305" on="1"/>
      </contour>
      <contour>
        <pt x="639" y="1781" on="1"/>
        <pt x="1202" y="2041" on="1"/>
        <pt x="1274" y="1848" on="1"/>
        <pt x="678" y="1663" on="1"/>
      </contour>
    </TTGlyph>
    <TTGlyph name="Obreve" xMin="117" yMin="-15" xMax="1589" yMax="2038">
      <contour>
        <pt x="218" y="276" on="0"/>
        <pt x="117" y="556" on="0"/>
        <pt x="123" y="901" on="0"/>
        <pt x="228" y="1195" on="0"/>
        <pt x="327" y="1306" on="1"/>
        <pt x="541" y="1546" on="0"/>
        <pt x="903" y="1546" on="1"/>
        <pt x="1208" y="1546" on="0"/>
        <pt x="1396" y="1348" on="1"/>
        <pt x="1589" y="1144" on="0"/>
        <pt x="1589" y="797" on="1"/>
        <pt x="1576" y="455" on="0"/>
        <pt x="1378" y="228" on="1"/>
        <pt x="1244" y="75" on="0"/>
        <pt x="1036" y="15" on="1"/>
        <pt x="931" y="-15" on="0"/>
        <pt x="656" y="-15" on="0"/>
        <pt x="401" y="84" on="0"/>
      </contour>
      <contour>
        <pt x="544" y="214" on="0"/>
        <pt x="733" y="112" on="0"/>
        <pt x="958" y="112" on="0"/>
        <pt x="1135" y="188" on="0"/>
        <pt x="1201" y="266" on="1"/>
        <pt x="1344" y="434" on="0"/>
        <pt x="1348" y="733" on="1"/>
        <pt x="1354" y="1043" on="0"/>
        <pt x="1228" y="1227" on="1"/>
        <pt x="1096" y="1418" on="0"/>
        <pt x="851" y="1418" on="1"/>
        <pt x="639" y="1418" on="0"/>
        <pt x="508" y="1266" on="1"/>
        <pt x="366" y="1102" on="0"/>
        <pt x="360" y="801" on="1"/>
        <pt x="354" y="489" on="0"/>
        <pt x="481" y="305" on="1"/>
      </contour>
      <contour>
        <pt x="875" y="1704" on="1"/>
        <pt x="627" y="1704" on="0"/>
        <pt x="546" y="1893" on="1"/>
        <pt x="520" y="1954" on="0"/>
        <pt x="520" y="2020" on="1"/>
        <pt x="640" y="2038" on="1"/>
        <pt x="641" y="2036" on="0"/>
        <pt x="652" y="2009" on="0"/>
        <pt x="675" y="1972" on="0"/>
        <pt x="711" y="1930" on="0"/>
        <pt x="737" y="1912" on="1"/>
        <pt x="796" y="1871" on="0"/>
        <pt x="869" y="1871" on="1"/>
        <pt x="986" y="1871" on="0"/>
        <pt x="1059" y="1954" on="1"/>
        <pt x="1092" y="1991" on="0"/>
        <pt x="1111" y="2038" on="1"/>
        <pt x="1241" y="2020" on="1"/>
        <pt x="1241" y="1925" on="0"/>
        <pt x="1169" y="1830" on="1"/>
        <pt x="1073" y="1704" on="0"/>
      </contour>
    </TTGlyph>
    <TTGlyph name="Ocircumflex" xMin="117" yMin="-15" xMax="1589" yMax="2040">
      <contour>
        <pt x="218" y="276" on="0"/>
        <pt x="117" y="556" on="0"/>
        <pt x="123" y="901" on="0"/>
        <pt x="228" y="1195" on="0"/>
        <pt x="327" y="1306" on="1"/>
        <pt x="541" y="1546" on="0"/>
        <pt x="903" y="1546" on="1"/>
        <pt x="1208" y="1546" on="0"/>
        <pt x="1396" y="1348" on="1"/>
        <pt x="1589" y="1144" on="0"/>
        <pt x="1589" y="797" on="1"/>
        <pt x="1576" y="455" on="0"/>
        <pt x="1378" y="228" on="1"/>
        <pt x="1244" y="75" on="0"/>
        <pt x="1036" y="15" on="1"/>
        <pt x="931" y="-15" on="0"/>
        <pt x="656" y="-15" on="0"/>
        <pt x="401" y="84" on="0"/>
      </contour>
      <contour>
        <pt x="544" y="214" on="0"/>
        <pt x="733" y="112" on="0"/>
        <pt x="958" y="112" on="0"/>
        <pt x="1135" y="188" on="0"/>
        <pt x="1201" y="266" on="1"/>
        <pt x="1344" y="434" on="0"/>
        <pt x="1348" y="733" on="1"/>
        <pt x="1354" y="1043" on="0"/>
        <pt x="1228" y="1227" on="1"/>
        <pt x="1096" y="1418" on="0"/>
        <pt x="851" y="1418" on="1"/>
        <pt x="639" y="1418" on="0"/>
        <pt x="508" y="1266" on="1"/>
        <pt x="366" y="1102" on="0"/>
        <pt x="360" y="801" on="1"/>
        <pt x="354" y="489" on="0"/>
        <pt x="481" y="305" on="1"/>
      </contour>
      <contour>
        <pt x="479" y="1767" on="1"/>
        <pt x="875" y="2040" on="1"/>
        <pt x="1266" y="1775" on="1"/>
        <pt x="1202" y="1664" on="1"/>
        <pt x="875" y="1821" on="1"/>
        <pt x="875" y="1821" on="0"/>
        <pt x="536" y="1664" on="1"/>
      </contour>
    </TTGlyph>
    <TTGlyph name="Odieresis" xMin="117" yMin="-15" xMax="1589" yMax="2029">
      <contour>
        <pt x="218" y="276" on="0"/>
        <pt x="117" y="556" on="0"/>
        <pt x="123" y="901" on="0"/>
        <pt x="228" y="1195" on="0"/>
        <pt x="327" y="1306" on="1"/>
        <pt x="541" y="1546" on="0"/>
        <pt x="903" y="1546" on="1"/>
        <pt x="1208" y="1546" on="0"/>
        <pt x="1396" y="1348" on="1"/>
        <pt x="1589" y="1144" on="0"/>
        <pt x="1589" y="797" on="1"/>
        <pt x="1576" y="455" on="0"/>
        <pt x="1378" y="228" on="1"/>
        <pt x="1244" y="75" on="0"/>
        <pt x="1036" y="15" on="1"/>
        <pt x="931" y="-15" on="0"/>
        <pt x="656" y="-15" on="0"/>
        <pt x="401" y="84" on="0"/>
      </contour>
      <contour>
        <pt x="544" y="214" on="0"/>
        <pt x="733" y="112" on="0"/>
        <pt x="958" y="112" on="0"/>
        <pt x="1135" y="188" on="0"/>
        <pt x="1201" y="266" on="1"/>
        <pt x="1344" y="434" on="0"/>
        <pt x="1348" y="733" on="1"/>
        <pt x="1354" y="1043" on="0"/>
        <pt x="1228" y="1227" on="1"/>
        <pt x="1096" y="1418" on="0"/>
        <pt x="851" y="1418" on="1"/>
        <pt x="639" y="1418" on="0"/>
        <pt x="508" y="1266" on="1"/>
        <pt x="366" y="1102" on="0"/>
        <pt x="360" y="801" on="1"/>
        <pt x="354" y="489" on="0"/>
        <pt x="481" y="305" on="1"/>
      </contour>
      <contour>
        <pt x="1196" y="1758" on="0"/>
        <pt x="1143" y="1736" on="0"/>
        <pt x="1080" y="1736" on="0"/>
        <pt x="1024" y="1758" on="0"/>
        <pt x="1004" y="1778" on="1"/>
        <pt x="960" y="1819" on="0"/>
        <pt x="960" y="1910" on="0"/>
        <pt x="983" y="1965" on="0"/>
        <pt x="1004" y="1986" on="1"/>
        <pt x="1047" y="2029" on="0"/>
        <pt x="1112" y="2029" on="1"/>
        <pt x="1208" y="2029" on="0"/>
        <pt x="1246" y="1938" on="1"/>
        <pt x="1258" y="1910" on="0"/>
        <pt x="1258" y="1849" on="0"/>
        <pt x="1235" y="1797" on="0"/>
      </contour>
      <contour>
        <pt x="739" y="1758" on="0"/>
        <pt x="686" y="1736" on="0"/>
        <pt x="623" y="1736" on="0"/>
        <pt x="566" y="1758" on="0"/>
        <pt x="546" y="1778" on="1"/>
        <pt x="501" y="1820" on="0"/>
        <pt x="501" y="1910" on="0"/>
        <pt x="525" y="1965" on="0"/>
        <pt x="546" y="1986" on="1"/>
        <pt x="589" y="2029" on="0"/>
        <pt x="656" y="2029" on="1"/>
        <pt x="751" y="2029" on="0"/>
        <pt x="788" y="1938" on="1"/>
        <pt x="799" y="1910" on="0"/>
        <pt x="799" y="1849" on="0"/>
        <pt x="777" y="1797" on="0"/>
      </contour>
    </TTGlyph>
    <TTGlyph name="Ograve" xMin="117" yMin="-15" xMax="1589" yMax="2041">
      <contour>
        <pt x="218" y="276" on="0"/>
        <pt x="117" y="556" on="0"/>
        <pt x="123" y="901" on="0"/>
        <pt x="228" y="1195" on="0"/>
        <pt x="327" y="1306" on="1"/>
        <pt x="541" y="1546" on="0"/>
        <pt x="903" y="1546" on="1"/>
        <pt x="1208" y="1546" on="0"/>
        <pt x="1396" y="1348" on="1"/>
        <pt x="1589" y="1144" on="0"/>
        <pt x="1589" y="797" on="1"/>
        <pt x="1576" y="455" on="0"/>
        <pt x="1378" y="228" on="1"/>
        <pt x="1244" y="75" on="0"/>
        <pt x="1036" y="15" on="1"/>
        <pt x="931" y="-15" on="0"/>
        <pt x="656" y="-15" on="0"/>
        <pt x="401" y="84" on="0"/>
      </contour>
      <contour>
        <pt x="544" y="214" on="0"/>
        <pt x="733" y="112" on="0"/>
        <pt x="958" y="112" on="0"/>
        <pt x="1135" y="188" on="0"/>
        <pt x="1201" y="266" on="1"/>
        <pt x="1344" y="434" on="0"/>
        <pt x="1348" y="733" on="1"/>
        <pt x="1354" y="1043" on="0"/>
        <pt x="1228" y="1227" on="1"/>
        <pt x="1096" y="1418" on="0"/>
        <pt x="851" y="1418" on="1"/>
        <pt x="639" y="1418" on="0"/>
        <pt x="508" y="1266" on="1"/>
        <pt x="366" y="1102" on="0"/>
        <pt x="360" y="801" on="1"/>
        <pt x="354" y="489" on="0"/>
        <pt x="481" y="305" on="1"/>
      </contour>
      <contour>
        <pt x="506" y="2041" on="1"/>
        <pt x="1069" y="1781" on="1"/>
        <pt x="1030" y="1663" on="1"/>
        <pt x="434" y="1848" on="1"/>
      </contour>
    </TTGlyph>
    <TTGlyph name="Ohungarumlaut" xMin="117" yMin="-15" xMax="1589" yMax="2024">
      <contour>
        <pt x="218" y="276" on="0"/>
        <pt x="117" y="556" on="0"/>
        <pt x="123" y="901" on="0"/>
        <pt x="228" y="1195" on="0"/>
        <pt x="327" y="1306" on="1"/>
        <pt x="541" y="1546" on="0"/>
        <pt x="903" y="1546" on="1"/>
        <pt x="1208" y="1546" on="0"/>
        <pt x="1396" y="1348" on="1"/>
        <pt x="1589" y="1144" on="0"/>
        <pt x="1589" y="797" on="1"/>
        <pt x="1576" y="455" on="0"/>
        <pt x="1378" y="228" on="1"/>
        <pt x="1244" y="75" on="0"/>
        <pt x="1036" y="15" on="1"/>
        <pt x="931" y="-15" on="0"/>
        <pt x="656" y="-15" on="0"/>
        <pt x="401" y="84" on="0"/>
      </contour>
      <contour>
        <pt x="544" y="214" on="0"/>
        <pt x="733" y="112" on="0"/>
        <pt x="958" y="112" on="0"/>
        <pt x="1135" y="188" on="0"/>
        <pt x="1201" y="266" on="1"/>
        <pt x="1344" y="434" on="0"/>
        <pt x="1348" y="733" on="1"/>
        <pt x="1354" y="1043" on="0"/>
        <pt x="1228" y="1227" on="1"/>
        <pt x="1096" y="1418" on="0"/>
        <pt x="851" y="1418" on="1"/>
        <pt x="639" y="1418" on="0"/>
        <pt x="508" y="1266" on="1"/>
        <pt x="366" y="1102" on="0"/>
        <pt x="360" y="801" on="1"/>
        <pt x="354" y="489" on="0"/>
        <pt x="481" y="305" on="1"/>
      </contour>
      <contour>
        <pt x="1041" y="1750" on="1"/>
        <pt x="1388" y="2024" on="1"/>
        <pt x="1479" y="1868" on="1"/>
        <pt x="1121" y="1650" on="1"/>
      </contour>
      <contour>
        <pt x="623" y="1750" on="1"/>
        <pt x="928" y="2024" on="1"/>
        <pt x="1030" y="1888" on="1"/>
        <pt x="703" y="1650" on="1"/>
      </contour>
    </TTGlyph>
    <TTGlyph name="Omacron" xMin="117" yMin="-15" xMax="1589" yMax="1970">
      <contour>
        <pt x="218" y="276" on="0"/>
        <pt x="117" y="556" on="0"/>
        <pt x="123" y="901" on="0"/>
        <pt x="228" y="1195" on="0"/>
        <pt x="327" y="1306" on="1"/>
        <pt x="541" y="1546" on="0"/>
        <pt x="903" y="1546" on="1"/>
        <pt x="1208" y="1546" on="0"/>
        <pt x="1396" y="1348" on="1"/>
        <pt x="1589" y="1144" on="0"/>
        <pt x="1589" y="797" on="1"/>
        <pt x="1576" y="455" on="0"/>
        <pt x="1378" y="228" on="1"/>
        <pt x="1244" y="75" on="0"/>
        <pt x="1036" y="15" on="1"/>
        <pt x="931" y="-15" on="0"/>
        <pt x="656" y="-15" on="0"/>
        <pt x="401" y="84" on="0"/>
      </contour>
      <contour>
        <pt x="544" y="214" on="0"/>
        <pt x="733" y="112" on="0"/>
        <pt x="958" y="112" on="0"/>
        <pt x="1135" y="188" on="0"/>
        <pt x="1201" y="266" on="1"/>
        <pt x="1344" y="434" on="0"/>
        <pt x="1348" y="733" on="1"/>
        <pt x="1354" y="1043" on="0"/>
        <pt x="1228" y="1227" on="1"/>
        <pt x="1096" y="1418" on="0"/>
        <pt x="851" y="1418" on="1"/>
        <pt x="639" y="1418" on="0"/>
        <pt x="508" y="1266" on="1"/>
        <pt x="366" y="1102" on="0"/>
        <pt x="360" y="801" on="1"/>
        <pt x="354" y="489" on="0"/>
        <pt x="481" y="305" on="1"/>
      </contour>
      <contour>
        <pt x="513" y="1970" on="1"/>
        <pt x="1263" y="1970" on="1"/>
        <pt x="1244" y="1814" on="1"/>
        <pt x="494" y="1814" on="1"/>
      </contour>
    </TTGlyph>
    <TTGlyph name="Omega" xMin="134" yMin="0" xMax="1752" yMax="1545">
      <contour>
        <pt x="188" y="2" on="1"/>
        <pt x="134" y="260" on="0"/>
        <pt x="134" y="410" on="1"/>
        <pt x="257" y="410" on="1"/>
        <pt x="279" y="219" on="0"/>
        <pt x="448" y="180" on="1"/>
        <pt x="502" y="168" on="0"/>
        <pt x="571" y="168" on="1"/>
        <pt x="720" y="168" on="1"/>
        <pt x="720" y="219" on="1"/>
        <pt x="518" y="276" on="0"/>
        <pt x="383" y="476" on="1"/>
        <pt x="252" y="669" on="0"/>
        <pt x="252" y="891" on="1"/>
        <pt x="252" y="1030" on="0"/>
        <pt x="362" y="1269" on="0"/>
        <pt x="458" y="1357" on="1"/>
        <pt x="663" y="1545" on="0"/>
        <pt x="970" y="1545" on="1"/>
        <pt x="1301" y="1545" on="0"/>
        <pt x="1480" y="1357" on="1"/>
        <pt x="1648" y="1181" on="0"/>
        <pt x="1648" y="891" on="1"/>
        <pt x="1648" y="677" on="0"/>
        <pt x="1383" y="288" on="0"/>
        <pt x="1192" y="224" on="1"/>
        <pt x="1192" y="168" on="1"/>
        <pt x="1332" y="168" on="1"/>
        <pt x="1472" y="168" on="0"/>
        <pt x="1540" y="222" on="1"/>
        <pt x="1614" y="279" on="0"/>
        <pt x="1629" y="410" on="1"/>
        <pt x="1752" y="410" on="1"/>
        <pt x="1752" y="304" on="0"/>
        <pt x="1697" y="47" on="1"/>
        <pt x="1688" y="0" on="1"/>
        <pt x="1057" y="0" on="1"/>
        <pt x="1057" y="284" on="1"/>
        <pt x="1225" y="332" on="0"/>
        <pt x="1330" y="532" on="1"/>
        <pt x="1421" y="707" on="0"/>
        <pt x="1421" y="891" on="1"/>
        <pt x="1421" y="1109" on="0"/>
        <pt x="1326" y="1257" on="1"/>
        <pt x="1211" y="1436" on="0"/>
        <pt x="970" y="1436" on="1"/>
        <pt x="654" y="1436" on="0"/>
        <pt x="529" y="1143" on="1"/>
        <pt x="479" y="1026" on="0"/>
        <pt x="479" y="891" on="1"/>
        <pt x="479" y="710" on="0"/>
        <pt x="577" y="526" on="1"/>
        <pt x="643" y="401" on="0"/>
        <pt x="744" y="328" on="1"/>
        <pt x="795" y="291" on="0"/>
        <pt x="855" y="274" on="1"/>
        <pt x="855" y="0" on="1"/>
        <pt x="195" y="0" on="1"/>
      </contour>
    </TTGlyph>
    <TTGlyph name="Oslash" xMin="118" yMin="-188" xMax="1589" yMax="1719">
      <contour>
        <pt x="1036" y="17" on="1"/>
        <pt x="931" y="-13" on="0"/>
        <pt x="687" y="-13" on="0"/>
        <pt x="576" y="20" on="1"/>
        <pt x="482" y="-188" on="1"/>
        <pt x="326" y="-119" on="1"/>
        <pt x="423" y="89" on="1"/>
        <pt x="200" y="228" on="0"/>
        <pt x="138" y="524" on="1"/>
        <pt x="118" y="622" on="0"/>
        <pt x="123" y="903" on="0"/>
        <pt x="228" y="1197" on="0"/>
        <pt x="327" y="1308" on="1"/>
        <pt x="541" y="1548" on="0"/>
        <pt x="903" y="1548" on="1"/>
        <pt x="1005" y="1548" on="0"/>
        <pt x="1095" y="1524" on="1"/>
        <pt x="1185" y="1719" on="1"/>
        <pt x="1346" y="1655" on="1"/>
        <pt x="1253" y="1461" on="1"/>
        <pt x="1495" y="1324" on="0"/>
        <pt x="1566" y="1019" on="1"/>
        <pt x="1589" y="917" on="0"/>
        <pt x="1589" y="799" on="1"/>
        <pt x="1576" y="457" on="0"/>
        <pt x="1378" y="230" on="1"/>
        <pt x="1244" y="77" on="0"/>
      </contour>
      <contour>
        <pt x="544" y="216" on="0"/>
        <pt x="733" y="114" on="0"/>
        <pt x="958" y="114" on="0"/>
        <pt x="1135" y="190" on="0"/>
        <pt x="1201" y="268" on="1"/>
        <pt x="1344" y="436" on="0"/>
        <pt x="1348" y="735" on="1"/>
        <pt x="1354" y="1045" on="0"/>
        <pt x="1228" y="1229" on="1"/>
        <pt x="1096" y="1420" on="0"/>
        <pt x="851" y="1420" on="1"/>
        <pt x="639" y="1420" on="0"/>
        <pt x="508" y="1268" on="1"/>
        <pt x="366" y="1104" on="0"/>
        <pt x="360" y="803" on="1"/>
        <pt x="354" y="491" on="0"/>
        <pt x="481" y="307" on="1"/>
      </contour>
    </TTGlyph>
    <TTGlyph name="Otilde" xMin="117" yMin="-15" xMax="1589" yMax="1970">
      <contour>
        <pt x="218" y="276" on="0"/>
        <pt x="117" y="556" on="0"/>
        <pt x="123" y="901" on="0"/>
        <pt x="228" y="1195" on="0"/>
        <pt x="327" y="1306" on="1"/>
        <pt x="541" y="1546" on="0"/>
        <pt x="903" y="1546" on="1"/>
        <pt x="1208" y="1546" on="0"/>
        <pt x="1396" y="1348" on="1"/>
        <pt x="1589" y="1144" on="0"/>
        <pt x="1589" y="797" on="1"/>
        <pt x="1576" y="455" on="0"/>
        <pt x="1378" y="228" on="1"/>
        <pt x="1244" y="75" on="0"/>
        <pt x="1036" y="15" on="1"/>
        <pt x="931" y="-15" on="0"/>
        <pt x="656" y="-15" on="0"/>
        <pt x="401" y="84" on="0"/>
      </contour>
      <contour>
        <pt x="544" y="214" on="0"/>
        <pt x="733" y="112" on="0"/>
        <pt x="958" y="112" on="0"/>
        <pt x="1135" y="188" on="0"/>
        <pt x="1201" y="266" on="1"/>
        <pt x="1344" y="434" on="0"/>
        <pt x="1348" y="733" on="1"/>
        <pt x="1354" y="1043" on="0"/>
        <pt x="1228" y="1227" on="1"/>
        <pt x="1096" y="1418" on="0"/>
        <pt x="851" y="1418" on="1"/>
        <pt x="639" y="1418" on="0"/>
        <pt x="508" y="1266" on="1"/>
        <pt x="366" y="1102" on="0"/>
        <pt x="360" y="801" on="1"/>
        <pt x="354" y="489" on="0"/>
        <pt x="481" y="305" on="1"/>
      </contour>
      <contour>
        <pt x="463" y="1782" on="1"/>
        <pt x="466" y="1795" on="0"/>
        <pt x="507" y="1857" on="0"/>
        <pt x="544" y="1889" on="1"/>
        <pt x="636" y="1970" on="0"/>
        <pt x="743" y="1970" on="1"/>
        <pt x="797" y="1970" on="0"/>
        <pt x="884" y="1926" on="0"/>
        <pt x="918" y="1904" on="1"/>
        <pt x="1003" y="1847" on="0"/>
        <pt x="1061" y="1847" on="0"/>
        <pt x="1099" y="1859" on="0"/>
        <pt x="1116" y="1872" on="1"/>
        <pt x="1147" y="1895" on="0"/>
        <pt x="1191" y="1949" on="1"/>
        <pt x="1280" y="1852" on="1"/>
        <pt x="1269" y="1805" on="0"/>
        <pt x="1223" y="1759" on="1"/>
        <pt x="1127" y="1663" on="0"/>
        <pt x="1019" y="1663" on="1"/>
        <pt x="974" y="1663" on="0"/>
        <pt x="884" y="1707" on="0"/>
        <pt x="846" y="1730" on="1"/>
        <pt x="747" y="1787" on="0"/>
        <pt x="691" y="1787" on="0"/>
        <pt x="654" y="1775" on="0"/>
        <pt x="636" y="1762" on="1"/>
        <pt x="608" y="1742" on="0"/>
        <pt x="562" y="1685" on="1"/>
      </contour>
    </TTGlyph>
    <TTGlyph name="P" xMin="94" yMin="0" xMax="1321" yMax="1545">
      <contour>
        <pt x="559" y="124" on="0"/>
        <pt x="617" y="110" on="0"/>
        <pt x="710" y="110" on="0"/>
        <pt x="783" y="130" on="1"/>
        <pt x="771" y="0" on="1"/>
        <pt x="125" y="0" on="1"/>
        <pt x="136" y="109" on="1"/>
        <pt x="225" y="109" on="0"/>
        <pt x="260" y="164" on="1"/>
        <pt x="293" y="215" on="0"/>
        <pt x="293" y="331" on="1"/>
        <pt x="292" y="1240" on="1"/>
        <pt x="292" y="1360" on="0"/>
        <pt x="273" y="1406" on="0"/>
        <pt x="236" y="1422" on="0"/>
        <pt x="200" y="1422" on="1"/>
        <pt x="145" y="1422" on="0"/>
        <pt x="94" y="1411" on="1"/>
        <pt x="112" y="1530" on="1"/>
        <pt x="314" y="1530" on="1"/>
        <pt x="504" y="1530" on="0"/>
        <pt x="586" y="1536" on="1"/>
        <pt x="727" y="1545" on="0"/>
        <pt x="952" y="1543" on="0"/>
        <pt x="1146" y="1475" on="0"/>
        <pt x="1206" y="1415" on="1"/>
        <pt x="1321" y="1301" on="0"/>
        <pt x="1321" y="1095" on="1"/>
        <pt x="1321" y="873" on="0"/>
        <pt x="1162" y="733" on="1"/>
        <pt x="1009" y="597" on="0"/>
        <pt x="777" y="597" on="1"/>
        <pt x="686" y="597" on="0"/>
        <pt x="593" y="622" on="1"/>
        <pt x="574" y="739" on="1"/>
        <pt x="662" y="719" on="0"/>
        <pt x="811" y="719" on="0"/>
        <pt x="947" y="769" on="0"/>
        <pt x="994" y="816" on="1"/>
        <pt x="1092" y="912" on="0"/>
        <pt x="1092" y="1082" on="1"/>
        <pt x="1092" y="1432" on="0"/>
        <pt x="699" y="1432" on="1"/>
        <pt x="607" y="1432" on="0"/>
        <pt x="512" y="1413" on="1"/>
        <pt x="512" y="261" on="1"/>
        <pt x="512" y="171" on="0"/>
      </contour>
    </TTGlyph>
    <TTGlyph name="Q" xMin="143" yMin="-401" xMax="1625" yMax="1548">
      <contour>
        <pt x="893" y="-11" on="1"/>
        <pt x="865" y="-13" on="0"/>
        <pt x="837" y="-13" on="1"/>
        <pt x="524" y="-13" on="0"/>
        <pt x="338" y="182" on="1"/>
        <pt x="143" y="387" on="0"/>
        <pt x="149" y="738" on="1"/>
        <pt x="155" y="1083" on="0"/>
        <pt x="356" y="1308" on="1"/>
        <pt x="570" y="1548" on="0"/>
        <pt x="932" y="1548" on="1"/>
        <pt x="1237" y="1548" on="0"/>
        <pt x="1426" y="1350" on="1"/>
        <pt x="1618" y="1146" on="0"/>
        <pt x="1618" y="799" on="1"/>
        <pt x="1608" y="523" on="0"/>
        <pt x="1472" y="318" on="1"/>
        <pt x="1328" y="99" on="0"/>
        <pt x="1084" y="23" on="1"/>
        <pt x="1174" y="-20" on="0"/>
        <pt x="1237" y="-81" on="1"/>
        <pt x="1360" y="-198" on="0"/>
        <pt x="1454" y="-204" on="1"/>
        <pt x="1509" y="-207" on="0"/>
        <pt x="1591" y="-190" on="1"/>
        <pt x="1625" y="-320" on="1"/>
        <pt x="1544" y="-401" on="0"/>
        <pt x="1410" y="-401" on="1"/>
        <pt x="1255" y="-401" on="0"/>
        <pt x="1125" y="-249" on="1"/>
        <pt x="1090" y="-208" on="0"/>
        <pt x="1034" y="-135" on="0"/>
        <pt x="990" y="-84" on="0"/>
        <pt x="970" y="-65" on="1"/>
        <pt x="932" y="-28" on="0"/>
      </contour>
      <contour>
        <pt x="389" y="806" on="1"/>
        <pt x="386" y="651" on="0"/>
        <pt x="447" y="398" on="0"/>
        <pt x="510" y="307" on="1"/>
        <pt x="644" y="114" on="0"/>
        <pt x="887" y="114" on="1"/>
        <pt x="1099" y="114" on="0"/>
        <pt x="1230" y="268" on="1"/>
        <pt x="1373" y="436" on="0"/>
        <pt x="1377" y="735" on="1"/>
        <pt x="1383" y="1045" on="0"/>
        <pt x="1256" y="1229" on="1"/>
        <pt x="1125" y="1420" on="0"/>
        <pt x="880" y="1420" on="1"/>
        <pt x="668" y="1420" on="0"/>
        <pt x="537" y="1268" on="1"/>
        <pt x="395" y="1104" on="0"/>
      </contour>
    </TTGlyph>
    <TTGlyph name="R" xMin="112" yMin="0" xMax="1513" yMax="1545">
      <contour>
        <pt x="549" y="131" on="0"/>
        <pt x="593" y="110" on="0"/>
        <pt x="678" y="110" on="0"/>
        <pt x="742" y="126" on="1"/>
        <pt x="731" y="0" on="1"/>
        <pt x="141" y="0" on="1"/>
        <pt x="153" y="110" on="1"/>
        <pt x="256" y="112" on="0"/>
        <pt x="284" y="164" on="1"/>
        <pt x="308" y="206" on="0"/>
        <pt x="308" y="350" on="1"/>
        <pt x="307" y="1251" on="1"/>
        <pt x="307" y="1349" on="0"/>
        <pt x="298" y="1372" on="1"/>
        <pt x="280" y="1414" on="0"/>
        <pt x="216" y="1414" on="1"/>
        <pt x="165" y="1414" on="0"/>
        <pt x="112" y="1402" on="1"/>
        <pt x="128" y="1530" on="1"/>
        <pt x="416" y="1530" on="1"/>
        <pt x="822" y="1545" on="1"/>
        <pt x="1190" y="1545" on="0"/>
        <pt x="1288" y="1316" on="1"/>
        <pt x="1318" y="1244" on="0"/>
        <pt x="1318" y="1063" on="0"/>
        <pt x="1252" y="913" on="0"/>
        <pt x="1200" y="856" on="1"/>
        <pt x="1096" y="742" on="0"/>
        <pt x="958" y="709" on="1"/>
        <pt x="1058" y="658" on="0"/>
        <pt x="1174" y="462" on="1"/>
        <pt x="1289" y="266" on="1"/>
        <pt x="1378" y="119" on="0"/>
        <pt x="1428" y="119" on="1"/>
        <pt x="1467" y="117" on="0"/>
        <pt x="1513" y="132" on="1"/>
        <pt x="1508" y="0" on="1"/>
        <pt x="1356" y="0" on="1"/>
        <pt x="1205" y="0" on="0"/>
        <pt x="1112" y="103" on="1"/>
        <pt x="1066" y="161" on="0"/>
        <pt x="1031" y="253" on="1"/>
        <pt x="976" y="393" on="1"/>
        <pt x="939" y="485" on="0"/>
        <pt x="837" y="620" on="0"/>
        <pt x="802" y="643" on="1"/>
        <pt x="738" y="684" on="0"/>
        <pt x="602" y="684" on="1"/>
        <pt x="518" y="684" on="1"/>
        <pt x="518" y="280" on="1"/>
        <pt x="518" y="185" on="0"/>
      </contour>
      <contour>
        <pt x="892" y="1408" on="1"/>
        <pt x="828" y="1429" on="0"/>
        <pt x="778" y="1429" on="1"/>
        <pt x="654" y="1429" on="1"/>
        <pt x="579" y="1429" on="0"/>
        <pt x="518" y="1413" on="1"/>
        <pt x="518" y="804" on="1"/>
        <pt x="759" y="804" on="1"/>
        <pt x="895" y="806" on="0"/>
        <pt x="986" y="888" on="1"/>
        <pt x="1083" y="977" on="0"/>
        <pt x="1083" y="1122" on="1"/>
        <pt x="1083" y="1348" on="0"/>
      </contour>
    </TTGlyph>
    <TTGlyph name="Racute" xMin="112" yMin="0" xMax="1513" yMax="2041">
      <contour>
        <pt x="549" y="131" on="0"/>
        <pt x="593" y="110" on="0"/>
        <pt x="678" y="110" on="0"/>
        <pt x="742" y="126" on="1"/>
        <pt x="731" y="0" on="1"/>
        <pt x="141" y="0" on="1"/>
        <pt x="153" y="110" on="1"/>
        <pt x="256" y="112" on="0"/>
        <pt x="284" y="164" on="1"/>
        <pt x="308" y="206" on="0"/>
        <pt x="308" y="350" on="1"/>
        <pt x="307" y="1251" on="1"/>
        <pt x="307" y="1349" on="0"/>
        <pt x="298" y="1372" on="1"/>
        <pt x="280" y="1414" on="0"/>
        <pt x="216" y="1414" on="1"/>
        <pt x="165" y="1414" on="0"/>
        <pt x="112" y="1402" on="1"/>
        <pt x="128" y="1530" on="1"/>
        <pt x="416" y="1530" on="1"/>
        <pt x="822" y="1545" on="1"/>
        <pt x="1190" y="1545" on="0"/>
        <pt x="1288" y="1316" on="1"/>
        <pt x="1318" y="1244" on="0"/>
        <pt x="1318" y="1063" on="0"/>
        <pt x="1252" y="913" on="0"/>
        <pt x="1200" y="856" on="1"/>
        <pt x="1096" y="742" on="0"/>
        <pt x="958" y="709" on="1"/>
        <pt x="1058" y="658" on="0"/>
        <pt x="1174" y="462" on="1"/>
        <pt x="1289" y="266" on="1"/>
        <pt x="1378" y="119" on="0"/>
        <pt x="1428" y="119" on="1"/>
        <pt x="1467" y="117" on="0"/>
        <pt x="1513" y="132" on="1"/>
        <pt x="1508" y="0" on="1"/>
        <pt x="1356" y="0" on="1"/>
        <pt x="1205" y="0" on="0"/>
        <pt x="1112" y="103" on="1"/>
        <pt x="1066" y="161" on="0"/>
        <pt x="1031" y="253" on="1"/>
        <pt x="976" y="393" on="1"/>
        <pt x="939" y="485" on="0"/>
        <pt x="837" y="620" on="0"/>
        <pt x="802" y="643" on="1"/>
        <pt x="738" y="684" on="0"/>
        <pt x="602" y="684" on="1"/>
        <pt x="518" y="684" on="1"/>
        <pt x="518" y="280" on="1"/>
        <pt x="518" y="185" on="0"/>
      </contour>
      <contour>
        <pt x="892" y="1408" on="1"/>
        <pt x="828" y="1429" on="0"/>
        <pt x="778" y="1429" on="1"/>
        <pt x="654" y="1429" on="1"/>
        <pt x="579" y="1429" on="0"/>
        <pt x="518" y="1413" on="1"/>
        <pt x="518" y="804" on="1"/>
        <pt x="759" y="804" on="1"/>
        <pt x="895" y="806" on="0"/>
        <pt x="986" y="888" on="1"/>
        <pt x="1083" y="977" on="0"/>
        <pt x="1083" y="1122" on="1"/>
        <pt x="1083" y="1348" on="0"/>
      </contour>
      <contour>
        <pt x="461" y="1781" on="1"/>
        <pt x="1024" y="2041" on="1"/>
        <pt x="1096" y="1848" on="1"/>
        <pt x="500" y="1663" on="1"/>
      </contour>
    </TTGlyph>
</ttFont>
